<svg width="779" height="647" viewBox="0 0 779 647" fill="none" xmlns="http://www.w3.org/2000/svg">
<path d="M53.2 625.4C52.6 625.6 49.8 628.4 53.8 633C57.8 637.5 82 649.9 86.5 642.5C91 635.1 80.2 629.9 80.2 629.9L53.2 625.4Z" fill="#FFF5DE"/>
<path d="M79.9 617.4C79.9 617.4 104.9 614.7 115.1 616C126.1 617.4 137.9 611.8 144.8 604.2C151.8 596.5 153.6 586.5 153.6 586.5L169.5 575.4C169.5 575.4 171.2 537.5 146 543.6L116.6 544.7C116.6 544.7 58.6 554.3 49.6 561.5C49.6 561.5 38.7 572.1 35.5 576.2C34.3 577.8 33.3 593.4 44.4 598.7C44.4 598.7 37.8 607 43.6 611.7L46.3 613.8C46.3 613.8 42.5 622.1 46.1 624.5C49.6 626.9 77.4 635.3 85.3 629.8C93.2 624.3 84 618 79.9 617.4Z" fill="#FFF5DE"/>
<path d="M48.7 597.2C48.7 597.1 49.8999 597.3 51.9999 597.6C54.0999 597.8 57.0999 598.2 60.8999 598.5C62.7666 598.633 64.7999 598.733 66.9999 598.8C69.2999 598.8 71.6 598.7 74.2 598.9C76.7 599.1 79.4999 599.6 81.7999 601.4C84.0999 603 85.9999 605.8 85.5999 609.1C85.2999 610.7 84.3999 612 83.2999 613C82.1999 614 80.8999 614.7 79.4999 615.1C76.8999 616 74.2 616.3 71.7 616.6C66.7 617 62.0999 616.7 58.2999 616.3C54.5999 615.9 51.4999 615.4 49.4999 615.1C47.3999 614.7 46.2 614.5 46.2 614.4C46.2 614.3 47.3999 614.4 49.4999 614.7C51.5999 614.9 54.6999 615.3 58.3999 615.6C62.1999 615.9 66.6999 616.1 71.5999 615.6C74.0999 615.3 76.7 615 79.2 614.2C80.4 613.7 81.5999 613.1 82.5999 612.3C83.5999 611.4 84.3999 610.2 84.4999 608.9C84.8999 606.3 83.2 603.7 81.2 602.2C79.1 600.6 76.4999 600.1 74.0999 599.9C71.5999 599.7 69.1999 599.7 66.9999 599.6C64.7999 599.533 62.7333 599.4 60.7999 599.2C56.9999 598.8 53.9999 598.4 51.8999 598C49.7999 597.6 48.7 597.3 48.7 597.2Z" fill="#EB996E"/>
<path d="M46.7 579.1C46.7 579.1 47.7999 579.2 49.8999 579.5C51.9999 579.8 54.9999 580.2 58.7999 580.5C62.4999 580.8 66.9999 581.1 71.9999 581.1C74.3999 581.1 77.2 580.9 79.9 582.3C81.2 582.9 82.3 584.1 82.9 585.5C83.5 586.9 83.5999 588.5 83.2999 590C82.6999 593 80.6 595.4 78.2 596.9C75.9 598.4 73.1999 599.1 70.5999 599.4C65.5999 599.8 61.0999 599 57.2999 598.7C53.6999 598.4 50.6999 598.1 48.4999 597.8C46.3999 597.6 45.2 597.4 45.2 597.4C45.2 597.3 46.3999 597.3 48.4999 597.4C50.7999 597.6 53.7999 597.8 57.3999 598C61.1999 598.2 65.6999 598.9 70.4999 598.4C72.9999 598.1 75.5 597.4 77.7 596C79.9 594.6 81.7999 592.5 82.2999 589.8C82.7999 587.1 81.7 584.3 79.4 583.2C77.1 582 74.3999 582.1 71.9999 582C66.9999 582 62.5 581.7 58.7 581.2C55 580.8 51.8999 580.3 49.8999 579.9C47.7999 579.5 46.7 579.2 46.7 579.1Z" fill="#EB996E"/>
<path d="M59.6 581.3C59.3 581.4 58.6 579.2 57.3 576.7C56 574.2 54.7 572.4 54.9 572.2C55.1 572 56.9 573.6 58.2 576.3C59.6 578.9 59.8 581.3 59.6 581.3Z" fill="#EB996E"/>
<path d="M136 545.2L112.4 542C112.4 542 45.6 528.4 44.9 530.2C44.3 531.9 41.0001 532.5 43.5001 539.7C45.9001 546.8 84.5001 553.2 86.2001 555.5C87.9001 557.8 89.2 571 104.3 577.1C119.4 583.2 128.8 581.2 128.8 581.2" fill="#FFF5DE"/>
<path d="M128.8 581.2C128.8 581.2 128.633 581.233 128.3 581.3C127.967 581.367 127.467 581.433 126.8 581.5C125.4 581.6 123.4 581.7 120.8 581.5C118.2 581.3 115.1 580.8 111.6 579.9C108 578.9 104 577.7 99.9 575.4C95.9 573.1 92.1 569.3 89.5 564.5C88.2 562.1 87.3 559.3 86.3 556.7C86.1666 556.367 86.0334 556.067 85.9 555.8C85.8 555.7 85.5 555.5 85.2 555.4C84.5 555.1 83.8 554.9 83.1 554.7C81.7 554.233 80.2666 553.833 78.8 553.5C72.9 551.9 66.7 550.5 60.4 548.6C57.2 547.7 54 546.6 50.8 545.3C49.2 544.7 47.6 544 46.1 543C45.3 542.533 44.5667 541.967 43.9 541.3C43.6 541 43.3 540.6 43.1 540.1C42.9 539.6 42.8 539.2 42.6 538.8C42.2 537.1 41.8 535.2 42.3 533.3C42.6 532.4 43.2 531.6 43.8 531C44 530.6 44.3 530.3 44.4 530.1C44.5 530 44.4 530.1 44.6 529.8C44.8 529.6 44.9 529.6 45 529.6C45.2 529.5 45.3 529.5 45.4 529.5C45.6667 529.5 45.9 529.5 46.1 529.5C49.6 529.7 52.9 530.3 56.2 530.8C62.7 531.9 69 533.1 75 534.2C86.9 536.5 97.6 538.6 106.7 540.5C108.9 540.9 111.1 541.4 113.1 541.8C115.167 542.067 117.1 542.333 118.9 542.6C122.5 543.133 125.567 543.567 128.1 543.9C130.633 544.3 132.6 544.6 134 544.8C134.6 544.867 135.1 544.933 135.5 545C135.833 545.067 136 545.133 136 545.2C136 545.2 135.833 545.167 135.5 545.1C135.1 545.1 134.6 545.067 134 545C132.533 544.8 130.567 544.567 128.1 544.3C125.5 543.967 122.4 543.6 118.8 543.2C117 542.933 115.067 542.667 113 542.4C110.9 542.1 108.8 541.6 106.5 541.2C97.5 539.5 86.7 537.4 74.8 535.1C68.8 534 62.5 532.9 56 531.8C52.7 531.3 49.4 530.7 46.1 530.5C45.8333 530.5 45.6333 530.5 45.5 530.5C45.4 530.5 45.3 530.5 45.3 530.6C45.2 530.5 45.3 530.6 45.2 530.5C45.1 530.3 45.2 530.3 45.1 530.2C45.1 530.2 45.0667 530.2 45 530.2C45.8 530.5 45.2 530.3 45.4 530.4V530.5C45.2 531 44.8 531.3 44.5 531.6C44 532.3 43.5 532.9 43.3 533.7C42.9 535.1 43.2 536.9 43.6 538.5C43.9 539.4 44.1 540 44.7 540.6C45.2333 541.2 45.8667 541.7 46.6 542.1C48 543 49.6 543.7 51.2 544.4C54.3 545.7 57.5 546.7 60.7 547.6C67 549.5 73.2 551 79.1 552.5C80.5666 552.9 82 553.333 83.4 553.8C84.1 554 84.8 554.2 85.5 554.5C85.9 554.7 86.3 554.9 86.6 555.3C86.8666 555.633 87.0667 556 87.2 556.4C88.2 559.1 89 561.7 90.3 564.1C92.8 568.8 96.4 572.5 100.3 574.7C104.2 577 108.2 578.3 111.7 579.3C115.2 580.3 118.3 580.9 120.9 581.1C123.4 581.4 125.4 581.4 126.7 581.3C127.433 581.233 127.967 581.2 128.3 581.2C128.633 581.133 128.8 581.133 128.8 581.2Z" fill="#EB996E"/>
<path d="M72.5999 616.2C72.5999 616.2 73.4999 616.1 74.9999 616.4C76.5999 616.6 78.8999 617.1 81.4999 618.3C82.7999 618.9 84.1999 619.6 85.4999 620.7C86.7999 621.7 88.1999 623.2 88.4999 625.3C88.6999 627.4 87.2999 629.5 85.4999 630.6C83.5999 631.8 81.2999 632 79.2 631.9C70.5 631.4 62.7999 630.1 57.2999 628.7C54.5999 628 52.3999 627.3 50.8999 626.7C49.4999 626.2 48.7 625.8 48.7 625.7C48.7 625.7 49.4999 625.9 51.0999 626.3C52.5999 626.8 54.7999 627.4 57.4999 628C62.9999 629.2 70.7 630.3 79.2 630.9C81.2999 630.9 83.3999 630.7 84.9999 629.7C86.5999 628.8 87.6999 627.1 87.4999 625.4C87.3999 623.7 86.1999 622.3 84.9999 621.3C83.6999 620.3 82.4 619.6 81.2 618.9C76.1 616.5 72.4999 616.5 72.5999 616.2Z" fill="#EB996E"/>
<path d="M246.5 479.7C246.5 479.7 276.1 430.9 282.8 398.8C289.4 366.6 323.8 315.5 334.9 302.2C346 288.9 390.4 273.4 390.4 273.4L406.8 264.5L533.5 253.4C533.5 253.4 617.9 262.3 643.4 285.6C668.9 308.9 688.9 362.1 688.9 388.8C688.9 415.4 714.7 646 714.7 646L402.3 645.6L409.3 531.9C409.3 531.9 371.5 506.4 361.5 484.2C351.6 462 357.1 473.1 357.1 473.1C357.1 473.1 321.7 548.4 309.5 557.3C297.3 566.2 155.4 609.7 155.4 609.7L136 535.2L246.5 479.7Z" fill="#A9D2E6"/>
<path d="M566 479C566 479 565.8 478.567 565.4 477.7C565 476.7 564.467 475.367 563.8 473.7C563.2 472 562.3 469.9 561.5 467.4C560.7 464.9 559.7 462.1 558.8 459C557.9 455.8 556.9 452.3 556.1 448.5C555.1 444.8 554.3 440.7 553.5 436.4C552.1 427.8 550.9 418.3 550.5 408.3C550.1 398.2 550.5 388.6 551.3 379.9C551.9 375.6 552.3 371.5 553 367.7C553.3 365.7 553.6 363.9 553.9 362.1C554.3 360.367 554.667 358.7 555 357.1C555.6 353.8 556.4 351 557.1 348.4C557.7 345.9 558.4 343.7 559 342C559.533 340.333 559.967 339 560.3 338C560.567 337.067 560.733 336.6 560.8 336.6C560.8 336.6 560.7 337.067 560.5 338C560.167 339.067 559.767 340.433 559.3 342.1C558.8 343.9 558.2 346 557.7 348.6C557.1 351.1 556.3 354 555.7 357.2C555.367 358.8 555.033 360.5 554.7 362.3C554.4 364 554.1 365.9 553.8 367.8C553.2 371.6 552.8 375.7 552.3 380C551.5 388.7 551.2 398.2 551.5 408.2C551.9 418.2 553.1 427.7 554.5 436.3C555.3 440.5 556 444.6 556.9 448.3C557.7 452.1 558.7 455.6 559.5 458.8C560.3 461.9 561.3 464.7 562.1 467.2C562.8 469.7 563.6 471.9 564.2 473.6C564.8 475.267 565.267 476.6 565.6 477.6C565.933 478.533 566.067 479 566 479Z" fill="#001722"/>
<path d="M678.3 583C678.1 583.1 675.8 580.5 671.5 577C669.3 575.2 666.6 573.3 663.5 571.4C660.3 569.5 656.6 567.7 652.7 566.1C648.7 564.7 644.8 563.6 641.2 562.9C637.5 562.2 634.2 561.9 631.4 561.8C625.9 561.5 622.4 562 622.4 561.8C622.4 561.7 623.2 561.5 624.8 561.4C625.6 561.2 626.5 561.1 627.7 561.1C628.8 561.1 630 561 631.5 561C634.3 561 637.6 561.3 641.3 562C645 562.6 649 563.7 653 565.2C657.1 566.7 660.7 568.6 664 570.5C667.1 572.5 669.8 574.5 672 576.4C673.1 577.3 673.9 578.2 674.7 579C675.6 579.7 676.2 580.5 676.7 581.1C677.8 582.2 678.3 582.9 678.3 583Z" fill="#001722"/>
<path d="M654.2 546.4C654.1 546.6 651.1 544.2 645.5 541.4C644.1 540.7 642.5 540 640.8 539.4C639.1 538.6 637.2 538.1 635.3 537.5C631.3 536.4 626.8 535.5 622.1 535.2C617.3 534.9 612.8 535.1 608.7 535.7C606.7 536 604.8 536.3 603 536.8C601.2 537.2 599.6 537.7 598.1 538.2C592.2 540.1 588.8 542.1 588.7 541.9C588.7 541.9 589.5 541.4 591 540.5C591.8 540.1 592.7 539.5 593.9 539.1C595.1 538.6 596.3 537.9 597.8 537.5C599.3 536.9 601 536.4 602.8 535.9C604.6 535.4 606.5 535.1 608.6 534.7C612.7 534.1 617.3 533.8 622.2 534.1C627 534.5 631.5 535.4 635.5 536.6C637.5 537.2 639.4 537.8 641.1 538.6C642.8 539.2 644.4 540 645.8 540.7C647.2 541.4 648.4 542.2 649.5 542.9C650.6 543.5 651.4 544.1 652.1 544.7C653.5 545.7 654.3 546.4 654.2 546.4Z" fill="#001722"/>
<path d="M356.8 474.5C356.7 474.6 356.3 473.5 355.4 471.5C354.6 469.5 353.4 466.6 351.9 463.1C348.9 456 344.5 446.4 339.1 436C333.7 425.6 328.9 416.3 325.3 409.3C323.5 405.9 322.1 403.1 321.2 401.1C320.3 399.2 319.8 398.1 319.9 398.1C320 398 320.6 399.1 321.6 400.9C322.7 403 324.2 405.7 325.9 409C329.6 415.7 334.7 425 340 435.5C345.4 445.9 349.8 455.6 352.6 462.8C354 466.4 355.1 469.3 355.8 471.3C356.5 473.4 356.9 474.5 356.8 474.5Z" fill="#001722"/>
<path d="M314 505.9C314 505.9 313.2 505.5 311.9 504.6C310.5 503.7 308.6 502.4 306.1 500.9C301.2 497.9 294.2 494.2 286 491.1C277.7 488 270 486.2 264.3 485.3C261.5 484.8 259.2 484.4 257.6 484.2C256 484 255.1 483.9 255.1 483.8C255.1 483.7 256 483.8 257.6 483.8C259.2 483.9 261.5 484.1 264.4 484.5C270.1 485.3 278 487 286.3 490.1C294.6 493.2 301.7 497.1 306.5 500.3C308.9 501.9 310.8 503.2 312.1 504.3C313.4 505.3 314.1 505.8 314 505.9Z" fill="#001722"/>
<path d="M530.3 253.6C530.3 253.6 530.233 254.133 530.1 255.2C529.967 256.333 529.8 257.867 529.6 259.8C529.1 263.8 528.4 269.7 527.1 276.8C525.9 284 524.3 292.5 521.5 301.7C518.8 310.9 514.9 320.8 509 330.3C505.9 335.2 502.2 339.6 498.5 343.6L498.1 344.1L497.8 343.6C492.4 336.4 485.6 331.1 478.8 327.8C475.4 326.1 472 325 468.8 324.1C465.5 323.4 462.5 322.9 459.7 322.9C454.1 322.8 449.6 323.7 446.7 324.7C443.8 325.8 442.3 326.5 442.2 326.4C442.2 326.4 442.567 326.2 443.3 325.8C444.1 325.5 445.1 324.9 446.6 324.4C449.5 323.3 454 322.2 459.7 322.3C462.6 322.2 465.7 322.7 469 323.4C472.2 324.2 475.7 325.3 479.2 327C486.1 330.3 493.1 335.7 498.6 343L497.8 342.9C501.4 338.9 505 334.6 508.1 329.7C514 320.4 517.8 310.5 520.6 301.4C523.4 292.3 525.1 283.8 526.4 276.7C527.7 269.6 528.6 263.8 529.2 259.8C529.533 257.867 529.767 256.333 529.9 255.2C530.1 254.133 530.233 253.6 530.3 253.6Z" fill="#001722"/>
<path d="M532 254.8L512.7 229.3L491.8 229.9L423.7 265.9L532 254.8Z" fill="#A9D2E6"/>
<path d="M442.2 326.4C442.2 326.467 441.833 326.467 441.1 326.4C440.4 326.3 439.3 326.2 438 325.9C435.3 325.3 431.5 323.8 427.3 321.3C425.1 320 422.8 318.8 420 318.3C417.2 317.7 414.1 317.6 410.9 318.2C404.7 319.5 398.4 324.4 395.8 331.4L394.7 334.3L394.8 331.2C394.8 330.4 394.833 329.567 394.9 328.7C395.1 313 395.1 298.7 395.8 288.4C396.1 283.2 396.5 279 396.9 276.2C397.1 274.7 397.3 273.6 397.5 272.9C397.633 272.167 397.733 271.8 397.8 271.8C397.9 271.8 397.6 273.3 397.3 276.2C397 279.1 396.7 283.2 396.5 288.4C396.1 298.7 396.2 313 395.9 328.8C395.9 329.6 395.9 330.4 395.9 331.2L394.9 331C397.6 323.7 404.2 318.6 410.7 317.3C417.3 315.9 423.5 317.9 427.6 320.7C431.8 323.2 435.5 324.8 438.1 325.5C440.7 326.2 442.3 326.3 442.2 326.4Z" fill="#001722"/>
<path d="M512.7 105.6V258.9C512.7 267.7 509.6 276.2 504 282.9C495.3 293.1 484.9 301.8 473.2 308.4L442.2 325.8L416.6 303C409.1 296.2 404.7 286.7 404.3 276.7C403.8 265.5 403.8 254.2 403.8 254.2C403.8 254.2 360.5 251.1 356.4 208.4C354.5 188.3 353.9 147 353.8 109C353.7 65.7 386.9 29.6 430.1 26L431.3 25.9C476 24.8 512.8 60.8 512.7 105.6Z" fill="#FFF5DE"/>
<path d="M403.7 253.6C403.7 253.6 430.9 253.6 458.2 233.2C458.2 233.2 447.5 265 404.5 264.7L403.7 253.6Z" fill="#C1B59A"/>
<path d="M403.152 188.002C403.152 187.602 399.052 187.302 392.352 187.002C390.652 186.902 389.052 186.702 388.652 185.602C388.152 184.402 388.652 182.602 389.352 180.502C390.619 176.369 391.919 171.969 393.252 167.302C398.652 148.602 402.352 133.202 401.652 133.002C400.852 132.802 395.852 147.802 390.552 166.602C389.219 171.202 387.985 175.602 386.852 179.802C386.352 181.802 385.452 184.102 386.452 186.502C387.052 187.702 388.352 188.502 389.452 188.702C390.552 189.002 391.452 188.902 392.352 188.902C399.052 188.702 403.152 188.402 403.152 188.002Z" fill="#001722"/>
<path d="M428.632 185.005C427.335 185.005 427.983 194.21 420.594 201.47C413.334 208.73 403.352 208.47 403.352 209.767C403.352 210.415 405.685 211.452 409.964 211.193C413.982 210.933 419.816 209.118 424.354 204.711C428.891 200.303 430.447 194.728 430.447 190.969C430.576 187.08 429.28 184.876 428.632 185.005Z" fill="#001722"/>
<path d="M462.4 62.5C462.467 62.5667 462.533 62.6333 462.6 62.7C469.9 67.5 475 74.9 476.9 83.4C476.967 83.7333 477.033 84.0333 477.1 84.3C479.8 96.3 480.5 108.8 483.3 120.8C486.1 132.9 485.6 142.1 497.7 144.8C505.3 146.5 511.7 142.2 514.4 137.9C515.5 136.3 515.5 134.2 515.5 132.2C515.4 102.6 521.3 91.1 518.7 60.2C518 51.9 513.4 44.3 506.2 40C499.3 35.9 491.1 31.8 484.2 35.7C477.3 39.7 469.1 53.9 464 60.1" fill="#001722"/>
<path d="M499.9 126.1C500.6 125.8 528.5 115 530 144.4C531.5 173.7 501.8 169.1 501.7 168.3C501.6 167.4 499.9 126.1 499.9 126.1Z" fill="#FFF5DE"/>
<path d="M510.1 156.7C510.2 156.6 510.6 157.1 511.5 157.4C512.3 157.7 513.8 157.9 515.3 157.3C518.3 156 520.7 150.9 520.6 145.6C520.5 143 519.8 140.5 518.8 138.4C517.8 136.3 516.3 134.9 514.7 134.7C513.2 134.4 512.1 135.4 511.8 136.2C511.4 137.1 511.7 137.6 511.5 137.7C511.4 137.8 510.9 137.2 511 136C511.1 135.4 511.4 134.7 512.1 134.1C512.8 133.5 513.8 133.2 514.9 133.2C517.1 133.3 519.3 135.3 520.4 137.5C521.7 139.8 522.6 142.6 522.6 145.6C522.7 151.5 520 157.2 515.8 158.6C513.8 159.3 512 158.8 511.1 158.1C510.2 157.4 510 156.8 510.1 156.7Z" fill="#C1B59A"/>
<path d="M485.5 40.2C491.8 27.9 470.7 12.7 455.8 9.4C441 6 422.6 14.6 408.6 20.6C399.8 24.3 391.1 29.3 381.5 29.7C375.1 29.9 368.8 28.1 362.6 26.5C356.4 24.8 349.9 23.4 343.6 24.3C337.2 25.3 330.9 29.2 329 35.4C327.1 41.5 331.2 49.3 337.6 49.7C329.2 45.9 317.9 52.7 317.4 62C316.8 71.2 327.1 79.3 336 76.6C331.6 73.8 325.6 79.6 326.6 84.7C327.5 89.9 332.5 93.3 337.5 95C350.1 99.3 364.2 96.4 376.5 91.1C388.8 85.8 399.9 78.2 412.1 72.6C424.2 67 444.5 57.1 457.4 60.5C466.9 63 474.3 73.6 479.3 70.7C484.2 67.9 486.9 62.4 487.5 56.8C488.1 51.2 486.8 45.6 485.5 40.2Z" fill="#001722"/>
<path d="M334 49.2C334.3 49 335.7 51.2 339.1 54.4C342.6 57.5 348.2 61.4 356.3 63.5C364.1 65.5 374.6 65.5 384.1 60.1C393.6 54.8 401.4 45.1 410.5 35.9C419.6 26.6 430.6 19.4 442.1 17.4C453.5 15.4 464.5 18.7 470.9 24.8C477.3 30.9 479.1 38.4 479.1 43.1C479.1 45.6 478.6 47.4 478.3 48.6C477.833 49.8 477.533 50.4 477.4 50.4C477.2 50.3 478.2 47.8 477.9 43.2C477.7 38.7 475.6 31.8 469.5 26.3C463.4 20.9 453.2 18 442.6 20C431.9 22.1 421.4 28.9 412.6 38C403.6 47 395.6 56.9 385.4 62.4C375.1 68.1 363.9 67.9 355.7 65.5C347.4 63.1 341.6 58.6 338.3 55.2C336.7 53.4 335.6 52 334.9 50.9C334.233 49.8333 333.933 49.2667 334 49.2Z" fill="#505050"/>
<path d="M507.2 124.3C507.1 124.4 505.9 123.6 504.6 121.3C503.3 119.1 502.1 115.4 502.3 110.8C502.1 101.4 509.6 90.6 509.6 77.5C509.7 71 508.1 64.8 504.9 60.3C501.8 55.7 497.2 53 493.3 51.8C489.2 50.5 485.7 50.7 483.4 51.2C481.1 51.8 479.9 52.5 479.7 52.2C479.6 52.1 480.7 51.1 483.1 50.2C485.4 49.3 489.3 48.6 493.8 49.8C498.3 50.9 503.4 53.7 507.1 58.7C510.8 63.7 512.6 70.5 512.5 77.5C512.5 84.5 510.5 91 508.4 96.4C506.3 101.8 504.6 106.7 504.3 111C503.5 119.7 507.6 124.1 507.2 124.3Z" fill="#505050"/>
<path d="M500.6 167.4L495.8 163C494.1 161.4 494 158.7 495.6 156.9L513.5 137.6C515.1 135.9 517.8 135.8 519.5 137.4L524.3 141.8C526 143.4 526.1 146.1 524.5 147.9L506.6 167.2C505 168.9 502.3 169 500.6 167.4Z" fill="#001722"/>
<path d="M689.2 396.5C689.267 397.3 689.367 398.467 689.5 400C689.7 403 690 407.5 690.4 413.4C691.2 425.1 692.4 442.3 693.9 464.1C695.3 485.9 697 512.2 699 542.4C699.533 549.933 700.067 557.7 700.6 565.7C700.9 569.7 701 573.8 701.2 577.9C701.4 579.9 701.2 582 701.1 584.1C701 586.2 701.1 588.3 700.8 590.4C700.533 592.533 700.267 594.667 700 596.8C699.533 598.867 699.1 600.967 698.7 603.1C698.1 605.2 697.3 607.3 696.7 609.4C695.8 611.4 695 613.5 693.9 615.4C689.7 623.2 683.2 630.5 674.1 633.5H674C615.6 633.5 548.9 633.5 478.3 633.5C457.3 633.4 436.5 633.4 416.3 633.4H415.6L415.8 632.8C417.667 626 419.533 619.3 421.4 612.7C422.333 609.367 423.267 606.033 424.2 602.7C425.1 599.4 426.1 596.2 426.5 592.9C427.5 586.3 426.8 579.5 424.8 573.2C423.8 570.1 422.3 567.2 420.1 564.8C418.1 562.4 415.2 560.6 412.2 560.1L408.1 559.5L412.1 559.1C438 557 462.7 554.9 486 552.9L485.8 553C491.5 552.9 495.9 552 501.5 552.3C507.1 552.6 512.4 551 517 553.8L516.8 552.9C539.4 548.7 560.4 544.7 579.5 541.1L579.2 541.6C578.4 539.1 578.2 536.6 578.1 534.2C578.033 531.733 578.1 529.333 578.3 527C578.7 522.4 579.3 517.9 580.2 513.5V513.8C575.2 504.4 570.6 495.8 566.4 487.9L566.3 487.8C565.4 464.7 565 446.5 565.2 434.1C565.2 427.9 565.5 423.2 565.8 420C565.933 418.4 566.1 417.2 566.3 416.4C566.5 415.6 566.6 415.2 566.6 415.2C566.6 415.2 566.533 415.6 566.4 416.4C566.2 417.2 566.067 418.4 566 420C565.7 423.2 565.5 427.9 565.5 434.1C565.4 446.5 565.8 464.7 566.9 487.7V487.6C571.1 495.5 575.8 504.1 580.8 513.4L580.9 513.5V513.7C580 518 579.4 522.4 579 527.1C578.8 529.433 578.733 531.8 578.8 534.2C578.9 536.5 579.1 539 579.9 541.3L580 541.7L579.6 541.8C560.5 545.5 539.6 549.5 517 553.8H516.8L516.7 553.7C512.3 551 507.1 553.2 501.7 553C496.3 552.7 492 553 486.4 553.7L486.2 553.8H486.1C462.8 555.8 438.1 557.9 412.2 560.1V559.1C415.7 559.7 418.6 561.6 420.9 564.1C423.1 566.7 424.7 569.7 425.7 572.9C427.8 579.3 428.5 586.2 427.5 593C427.1 596.4 426.1 599.7 425.2 603C424.267 606.333 423.333 609.633 422.4 612.9C420.533 619.567 418.667 626.267 416.8 633L416.3 632.4C436.5 632.4 457.3 632.4 478.3 632.4C548.9 632.5 615.6 632.5 674 632.6H673.9C678.1 631.2 682 628.6 685.2 625.6C688.4 622.5 691.1 618.9 693.1 615C694.2 613.1 694.9 611 695.8 609.1C696.5 607 697.2 604.9 697.8 602.9C698.267 600.767 698.733 598.667 699.2 596.6C699.4 594.533 699.633 592.433 699.9 590.3C700.3 588.2 700.2 586.1 700.3 584.1C700.4 582 700.5 579.9 700.4 577.9C700.2 573.8 700 569.8 699.7 565.8C699.233 557.8 698.767 550 698.3 542.4C696.4 512.3 694.7 485.9 693.3 464.1C691.9 442.3 690.9 425.1 690.1 413.4C689.8 407.5 689.5 403 689.3 400C689.233 398.467 689.2 397.3 689.2 396.5Z" fill="#001722"/>
<path d="M632.5 286.4C632.5 286.4 631.2 287.2 628.9 288.6C626.6 290 623.4 292.2 619.7 295.2C612.2 301.2 603.2 311.2 595.7 323.9C588.2 336.6 583.3 349 579.7 357.9C578 362.3 576.6 365.9 575.5 368.6C575.033 369.733 574.667 370.7 574.4 371.5C574.133 372.167 573.967 372.5 573.9 372.5C573.9 372.433 574 372.067 574.2 371.4C574.467 370.6 574.8 369.6 575.2 368.4C576 365.9 577.3 362.2 579 357.7C582.4 348.6 587.3 336.1 594.8 323.4C602.3 310.6 611.5 300.6 619.2 294.6C623 291.6 626.3 289.5 628.7 288.2C629.9 287.5 630.9 287.1 631.5 286.8C632.167 286.467 632.5 286.333 632.5 286.4Z" fill="#001722"/>
<g opacity="0.3">
<path d="M554.2 362.7C545.7 381.2 542.3 402.2 543 422.6C543.8 442.9 546.2 463.3 544.2 483.5C542.2 503.8 535.2 524.4 520.1 538.1C518.3 539.7 516.3 541.3 515.2 543.5C514.1 545.7 514.2 548.7 516.2 550.2C517.9 551.5 520.3 551.2 522.4 550.8C536.9 548.3 551.5 546.5 566 544C569.1 543.5 579.5 541.4 579.5 541.4C579.5 541.4 578.2 533.5 578.7 529.5C579.1 525.9 580.5 513.6 580.5 513.6C580.1 511.7 578.7 510.2 577.8 508.4C568.2 490.8 565.8 477.7 565.8 477.7C560.8 467.6 558.6 457.4 556.3 448C550 421.7 550.2 395.9 554.2 362.7Z" fill="black"/>
</g>
<g opacity="0.3">
<path d="M395.7 332.9C396.833 335.9 398 338.9 399.2 341.9C399.6 342.8 400 343.8 400.9 344.2C402.7 344.8 404.1 342.7 405 340.9C408.3 334.2 415.2 329.3 422.7 328.5C428.8 327.8 435.1 329.5 441 328.3C435.7 325.1 430.4 322 424.5 320.1C418.7 318.2 412.1 317.7 406.4 319.9C400.6 322.1 395.9 327.4 395.4 333.6" fill="black"/>
</g>
<g opacity="0.3">
<path d="M445.1 325.3C452.2 325.4 459.4 325.5 466.3 327.2C473.2 328.8 479.9 332.2 484.4 337.6C489.3 343.5 491.1 351.3 493 358.6C493.4 360.1 494.1 361.7 495.5 361.9C496.4 362 497.2 361.5 497.9 361C509.9 352.2 517.8 338.7 522.1 324.5C526.4 310.3 527.4 295.3 527.7 280.5C522 290.7 519.5 302.4 515.7 313.4C511.9 324.5 506.4 335.7 496.6 342.1C496.9 339.6 495.9 337 494.3 335.1C492.8 333.1 490.7 331.6 488.5 330.3C475.3 322.3 458.7 320.3 444 324.8" fill="black"/>
</g>
<path d="M414 560.9H389.5C389.5 560.9 334.3 540.9 322.9 542.8C312.7 544.5 275.2 569.4 267.9 574.4C267 574.9 266.4 575.7 266.1 576.6C264.6 580.7 266.6 585.2 270.6 586.8L271.3 587.1L271 588.3C270.6 589.6 270.3 591.2 270.4 592.7C270.7 598 277.8 599.6 280.5 595.1L279.1 597.6C278.5 598.6 278.2 599.8 278.3 600.9L278.4 603.2C278.5 605.7 280.2 607.9 282.6 608.7C284.9 609.5 287.4 608.8 289.1 607C293.8 601.8 304.1 591.3 311 590.2C317.2 589.1 327.5 589 333.7 589C336.9 589 339.7 591 340.8 593.9C336.7 594.2 308 609.2 297.8 614.6C294.7 616.2 292.3 619.2 291.9 622.8C291.6 625.9 293.2 629.3 299.5 627.8C313 624.6 337.3 613.5 337.3 613.5C337.3 613.5 349.8 609.9 357.9 615.6C369.3 623.7 374.6 626.6 384.4 623.4C394.2 620.1 401.4 615.5 401.4 615.5L420.7 613.5C420.7 613.5 439 567.9 414 560.9Z" fill="#FFF5DE"/>
<path d="M341 570.2C341 570.4 337.1 569.2 330.7 568.8C324.2 568.3 315.1 569.1 306 572.9C297 576.8 290.1 582.9 286 587.8C281.8 592.8 280 596.4 279.9 596.3C279.8 596.3 280.2 595.4 281.1 593.8C282 592.2 283.4 589.9 285.4 587.4C289.5 582.2 296.4 575.9 305.6 572C314.9 568 324.2 567.4 330.7 568C334 568.3 336.6 568.9 338.3 569.3C340.1 569.8 341.1 570.1 341 570.2Z" fill="#EB996E"/>
<path d="M335.2 556.8C335.1 557 331.2 555.1 324.4 554.9C317.6 554.6 308.1 556.6 299.3 562C290.4 567.4 283.7 574.3 279 579.2C276.8 581.5 274.9 583.5 273.4 585.1C272.1 586.4 271.4 587.2 271.3 587.1C271.3 587.1 271.9 586.3 273.1 584.8C274.4 583.3 276.2 581.2 278.5 578.7C283.1 573.6 289.7 566.6 298.7 561.1C307.8 555.6 317.5 553.7 324.4 554.2C327.9 554.4 330.6 555 332.4 555.6C333.4 555.9 334 556.2 334.5 556.4C334.967 556.6 335.2 556.733 335.2 556.8Z" fill="#EB996E"/>
<path d="M778.8 561.1C778.867 561.1 778.5 561.367 777.7 561.9C776.9 562.5 775.767 563.267 774.3 564.2C771.2 566.1 766.7 568.7 760.9 571.3C755.1 574 748 576.8 740 579.4C731.9 582.1 723 584.5 713.8 587.6C704.5 590.6 695.9 594.1 688.5 598.1C681.2 602.1 675 606.6 670.4 611C665.8 615.3 662.7 619.5 660.7 622.4C658.8 625.4 657.9 627.2 657.8 627.1C657.8 627.1 658 626.667 658.4 625.8C658.8 624.933 659.467 623.733 660.4 622.2C662.2 619.2 665.3 614.9 669.9 610.4C674.5 606 680.6 601.3 688.1 597.2C695.5 593.1 704.2 589.7 713.4 586.6C722.7 583.5 731.7 581.1 739.7 578.5C747.7 575.9 754.8 573.2 760.6 570.7C766.4 568.1 771 565.7 774.1 563.9C775.633 562.967 776.8 562.267 777.6 561.8C778.4 561.267 778.8 561.033 778.8 561.1Z" fill="#455A64"/>
<path d="M68.5 646.6L2.10004 480C-3.69996 465.7 6.80002 450 22.3 450H229C238.3 450 246.6 455.9 249.6 464.8L306.6 632.8L373.2 633.1C378.6 633.2 383 641.1 383 646.5L309.7 645.6L68.5 646.6Z" fill="#001722"/>
<path d="M164 555.2C164 562.6 158 568.6 150.6 568.6C143.2 568.6 137.2 562.6 137.2 555.2C137.2 547.8 143.2 541.8 150.6 541.8C158 541.8 164 547.8 164 555.2Z" fill="#F5F5F5"/>
<path d="M597.099 122.849C597.102 159.159 626.536 188.59 662.843 188.59C679.416 188.59 694.515 182.41 706.079 172.289L656.635 122.849H597.099Z" fill="#005D94"/>
<path d="M662.844 57.1019V117.025L712.102 166.283C722.33 154.694 728.588 139.519 728.588 122.845C728.588 86.5339 699.153 57.1019 662.844 57.1019Z" fill="#005D94"/>
<path d="M654.741 49C618.433 49 589 78.4307 589 114.747V114.751H654.741V49ZM645.957 58.4613V105.967L598.459 105.963C602.251 81.5747 621.571 62.2533 645.957 58.4613Z" fill="#005D94"/>
<path d="M158.525 127.237C140.415 131.501 126.083 145.468 121.416 163.408H112.171C117.171 140.384 135.363 122.553 158.525 117.989V127.237ZM102.645 167.213L102 172.149H106.98H124.923H128.565L129.223 168.567C132.377 151.324 146.185 137.896 163.58 135.147L167.267 134.564V130.829V112.893V108L162.405 108.551C131.273 112.073 106.7 136.195 102.645 167.213Z" fill="#CCFFFF"/>
<path d="M175.853 217.05C175.856 228.413 175.867 237.85 175.885 243.977C209.317 241.139 235.889 214.109 238.072 180.497C230.231 180.486 221.097 180.474 211.285 180.461C209.279 199.338 194.543 214.425 175.853 217.05Z" fill="#CCFFFF"/>
<path d="M128.877 180.405C117.35 180.409 107.882 180.42 102.094 180.444C104.317 214.987 132.278 242.553 166.994 244.116C166.958 238.951 166.934 230.625 166.927 217.343C146.99 215.833 130.953 200.188 128.877 180.405Z" fill="#CCFFFF"/>
<path d="M211.271 171.535C219.584 171.546 228.524 171.559 238.072 171.575C235.876 137.994 209.344 110.994 175.948 108.127C175.936 115.95 175.924 125.15 175.913 135.059C194.536 137.702 209.223 152.729 211.271 171.535Z" fill="#CCFFFF"/>
</svg>
