<svg width="277" height="388" viewBox="0 0 277 388" fill="none" xmlns="http://www.w3.org/2000/svg">
<path d="M154.934 65.2118C166.92 69.3558 177.23 77.3945 186.67 86.0091C222.346 118.565 248.85 161.512 262.236 208.45C271.436 240.716 273.557 278.466 253.548 305.129C242.912 319.3 227.045 328.685 210.346 333.929C193.648 339.173 176.034 340.569 158.573 341.097C130.726 341.94 102.818 340.656 75.157 337.261C63.721 335.857 51.945 333.953 42.213 327.653C33.6144 322.086 27.2637 313.45 22.665 304.168C10.4264 279.47 9.85171 250.046 15.981 223.078C22.1117 196.11 34.4744 171.097 47.329 146.728C59.081 124.448 71.7197 101.965 90.5397 85.5158C109.358 69.0665 135.748 59.5291 159.352 67.1678" fill="#002E59"/>
<path d="M174.063 337.042H102.167V305.778H174.063V337.042Z" fill="#193046"/>
<path d="M65.0812 201.928C58.3745 208.694 52.5158 219.766 48.4305 228.374C47.5598 230.21 46.7452 232.11 46.4932 234.126C45.8972 238.898 48.6238 246.898 56.5345 248.294V277.74C45.5638 274.224 35.5918 268.636 26.9958 260.965C18.3998 253.296 12.3732 242.036 13.3425 230.556C13.9025 223.932 16.6852 217.717 19.6278 211.757C25.1212 200.634 31.3932 189.76 39.7905 180.628L55.3945 193.88L65.0812 201.928Z" fill="#FFF5DE"/>
<path d="M215.292 321.239H61.825C58.9156 321.239 56.5356 318.857 56.5356 315.948V218.752C56.5356 215.841 58.9156 213.461 61.825 213.461H215.292C218.201 213.461 220.582 215.841 220.582 218.752V315.948C220.582 318.857 218.201 321.239 215.292 321.239Z" fill="#BEC6C3"/>
<path d="M97.4104 370.873C123.708 345.177 166.777 315.984 197.534 295.84C207.025 289.624 216.585 283.371 227.069 279.037C236.661 275.073 245.845 268.987 256.168 270.071C269.122 271.432 277.616 286.077 275.989 299.003C274.362 311.927 265.216 322.732 254.888 330.672C241.906 340.653 226.697 347.3 211.372 353.061C182.438 363.94 135.609 377.201 105.13 382.341L97.4104 370.873Z" fill="#1F3A54"/>
<path d="M104.749 381.775C90.6672 387.537 71.8592 389.115 56.8792 386.447C53.9632 385.928 50.9685 385.199 48.6419 383.365C46.3139 381.533 44.8352 378.319 45.8472 375.535C47.1059 372.071 51.3192 370.833 54.9779 370.388C69.2659 368.645 84.2765 369.26 98.3512 372.272L104.749 381.775Z" fill="#222221"/>
<path d="M180.386 367.173C153.696 341.886 110.181 313.361 79.1169 293.693C69.5315 287.623 59.8756 281.519 49.3262 277.349C39.6742 273.533 30.3969 267.587 20.0929 268.831C7.16088 270.393 -1.10578 285.166 0.719551 298.065C2.54622 310.963 11.8596 321.626 22.3076 329.406C35.4409 339.185 50.7502 345.595 66.1649 351.122C95.2609 361.551 142.29 374.089 172.844 378.759L180.386 367.173Z" fill="#1F3A54"/>
<path d="M173.217 378.186C187.385 383.731 206.216 385.018 221.153 382.119C224.061 381.555 227.042 380.779 229.342 378.911C231.641 377.043 233.07 373.806 232.016 371.038C230.702 367.594 226.47 366.422 222.806 366.033C208.493 364.511 193.494 365.357 179.466 368.585L173.217 378.186Z" fill="#222221"/>
<path d="M199.377 213.461L204.689 199.437C206.225 200.622 209.332 202.536 210.493 204.088C220.413 194.034 234.368 184.246 244.286 174.193C189.706 96.3303 98.913 119.302 76.9437 133.22C59.7343 144.121 44.373 158.205 32.8303 174.193C42.749 184.246 56.705 194.034 66.6237 204.088C67.785 202.536 70.8917 200.622 72.4277 199.437L77.7397 213.461" fill="#263062"/>
<path d="M153.603 90.4746C154.323 96.2266 155.045 101.977 155.765 107.729C156.03 109.84 156.335 113.439 157.327 115.32C158.914 118.332 173.197 122.628 175.777 124.068C175.777 124.068 164.333 133.671 137.777 134.723C111.221 135.775 102.167 123.411 102.167 123.411C104.746 121.971 118.045 117.289 119.631 114.277C120.623 112.395 120.93 108.797 121.194 106.687C121.915 100.935 122.635 95.1826 123.355 89.4319" fill="#FFF5DE"/>
<path d="M168.182 31.6033C170.43 43.7753 167.231 68.27 164.619 77.95C163.558 81.8846 162.417 85.9526 159.883 89.1433C147.365 104.911 130.678 99.9273 125.193 96.322C120.889 93.494 117.462 89.6086 115.478 84.8553C110.414 72.7273 108.337 59.3646 109.479 46.27C109.479 46.27 108.023 12.102 142.971 12.102C142.971 12.102 164.429 11.278 168.182 31.6033Z" fill="#FFF5DE"/>
<path d="M110.12 62.377C109.369 63.4636 107.629 63.4316 106.596 62.609C105.561 61.7876 105.101 60.445 104.848 59.149C104.601 57.8796 104.505 56.5823 104.561 55.293C104.601 54.3676 104.745 53.3863 105.348 52.6836C105.949 51.9823 106.979 51.6836 107.861 51.953C108.745 52.2223 109.432 53.0436 109.54 53.961L110.12 62.377Z" fill="#FFF5DE"/>
<path d="M168.181 52.4881C168.467 51.6108 168.975 50.7495 169.859 50.4801C170.742 50.2108 171.771 50.5095 172.371 51.2108C172.975 51.9135 173.118 52.8948 173.159 53.8201C173.215 55.1108 173.119 56.4068 172.871 57.6748C172.619 58.9721 172.158 60.3148 171.125 61.1375C170.09 61.9588 168.351 61.9908 167.601 60.9041C167.601 60.9041 166.838 56.5935 168.181 52.4881Z" fill="#FFF5DE"/>
<path d="M119.738 25.8407C121.11 30.3887 120.843 35.3474 119.394 39.8714C117.943 44.3941 115.353 48.4981 112.207 52.0581C111.337 53.0434 109.991 54.0714 108.843 53.4314C108.274 53.1154 107.975 52.4767 107.738 51.8714C104.861 44.5487 105.731 35.8634 110.002 29.2581C109.954 23.7421 111.518 17.7327 115.289 13.7061C119.059 9.6794 124.411 7.17539 129.918 6.86073C131.966 6.74473 134.05 6.91539 136.043 6.43273C138.118 5.93006 139.953 4.75406 141.839 3.75673C144.819 2.18073 148.045 1.00872 151.394 0.631397C156.294 0.0807294 161.39 1.30873 165.454 4.10206C169.519 6.89673 172.503 11.2461 173.563 16.0621C174.166 18.7927 174.163 21.6274 173.874 24.4087C173.574 27.2847 172.946 30.1874 171.45 32.6621C169.598 35.7261 166.479 37.9354 163.049 38.9567C159.126 40.1234 154.771 39.7687 151.09 37.9821C148.503 36.7274 146.199 34.7847 143.39 34.1741C141.787 33.8261 140.127 33.9381 138.489 33.9194C133.118 33.8594 127.77 32.3367 123.171 29.5607C121.727 28.6887 120.255 27.5527 119.865 25.9114" fill="#020B18"/>
<mask id="mask0_2_2766" style="mask-type:luminance" maskUnits="userSpaceOnUse" x="122" y="94" width="33" height="12">
<path d="M122.665 94.3455H154.088V105.215H122.665V94.3455Z" fill="white"/>
</mask>
<g mask="url(#mask0_2_2766)">
<path d="M154.088 94.8622C154.088 94.8622 149.471 99.2968 139.706 100.09C129.94 100.883 123.67 95.2835 122.666 94.3448C122.666 94.3448 124.675 105.111 138.756 105.214C152.34 105.313 154.088 94.8622 154.088 94.8622Z" fill="#FFF5DE"/>
</g>
<path d="M139.689 78.9681C139.689 78.9681 139.531 79.0281 139.222 79.1161C138.906 79.2041 138.466 79.3174 137.914 79.3601C136.818 79.4641 135.302 79.2748 133.967 78.5894C133.317 78.2521 132.699 77.7921 132.205 77.3161C131.699 76.8374 131.322 76.3041 131.031 75.8361C130.742 75.3654 130.577 74.9321 130.467 74.6321C130.358 74.3308 130.311 74.1548 130.311 74.1548L130.307 74.1428C130.266 73.9921 130.355 73.8374 130.506 73.7961C130.646 73.7574 130.791 73.8348 130.843 73.9668C130.843 73.9668 131.09 74.6041 131.673 75.4174C131.958 75.8281 132.349 76.2601 132.799 76.6841C133.261 77.1094 133.787 77.4788 134.381 77.7854C135.542 78.4121 136.887 78.6308 137.883 78.6334C138.381 78.6308 138.807 78.5988 139.09 78.5521C139.379 78.5094 139.557 78.4681 139.557 78.4681C139.697 78.4348 139.835 78.5214 139.867 78.6601C139.898 78.7881 139.827 78.9161 139.707 78.9614L139.689 78.9681Z" fill="#BAAC8B"/>
<path d="M165.233 35.1985C164.465 40.5732 165.455 46.1839 168.016 50.9705C168.316 51.5319 168.721 52.1412 169.351 52.2319C169.887 52.3079 170.412 51.9545 170.7 51.4959C170.989 51.0372 171.091 50.4892 171.187 49.9559C172.176 44.4559 173.127 38.5705 170.885 33.4519C170.721 33.0732 170.529 32.6919 170.215 32.4265C169.849 32.1212 169.357 32.0065 168.881 31.9972C166.916 31.9572 165.115 33.7825 165.181 35.7465" fill="#020B18"/>
<path d="M215.283 199.506C221.99 206.273 227.309 216.786 231.393 225.394C232.265 227.23 233.078 229.13 233.33 231.146C233.926 235.918 229.202 242.206 220.582 246.093V278.777C231.554 275.26 244.231 265.656 252.827 257.985C261.423 250.316 267.45 239.056 266.481 227.576C265.922 220.952 263.139 214.737 260.195 208.777C254.702 197.654 249.059 186.833 240.662 177.701L224.429 190.9L215.283 199.506Z" fill="#FFF5DE"/>
<path d="M180.974 52.7882C179.964 53.9272 179.716 55.5518 180.34 56.9402C180.964 58.3278 182.344 59.2211 183.866 59.2211H189.877V73.1396C189.877 75.2751 191.608 77.0049 193.744 77.0049H203.379V27.5347L180.974 52.7882Z" fill="#96E6FF"/>
<path d="M247.604 77.0059C249.739 77.0059 251.471 75.2753 251.471 73.1406V59.2214H257.483C259.005 59.2214 260.385 58.3287 261.009 56.9404C261.633 55.555 261.385 53.9304 260.376 52.7913L237.738 27.2742V77.0059H247.604Z" fill="#96E6FF"/>
<path d="M232.091 77.0059V20.9118L223.565 11.298C222.832 10.4731 221.779 10.0005 220.674 10.0005C219.569 10.0005 218.516 10.471 217.783 11.298L209.025 21.1683V77.0059H232.091Z" fill="#96E6FF"/>
</svg>
