<svg width="3784" height="5287" viewBox="0 0 3784 5287" fill="none" xmlns="http://www.w3.org/2000/svg">
<path d="M2449.89 2671.45L2449.86 2671.44L2449.83 2671.42C2439.65 2666.71 2435.3 2655.72 2435.02 2640.88C2434.73 2626.06 2438.51 2607.74 2444.24 2588.94C2455.69 2551.37 2474.79 2512.25 2484.01 2496.25L2484.01 2496.25C2551.75 2378.35 2602.27 2274.65 2642.84 2191.4C2649.76 2177.19 2656.39 2163.59 2662.76 2150.6C2684.64 2106.05 2703.53 2068.89 2720.87 2040.34C2738.24 2011.75 2753.99 1991.93 2769.56 1981.9L2769.72 1981.8L2769.83 1981.65C2770.02 1981.4 2770.4 1981.04 2771.03 1980.6C2771.65 1980.17 2772.46 1979.69 2773.46 1979.18C2775.47 1978.15 2778.16 1977 2781.45 1975.81C2788.03 1973.44 2796.91 1970.91 2807.23 1968.8C2827.86 1964.59 2854.1 1962.09 2878.89 1965.82C2903.68 1969.56 2926.9 1979.51 2941.67 2000.08C2956.44 2020.66 2962.92 2052.06 2953.79 2099.04L2953.79 2099.06L2953.78 2099.09C2953.23 2103 2951.56 2108.48 2948.84 2115.37C2946.13 2122.24 2942.4 2130.47 2937.79 2139.87C2928.56 2158.66 2915.8 2182.1 2900.53 2208.69C2870 2261.86 2829.49 2327.61 2787.32 2394.04C2703.15 2526.61 2612.4 2661.81 2581.21 2704.94C2581.16 2704.96 2581.1 2704.98 2581.03 2705C2580.7 2705.09 2580.19 2705.22 2579.51 2705.38C2578.16 2705.68 2576.1 2706.08 2573.36 2706.4C2567.88 2707.04 2559.63 2707.4 2548.64 2706.26C2526.66 2703.97 2493.68 2695.65 2449.89 2671.45Z" fill="white" stroke="black" stroke-width="2"/>
<path d="M2689.28 2564.63L2689.27 2564.75C2685.45 2622.49 2679.54 2673.62 2673.59 2724.66L2673.3 2727.11C2667.45 2777.35 2661.59 2827.6 2657.67 2884.21C2657.67 2884.22 2657.67 2884.22 2657.67 2884.22L2654.04 2883.97C2653.26 2896.2 2651.83 2913.58 2650.12 2934.39C2642.32 3029.41 2628.67 3195.71 2643.87 3266.7L2647.42 3265.95C2649.81 3277.1 2652.41 3283.89 2655.03 3287.59C2656.31 3289.39 2657.43 3290.23 2658.34 3290.61C2659.18 3290.96 2660.13 3291.03 2661.36 3290.68C2664.12 3289.89 2667.72 3287.17 2672.31 3282.22C2676.78 3277.4 2681.72 3270.98 2687.23 3263.6C2688.55 3261.83 2689.9 3260.02 2691.28 3258.16C2701.34 3244.59 2713.04 3228.81 2726.44 3215.2C2741.67 3199.74 2759.47 3186.65 2780.16 3182.77L2780.17 3182.76C2788.76 3181.18 2797.2 3179.22 2805.68 3177.25L2807.39 3176.86C2816.42 3174.76 2825.51 3172.68 2834.72 3171.13M2689.28 2564.63L2835.33 3174.7L2689.28 2564.63ZM2689.28 2564.63V2564.51L2688.92 2114.72L2689.28 2564.63ZM2834.72 3171.13L2835.33 3174.7L2834.72 3171.13ZM2834.72 3171.13L2835.33 3174.7L2834.72 3171.13ZM2834.72 3171.13C2871.05 3164.93 2901.14 3177.68 2929.6 3194.09C2936.72 3198.2 2943.78 3202.55 2950.8 3206.91L2952.32 3207.85C2958.85 3211.91 2965.35 3215.94 2971.95 3219.82C2986.14 3228.17 3000.57 3235.67 3015.91 3240.68M2835.33 3174.7C2879.78 3167.11 2914.75 3188.81 2950.41 3210.94C2970.99 3223.71 2991.8 3236.62 3014.8 3244.13M3015.91 3240.68L3014.8 3244.13L3015.91 3240.68ZM3015.91 3240.68C3037.2 3247.52 3058.71 3255.47 3080.23 3263.42C3090 3267.03 3099.77 3270.65 3109.53 3274.16C3140.87 3285.43 3172.18 3295.7 3203.32 3301.8L3203.33 3301.8C3269.68 3314.97 3346.36 3300.81 3412.11 3285.07M3015.91 3240.68C3015.92 3240.68 3015.92 3240.69 3015.93 3240.69L3014.8 3244.13M3014.8 3244.13L3412.11 3285.07L3014.8 3244.13ZM3412.11 3285.07L3412.97 3288.6L3412.12 3285.07C3412.12 3285.07 3412.12 3285.07 3412.11 3285.07ZM2769.57 1973.48L2770.99 1976.82L2771.1 1976.77L2771.15 1976.75L2771.17 1976.74C2771.17 1976.74 2771.16 1976.74 2769.57 1973.48ZM3439.6 2005.93L3440.94 2002.55C3439.61 2005.93 3439.61 2005.93 3439.6 2005.93ZM3181.7 1892.73L3179.73 1889.69L3178.29 1893.01L3180.06 1893.78C3180.61 1893.43 3181.16 1893.08 3181.7 1892.73ZM3474.42 3198.93L3478 3198.3L3474.41 3198.89C3474.42 3198.9 3474.42 3198.9 3474.42 3198.91C3474.42 3198.91 3474.42 3198.92 3474.42 3198.93ZM2967.23 1892.74C2967.4 1892.87 2967.59 1893 2967.79 1893.15L2969.72 1892.33L2968.29 1889C2966.03 1891.84 2966.03 1891.84 2966.03 1891.84L2966.04 1891.85L2966.06 1891.86L2966.13 1891.91C2966.18 1891.95 2966.26 1892.01 2966.36 1892.09C2966.56 1892.24 2966.85 1892.46 2967.23 1892.74Z" fill="white"/>
<path d="M2689.28 2564.63L2689.27 2564.75C2685.45 2622.49 2679.54 2673.62 2673.59 2724.66L2673.3 2727.11C2667.45 2777.35 2661.59 2827.6 2657.67 2884.21C2657.67 2884.22 2657.67 2884.22 2657.67 2884.22L2654.04 2883.97C2653.26 2896.2 2651.83 2913.58 2650.12 2934.39C2642.32 3029.41 2628.67 3195.71 2643.87 3266.7L2647.42 3265.95C2649.81 3277.1 2652.41 3283.89 2655.03 3287.59C2656.31 3289.39 2657.43 3290.23 2658.34 3290.61C2659.18 3290.96 2660.13 3291.03 2661.36 3290.68C2664.12 3289.89 2667.72 3287.17 2672.31 3282.22C2676.78 3277.4 2681.72 3270.98 2687.23 3263.6C2688.55 3261.83 2689.9 3260.02 2691.28 3258.16C2701.34 3244.59 2713.04 3228.81 2726.44 3215.2C2741.67 3199.74 2759.47 3186.65 2780.16 3182.77L2780.17 3182.76C2788.76 3181.18 2797.2 3179.22 2805.68 3177.25L2807.39 3176.86C2816.42 3174.76 2825.51 3172.68 2834.72 3171.13M2689.28 2564.63L2835.33 3174.7M2689.28 2564.63V2564.51L2688.92 2114.72L2689.28 2564.63ZM2834.72 3171.13L2835.33 3174.7M2834.72 3171.13C2871.05 3164.93 2901.14 3177.68 2929.6 3194.09C2936.72 3198.2 2943.78 3202.55 2950.8 3206.91L2952.32 3207.85C2958.85 3211.91 2965.35 3215.94 2971.95 3219.82C2986.14 3228.17 3000.57 3235.67 3015.91 3240.68M2835.33 3174.7C2879.78 3167.11 2914.75 3188.81 2950.41 3210.94C2970.99 3223.71 2991.8 3236.62 3014.8 3244.13M3015.91 3240.68L3014.8 3244.13M3015.91 3240.68C3037.2 3247.52 3058.71 3255.47 3080.23 3263.42C3090 3267.03 3099.77 3270.65 3109.53 3274.16C3140.87 3285.43 3172.18 3295.7 3203.32 3301.8L3203.33 3301.8C3269.68 3314.97 3346.36 3300.81 3412.11 3285.07M3015.91 3240.68C3015.92 3240.68 3015.92 3240.69 3015.93 3240.69L3014.8 3244.13M3014.8 3244.13L3412.11 3285.07M3412.11 3285.07L3412.97 3288.6L3412.12 3285.07C3412.12 3285.07 3412.12 3285.07 3412.11 3285.07ZM2769.57 1973.48L2770.99 1976.82L2771.1 1976.77L2771.15 1976.75L2771.17 1976.74C2771.17 1976.74 2771.16 1976.74 2769.57 1973.48ZM3439.6 2005.93L3440.94 2002.55C3439.61 2005.93 3439.61 2005.93 3439.6 2005.93ZM3181.7 1892.73L3179.73 1889.69L3178.29 1893.01L3180.06 1893.78C3180.61 1893.43 3181.16 1893.08 3181.7 1892.73ZM3474.42 3198.93L3478 3198.3L3474.41 3198.89C3474.42 3198.9 3474.42 3198.9 3474.42 3198.91C3474.42 3198.91 3474.42 3198.92 3474.42 3198.93ZM2967.23 1892.74C2967.4 1892.87 2967.59 1893 2967.79 1893.15L2969.72 1892.33L2968.29 1889C2966.03 1891.84 2966.03 1891.84 2966.03 1891.84L2966.04 1891.85L2966.06 1891.86L2966.13 1891.91C2966.18 1891.95 2966.26 1892.01 2966.36 1892.09C2966.56 1892.24 2966.85 1892.46 2967.23 1892.74Z" stroke="#020B18" stroke-width="2"/>
<path d="M3170.06 5131.5L3146.55 4899.5H3291.46L3272.65 5131.17L3170.06 5131.5Z" fill="#FFF5DE" stroke="black"/>
<path d="M3128.79 5130.48C3128.55 5130.43 3128.33 5130.38 3128.15 5130.34L3031.48 4092.2L3031.48 4092.19L3031.47 4092.18L2939.81 3275.71L2938.01 3143.1C2938.18 3143.05 2938.38 3142.99 2938.61 3142.92C2939.47 3142.66 2940.76 3142.28 2942.44 3141.79C2945.81 3140.81 2950.75 3139.42 2957.06 3137.74C2969.67 3134.39 2987.75 3129.93 3009.58 3125.49C3053.25 3116.6 3111.94 3107.77 3172.01 3108C3232.1 3108.24 3293.49 3117.54 3342.66 3144.83C3391.74 3172.07 3428.7 3217.27 3439.99 3289.5L3390.73 3949.59L3390.72 3949.62V3949.66V5103.69C3370.74 5120.73 3344.43 5130.96 3316.11 5136.69C3287.63 5142.46 3257.17 5143.66 3229.21 5142.7C3201.25 5141.74 3175.8 5138.61 3157.34 5135.72C3148.12 5134.27 3140.64 5132.89 3135.47 5131.87C3132.88 5131.36 3130.88 5130.93 3129.52 5130.64C3129.25 5130.58 3129.01 5130.53 3128.79 5130.48Z" fill="#002E59" stroke="black" stroke-width="2"/>
<path d="M2640.56 2135.67L2640.65 2135.49L2640.71 2135.3C2668.26 2055.92 2708.84 2013.18 2742.28 1990.27C2759.03 1978.8 2774.04 1972.26 2784.82 1968.6C2790.21 1966.77 2794.54 1965.66 2797.5 1965.01C2798.98 1964.68 2800.11 1964.47 2800.86 1964.35C2801.24 1964.28 2801.52 1964.24 2801.7 1964.21C2801.79 1964.2 2801.86 1964.19 2801.9 1964.19L2801.94 1964.18H2801.94L2802.08 1964.16L2802.23 1964.13C2865.47 1951.13 2906.44 1957.08 2932.57 1972.52C2958.58 1987.89 2970.6 2013.1 2974.97 2040.43C2979.35 2067.82 2975.95 2096.97 2971.38 2119.42C2969.11 2130.61 2966.55 2140.08 2964.57 2146.74C2963.58 2150.06 2962.73 2152.69 2962.14 2154.47C2961.84 2155.37 2961.6 2156.05 2961.44 2156.51C2961.41 2156.6 2961.38 2156.69 2961.35 2156.77L2590.96 2704.1C2548.75 2719.61 2515.2 2712.35 2492.12 2701.26C2480.45 2695.65 2471.44 2689.04 2465.35 2683.84C2462.31 2681.23 2460 2679 2458.47 2677.42C2457.74 2676.67 2457.19 2676.07 2456.81 2675.65C2447.66 2629.92 2456.44 2573.03 2467.74 2527.11C2473.41 2504.06 2479.68 2483.91 2484.53 2469.53C2486.95 2462.34 2489.02 2456.59 2490.48 2452.65C2491.21 2450.67 2491.79 2449.15 2492.19 2448.13C2492.38 2447.62 2492.54 2447.23 2492.64 2446.97L2492.75 2446.7L2640.56 2135.67Z" fill="white" stroke="#020B18" stroke-width="2"/>
<path d="M3459.02 3128.06C3459.62 3137.12 3459.91 3146.37 3460.19 3155.67C3460.75 3174.14 3461.32 3192.81 3464.46 3210.57C3473.9 3267.4 3465.92 3284.86 3399.47 3300.95L3459.02 3128.06ZM3459.02 3128.06C3454.18 3048.17 3449.21 2968.4 3444.13 2888.75L3459.02 3128.06ZM2673.62 2576.23L2673.62 2576.2L2673.62 2576.17L2673.25 2125.71C2683.03 2071.16 2704 2036.09 2722.48 2014.66C2731.73 2003.94 2740.36 1996.63 2746.67 1992C2749.83 1989.69 2752.4 1988.05 2754.18 1986.99C2755.07 1986.46 2755.76 1986.08 2756.23 1985.82C2756.46 1985.7 2756.64 1985.61 2756.76 1985.55C2756.81 1985.52 2756.86 1985.5 2756.89 1985.48L2756.9 1985.47L2954.94 1901.15C2955.11 1901.28 2955.32 1901.44 2955.58 1901.64C2956.32 1902.18 2957.41 1902.96 2958.83 1903.93C2961.68 1905.87 2965.88 1908.55 2971.28 1911.53C2982.07 1917.48 2997.67 1924.63 3016.92 1929.43C3055.36 1939 3108.3 1939.18 3166.48 1901.81L3427.03 2014.58L3427.05 2014.59L3427.06 2014.59L3427.06 2014.6L3427.07 2014.6L3427.11 2014.61C3427.15 2014.63 3427.2 2014.65 3427.27 2014.68C3427.42 2014.74 3427.63 2014.83 3427.91 2014.95C3428.47 2015.2 3429.3 2015.57 3430.34 2016.07C3432.44 2017.08 3435.41 2018.62 3438.92 2020.73C3445.95 2024.95 3455.12 2031.46 3463.69 2040.62C3480.79 2058.91 3495.53 2087.77 3486 2130.19L3485.99 2130.23L3485.98 2130.26L3422.45 2558.22L3422.42 2558.41L3422.46 2558.59C3434.42 2610.36 3437.96 2666.51 3439.32 2722.94C3439.79 2742.42 3440 2761.95 3440.21 2781.34C3440.6 2818.06 3440.99 2854.29 3443.13 2888.81L3443.13 2888.81C3448.22 2968.47 3453.18 3048.23 3458.02 3128.12L3458.02 3128.12C3458.63 3137.17 3458.91 3146.38 3459.19 3155.67C3459.33 3160.26 3459.47 3164.87 3459.65 3169.48C3460.2 3183.4 3461.11 3197.32 3463.48 3210.74C3468.2 3239.18 3468.47 3257.37 3459.6 3270.48C3450.71 3283.6 3432.48 3291.93 3399.24 3299.98C3333.52 3315.73 3256.38 3330.05 3189.45 3316.75L3189.45 3316.75C3158.12 3310.6 3126.69 3300.26 3095.34 3288.97C3085.54 3285.44 3075.75 3281.81 3065.97 3278.19C3044.49 3270.24 3023.09 3262.32 3001.87 3255.49C2986.26 3250.39 2971.65 3242.77 2957.39 3234.37C2950.78 3230.48 2944.25 3226.42 2937.74 3222.37L2936.21 3221.42C2929.19 3217.06 2922.17 3212.72 2915.1 3208.63C2886.81 3192.29 2857.42 3179.91 2822.03 3185.96C2812.92 3187.51 2803.91 3189.57 2794.88 3191.66L2793.15 3192.06C2784.69 3194.03 2776.2 3196 2767.56 3197.6L2767.56 3197.6C2747.66 3201.34 2730.32 3214 2715.26 3229.33C2702.01 3242.81 2690.43 3258.44 2680.36 3272.04C2678.98 3273.9 2677.63 3275.73 2676.31 3277.5C2670.8 3284.89 2665.79 3291.41 2661.22 3296.36C2656.61 3301.34 2652.58 3304.56 2649.07 3305.56C2647.35 3306.05 2645.78 3306.01 2644.31 3305.39C2642.82 3304.77 2641.33 3303.52 2639.87 3301.46C2636.93 3297.31 2634.24 3290.06 2631.84 3278.83L2630.87 3279.04L2631.84 3278.83C2622.62 3235.68 2624.06 3157.07 2628.37 3080.61C2631.13 3031.63 2635.06 2983.67 2638.11 2946.54C2639.81 2925.71 2641.24 2908.28 2642.03 2896C2645.96 2839.27 2651.82 2788.91 2657.67 2738.64L2657.95 2736.17C2663.9 2685.07 2669.8 2633.95 2673.62 2576.23Z" fill="white" stroke="#020B18" stroke-width="2"/>
<path d="M3189 1682.56L2979.19 1674L2968 1921.1L3177.81 1930L3189 1682.56Z" fill="#FFF5DE"/>
<path d="M2882 1951.71L2974.07 1893L3172.33 1901.14L3276 1968L2882 1951.71Z" fill="#FFF5DE"/>
<path d="M2473.98 2687.99C2278.03 2584.2 2283.83 2447.19 2127 2174.2L2169.38 2142C2212.48 2177.62 2506.58 2516.38 2568.88 2521.18C2568.88 2521.18 2627.91 2689.7 2473.98 2687.99Z" fill="#FFF5DE"/>
<path d="M3331.75 3424C3210.08 3424 3102.94 3347.92 3069.16 3236.04C3068.43 3232.94 3070.25 3230.18 3073.16 3229.15C3076.42 3228.46 3079.33 3230.18 3080.42 3232.94C3113.11 3342.76 3220.61 3416.77 3340.83 3412.98C3344.09 3412.64 3346.64 3415.05 3347 3418.15C3347 3421.25 3344.46 3423.66 3341.19 3423.66C3338.04 3423.89 3334.89 3424 3331.75 3424Z" fill="#161E3F"/>
<path d="M2767.94 5219.45L2751.54 4988.51L2894.44 4989.87L2869.12 5220.5L2767.94 5219.45Z" fill="#FFF5DE" stroke="black"/>
<mask id="path-13-inside-1_12_2" fill="white">
<path d="M2921 5255.54H2455C2460.08 5211.35 2496.74 5201.44 2496.74 5201.44L2676.02 5168.21L2780.91 5109L2820.47 5126.78C2820.47 5126.78 2828.45 5125.44 2820.47 5143.9C2820.47 5143.9 2870.55 5153.52 2894.14 5143.9L2921 5260"/>
</mask>
<path d="M2921 5255.54H2455C2460.08 5211.35 2496.74 5201.44 2496.74 5201.44L2676.02 5168.21L2780.91 5109L2820.47 5126.78C2820.47 5126.78 2828.45 5125.44 2820.47 5143.9C2820.47 5143.9 2870.55 5153.52 2894.14 5143.9L2921 5260" fill="#79CAF1"/>
<path d="M2455 5255.54L2453.01 5255.31L2452.76 5257.54H2455V5255.54ZM2496.74 5201.44L2496.37 5199.48L2496.29 5199.49L2496.22 5199.51L2496.74 5201.44ZM2676.02 5168.21L2676.39 5170.18L2676.72 5170.12L2677.01 5169.95L2676.02 5168.21ZM2780.91 5109L2781.73 5107.18L2780.81 5106.76L2779.93 5107.26L2780.91 5109ZM2820.47 5126.78L2819.65 5128.6L2820.2 5128.85L2820.8 5128.75L2820.47 5126.78ZM2820.47 5143.9L2818.63 5143.11L2817.64 5145.4L2820.09 5145.87L2820.47 5143.9ZM2894.14 5143.9L2896.09 5143.45L2895.56 5141.16L2893.39 5142.05L2894.14 5143.9ZM2921 5253.54H2455V5257.54H2921V5253.54ZM2456.99 5255.77C2459.46 5234.26 2469.58 5221.19 2479.04 5213.47C2483.78 5209.6 2488.37 5207.06 2491.77 5205.5C2493.46 5204.72 2494.86 5204.18 2495.82 5203.84C2496.3 5203.67 2496.67 5203.55 2496.91 5203.48C2497.04 5203.44 2497.13 5203.41 2497.19 5203.39C2497.22 5203.39 2497.24 5203.38 2497.25 5203.38C2497.25 5203.37 2497.26 5203.37 2497.26 5203.37C2497.26 5203.37 2497.26 5203.37 2497.26 5203.37C2497.26 5203.37 2497.26 5203.37 2497.26 5203.37C2497.26 5203.37 2497.26 5203.37 2496.74 5201.44C2496.22 5199.51 2496.21 5199.51 2496.21 5199.51C2496.21 5199.51 2496.21 5199.51 2496.21 5199.51C2496.21 5199.51 2496.2 5199.52 2496.2 5199.52C2496.19 5199.52 2496.18 5199.52 2496.17 5199.52C2496.15 5199.53 2496.12 5199.54 2496.08 5199.55C2496 5199.57 2495.88 5199.61 2495.73 5199.65C2495.44 5199.74 2495.02 5199.88 2494.49 5200.07C2493.42 5200.44 2491.91 5201.03 2490.09 5201.86C2486.46 5203.54 2481.56 5206.24 2476.51 5210.37C2466.37 5218.65 2455.62 5232.62 2453.01 5255.31L2456.99 5255.77ZM2497.1 5203.41L2676.39 5170.18L2675.66 5166.24L2496.37 5199.48L2497.1 5203.41ZM2677.01 5169.95L2781.89 5110.74L2779.93 5107.26L2675.04 5166.47L2677.01 5169.95ZM2780.09 5110.82L2819.65 5128.6L2821.29 5124.95L2781.73 5107.18L2780.09 5110.82ZM2820.47 5126.78C2820.8 5128.75 2820.8 5128.75 2820.8 5128.75C2820.8 5128.75 2820.79 5128.75 2820.79 5128.75C2820.79 5128.75 2820.79 5128.75 2820.79 5128.75C2820.78 5128.75 2820.78 5128.75 2820.77 5128.75C2820.77 5128.75 2820.76 5128.76 2820.76 5128.76C2820.75 5128.76 2820.74 5128.76 2820.74 5128.76C2820.75 5128.76 2820.77 5128.76 2820.8 5128.76C2820.87 5128.76 2820.98 5128.76 2821.09 5128.79C2821.26 5128.84 2821.48 5128.93 2821.68 5129.32C2821.92 5129.79 2822.2 5130.88 2821.86 5133.14C2821.52 5135.37 2820.59 5138.58 2818.63 5143.11L2822.3 5144.7C2824.34 5139.99 2825.41 5136.44 2825.81 5133.74C2826.22 5131.05 2826.01 5129.01 2825.25 5127.51C2824.45 5125.93 2823.17 5125.2 2822.1 5124.92C2821.58 5124.79 2821.12 5124.75 2820.79 5124.76C2820.62 5124.76 2820.48 5124.77 2820.37 5124.78C2820.31 5124.78 2820.27 5124.79 2820.23 5124.79C2820.21 5124.79 2820.19 5124.8 2820.18 5124.8C2820.17 5124.8 2820.16 5124.8 2820.16 5124.8C2820.15 5124.8 2820.15 5124.8 2820.15 5124.8C2820.14 5124.8 2820.14 5124.8 2820.14 5124.8C2820.14 5124.8 2820.14 5124.8 2820.47 5126.78ZM2820.47 5143.9C2820.09 5145.87 2820.09 5145.87 2820.09 5145.87C2820.09 5145.87 2820.09 5145.87 2820.1 5145.87C2820.1 5145.87 2820.1 5145.87 2820.1 5145.87C2820.11 5145.87 2820.12 5145.87 2820.13 5145.87C2820.16 5145.88 2820.2 5145.89 2820.24 5145.9C2820.34 5145.91 2820.49 5145.94 2820.68 5145.98C2821.06 5146.04 2821.61 5146.14 2822.33 5146.27C2823.76 5146.51 2825.82 5146.85 2828.37 5147.23C2833.47 5147.99 2840.51 5148.9 2848.3 5149.5C2856.09 5150.11 2864.66 5150.41 2872.79 5149.95C2880.9 5149.5 2888.7 5148.28 2894.9 5145.75L2893.39 5142.05C2887.79 5144.33 2880.49 5145.52 2872.57 5145.96C2864.67 5146.41 2856.3 5146.11 2848.61 5145.51C2840.94 5144.92 2833.99 5144.02 2828.96 5143.28C2826.44 5142.9 2824.41 5142.57 2823.01 5142.33C2822.31 5142.2 2821.76 5142.11 2821.4 5142.04C2821.21 5142.01 2821.07 5141.98 2820.98 5141.96C2820.94 5141.95 2820.9 5141.95 2820.88 5141.94C2820.87 5141.94 2820.86 5141.94 2820.85 5141.94C2820.85 5141.94 2820.85 5141.94 2820.85 5141.94C2820.85 5141.94 2820.85 5141.94 2820.85 5141.94C2820.85 5141.94 2820.85 5141.94 2820.47 5143.9ZM2892.19 5144.35L2919.05 5260.45L2922.95 5259.55L2896.09 5143.45L2892.19 5144.35Z" fill="black" mask="url(#path-13-inside-1_12_2)"/>
<path d="M2918.5 5286.5H2455.5V5255.5H2918.5V5286.5Z" fill="#A9D2E6" stroke="black"/>
<path d="M3272.9 5113.23L3272.91 5113.24L3272.92 5113.26L3344 5233.09V5286H3128V5235.69L3167.68 5107.37L3181.4 5087H3258.37L3272.9 5113.23Z" fill="#79CAF1" stroke="black" stroke-width="2"/>
<path d="M3430.72 3406C3446.29 3348.61 3432.53 3197.64 3429.28 3182.27L3398.87 2964L2684.37 2970.83L2667 3243.75L2676.05 3406H3430.72Z" fill="#002E59"/>
<path d="M2907.63 3058C2866.6 3058 2813.22 3056.63 2722.45 3051.46C2719.54 3051.46 2717 3048.71 2717 3045.96C2717.36 3042.86 2719.9 3040.45 2723.17 3040.8C2874.95 3049.05 2922.16 3047.68 2982.07 3045.96C2999.14 3045.27 3016.93 3044.58 3038.35 3044.24C3049.97 3044.24 3064.86 3044.24 3082.65 3044.58C3147.65 3045.62 3255.86 3046.99 3372.42 3030.13C3375.69 3029.44 3378.59 3031.51 3378.95 3034.61C3379.32 3037.36 3377.5 3040.11 3374.23 3040.8C3256.95 3057.66 3147.65 3056.28 3082.65 3055.59C3064.86 3055.25 3049.97 3054.9 3038.72 3055.25C3017.29 3055.59 2999.5 3056.28 2982.44 3056.63C2958.11 3057.31 2935.96 3058 2907.63 3058Z" fill="#161E3F"/>
<mask id="path-19-inside-2_12_2" fill="white">
<path d="M2664 3255.02L2698.04 5137.15C2698.04 5137.15 2787.48 5212.04 2920.01 5145.34L3012.71 4006.97L3096 3241L2665.09 3264.94"/>
</mask>
<path d="M2664 3255.02L2698.04 5137.15C2698.04 5137.15 2787.48 5212.04 2920.01 5145.34L3012.71 4006.97L3096 3241L2665.09 3264.94" fill="#002E59"/>
<path d="M2698.04 5137.15L2696.04 5137.18L2696.06 5138.1L2696.75 5138.68L2698.04 5137.15ZM2920.01 5145.34L2920.91 5147.12L2921.92 5146.62L2922.01 5145.5L2920.01 5145.34ZM3012.71 4006.97L3010.73 4006.75L3010.72 4006.78L3010.72 4006.8L3012.71 4006.97ZM3096 3241L3097.99 3241.22L3098.24 3238.87L3095.89 3239L3096 3241ZM2662 3255.06L2696.04 5137.18L2700.04 5137.11L2666 3254.98L2662 3255.06ZM2698.04 5137.15C2696.75 5138.68 2696.76 5138.68 2696.76 5138.68C2696.76 5138.68 2696.76 5138.69 2696.76 5138.69C2696.77 5138.69 2696.77 5138.69 2696.78 5138.7C2696.79 5138.71 2696.81 5138.73 2696.83 5138.75C2696.88 5138.79 2696.95 5138.84 2697.04 5138.92C2697.23 5139.06 2697.5 5139.28 2697.85 5139.55C2698.56 5140.1 2699.61 5140.89 2700.98 5141.87C2703.74 5143.82 2707.8 5146.52 2713.09 5149.54C2723.67 5155.59 2739.15 5162.94 2758.81 5168.19C2798.17 5178.69 2854.17 5180.72 2920.91 5147.12L2919.11 5143.55C2853.32 5176.66 2798.34 5174.6 2759.84 5164.32C2740.57 5159.18 2725.41 5151.98 2715.08 5146.07C2709.91 5143.12 2705.95 5140.49 2703.3 5138.6C2701.97 5137.66 2700.97 5136.91 2700.3 5136.39C2699.97 5136.13 2699.72 5135.93 2699.55 5135.8C2699.47 5135.74 2699.41 5135.69 2699.37 5135.66C2699.35 5135.64 2699.34 5135.63 2699.33 5135.62C2699.33 5135.62 2699.32 5135.62 2699.32 5135.61C2699.32 5135.61 2699.32 5135.61 2699.32 5135.61C2699.32 5135.61 2699.32 5135.61 2698.04 5137.15ZM2922.01 5145.5L3014.71 4007.13L3010.72 4006.8L2918.02 5145.17L2922.01 5145.5ZM3014.7 4007.18L3097.99 3241.22L3094.01 3240.78L3010.73 4006.75L3014.7 4007.18ZM3095.89 3239L2664.98 3262.94L2665.2 3266.93L3096.11 3243L3095.89 3239Z" fill="black" mask="url(#path-19-inside-2_12_2)"/>
<path d="M3234.94 1695.67C3237.48 1688.15 3240.01 1681.31 3241.82 1676.53C3273.7 1594.15 3301.58 1392.13 3199.08 1361.71C3076.3 1325.14 3090.06 1511.77 3085.72 1563.73C3081.01 1624.23 3079.2 1688.83 3108.17 1744.21C3119.4 1764.71 3145.12 1796.16 3171.19 1792.74C3200.17 1789.32 3221.9 1731.56 3234.94 1695.67Z" fill="#020B18"/>
<path d="M3239.96 1630.78C3239.24 1660.74 3220.06 1694.15 3191.12 1705.17C3152.04 1720.67 3138.66 1686.23 3140.1 1653.51C3141.55 1626.99 3155.66 1581.87 3187.86 1573.95C3217.89 1566.37 3241.05 1605.98 3239.96 1630.78Z" fill="#FFF5DE"/>
<path d="M3118.41 1816.76C3141.56 1776.02 3156.03 1733.91 3154.94 1681.19L2978.77 1674L2969 1889C3024.71 1883.18 3094.17 1860.58 3118.41 1816.76Z" fill="#C4B9A0"/>
<path d="M2941.92 1466.7C2889.97 1489.6 2900.43 1537.44 2893.94 1584.27C2891.05 1603.75 2884.19 1622.54 2880.59 1641C2868.68 1621.18 2863.99 1556.58 2863.27 1534.03C2858.94 1393.91 2908.73 1309.49 2871.57 1435.6C2862.91 1464.99 2954.55 1376.47 2985.57 1368.95C3029.95 1358.02 3016.24 1394.59 3003.61 1438.67L2941.92 1466.7Z" fill="#021220"/>
<path d="M3174.48 1697.24C3160.32 1741.42 3138.53 1778.74 3098.22 1806.81C3058.27 1834.55 3016.15 1850.3 2972.94 1822.22C2938.44 1799.62 2914.47 1764.7 2899.22 1729.09C2864.72 1646.23 2874.89 1527.41 2925.73 1454.48C2981.65 1374.7 3104.39 1381.55 3158.86 1461.67C3203.17 1526.73 3197.36 1625.68 3174.48 1697.24Z" fill="#FFF5DE"/>
<path d="M3156.49 1622.15C3155.4 1653.61 3151.04 1678.92 3117.64 1694.32C3091.5 1706.63 3065.72 1696.03 3041.39 1685.42C2998.91 1666.95 2979.67 1682 2940.82 1691.92C2936.46 1692.95 2930.29 1693.63 2926.3 1691.24C2903.06 1678.24 2904.87 1652.93 2882 1656.69C2884.9 1682.35 2890.71 1706.97 2899.79 1729.2C2915.04 1764.78 2939 1799.66 2973.5 1822.24C3016.7 1850.28 3058.82 1834.55 3098.76 1806.85C3139.06 1778.8 3160.85 1741.52 3175.01 1697.39C3181.18 1677.56 3175.73 1651.91 3179 1629.33C3177.55 1622.15 3170.65 1607.78 3156.49 1622.15Z" fill="#021220"/>
<path d="M3204.04 1663C3201.6 1663 3199.51 1661.64 3198.81 1659.27C3186.61 1627.7 3191.15 1596.47 3209.62 1584.93C3212.06 1583.23 3215.55 1583.91 3217.29 1586.62C3218.68 1589 3217.99 1592.39 3215.55 1594.09C3201.95 1602.58 3199.16 1629.39 3208.92 1655.53C3209.97 1658.25 3208.57 1661.64 3205.79 1662.66C3205.32 1662.88 3204.74 1663 3204.04 1663Z" fill="#C3B9A0"/>
<path d="M3198.73 1620C3197.25 1620 3195.41 1619.37 3194.31 1618.11C3192.1 1615.92 3192.84 1612.77 3195.41 1611.2C3204.62 1605.23 3219.72 1606.49 3231.13 1609.63C3234.08 1610.57 3235.55 1613.4 3234.81 1615.92C3233.71 1618.43 3230.39 1620 3227.45 1619.06C3218.61 1616.54 3207.56 1615.6 3202.41 1619.06C3201.18 1619.68 3199.95 1620 3198.73 1620Z" fill="#C3B9A0"/>
<path d="M3199.9 1360.1C3211.49 1360.44 3200.63 1399.32 3210.76 1405.87C3233.93 1420.32 3211.49 1437.52 3217.64 1460.92C3225.24 1490.18 3230.67 1519.77 3234.66 1549.71C3236.1 1561.41 3234.66 1577.93 3239 1588.94C3233.93 1576.21 3213.3 1553.84 3193.75 1573.45C3185.79 1581.71 3182.89 1619.91 3179.27 1630.24C3174.56 1644 3170.94 1638.84 3158.27 1639.87C3153.57 1600.64 3156.46 1487.77 3111.94 1487.08C3057.64 1486.39 2855.28 1528.72 2856 1436.49C2856.73 1384.53 2894.01 1324.31 2979.44 1325.68C2979.44 1325.68 3138.36 1302.28 3199.9 1360.1Z" fill="#020B18"/>
<path d="M2997.37 1727C2996.64 1727 2995.91 1726.88 2995.18 1726.65C2987.52 1726.31 2975.86 1722.86 2966.74 1709.42C2965.28 1707.01 2966.01 1703.56 2968.57 1701.84C2971.12 1700.46 2974.76 1701.15 2976.59 1703.56C2981.69 1711.49 2988.25 1715.62 2995.91 1715.97C3006.85 1716.66 3019.97 1709.42 3029.81 1698.05C3032 1695.64 3035.28 1695.29 3037.83 1697.36C3040.39 1699.08 3040.75 1702.53 3038.56 1704.94C3029.45 1715.62 3014.14 1727 2997.37 1727Z" fill="#FFF5DE"/>
<path d="M1981.05 2069.37L1981.13 2069.28L1981.19 2069.17C1981.33 2068.91 1981.53 2068.72 1981.82 2068.58L1981.95 2068.52L1982.06 2068.43C1984.44 2066.34 1988.13 2066.03 1992.16 2066.58C1995.79 2067.07 1999.42 2068.22 2002.12 2069.07C2002.39 2069.15 2002.65 2069.24 2002.9 2069.31L2002.91 2069.32C2008.87 2071.14 2014.87 2074.07 2021.04 2077.07C2022.85 2077.96 2024.68 2078.85 2026.53 2079.72C2034.58 2083.53 2042.9 2086.93 2051.47 2087.46L2054.68 2087.66L2052.14 2085.67C2049.07 2083.28 2045.04 2080.21 2040.35 2076.64C2026.94 2066.43 2008.14 2052.14 1991.13 2037.76C1979.65 2028.06 1969.02 2018.35 1961.42 2009.87C1957.62 2005.62 1954.61 2001.72 1952.63 1998.3C1950.72 1995 1949.86 1992.3 1950.02 1990.24C1950.04 1990.21 1950.07 1990.18 1950.1 1990.15C1950.29 1989.95 1950.58 1989.67 1950.96 1989.34C1951.73 1988.69 1952.86 1987.89 1954.31 1987.28C1957.17 1986.07 1961.38 1985.55 1966.73 1988.63L1966.73 1988.64C1976.3 1994.07 1988.61 2002.91 2003.79 2013.97C2005.22 2015.01 2006.67 2016.07 2008.14 2017.15C2022.37 2027.52 2038.93 2039.6 2057.87 2052.46L2059.06 2050.85C2042.78 2037.59 2015.3 2009.72 1994.44 1983.85C1984.01 1970.91 1975.27 1958.53 1970.42 1948.75C1967.98 1943.85 1966.57 1939.69 1966.35 1936.5C1966.24 1934.91 1966.43 1933.62 1966.89 1932.6C1967.34 1931.6 1968.06 1930.82 1969.14 1930.26L1969.27 1930.19L1969.38 1930.08C1970.16 1929.32 1971.35 1928.97 1973.18 1929.29C1975.03 1929.6 1977.39 1930.58 1980.3 1932.26C1986.11 1935.62 1993.8 1941.65 2003.4 1950.18C2022.58 1967.23 2049.17 1994.09 2083.15 2029.1L2084.81 2028.06C2080.5 2016.16 2072.97 2003.53 2064.61 1991.19C2059.22 1983.22 2053.44 1975.32 2047.95 1967.81C2044.95 1963.71 2042.03 1959.72 2039.31 1955.9C2031.55 1945.01 2025.36 1935.49 2022.94 1928.25C2021.72 1924.62 2021.51 1921.74 2022.34 1919.6C2023.12 1917.57 2024.91 1915.98 2028.26 1915.04C2031.51 1916.01 2035.19 1918.17 2039.27 1921.36C2043.44 1924.63 2047.97 1928.93 2052.8 1934C2062.17 1943.84 2072.62 1956.5 2083.76 1970.01C2084.1 1970.42 2084.44 1970.83 2084.78 1971.24C2107.77 1999.12 2133.67 2030.33 2158.9 2047L2160.32 2047.94L2160.45 2046.23C2161 2038.48 2160.67 2029.25 2160.22 2019.77C2160.14 2018.04 2160.05 2016.31 2159.96 2014.58C2159.57 2006.76 2159.18 1998.91 2159.18 1991.65C2159.18 1982.76 2159.77 1974.88 2161.63 1969.1C2163.41 1963.55 2166.26 1960.18 2170.66 1959.46C2172.63 1961.9 2174.99 1966.13 2177.53 1971.82C2180.21 1977.82 2183.06 1985.38 2185.83 1994.01C2191.36 2011.27 2196.57 2032.81 2199.52 2054.79C2202.46 2076.78 2203.13 2099.18 2199.63 2118.18C2196.12 2137.2 2188.47 2152.67 2174.91 2161.08L2174.91 2161.08C2165.53 2166.93 2152.03 2167.24 2136.2 2163.72C2120.41 2160.21 2102.52 2152.95 2084.54 2143.96C2048.6 2125.99 2012.51 2101.19 1992.55 2086.01C1991.8 2085.41 1990.92 2084.75 1989.99 2084.05C1987.62 2082.27 1984.87 2080.21 1982.76 2077.96C1981.31 2076.41 1980.29 2074.88 1979.93 2073.45C1979.59 2072.09 1979.82 2070.75 1981.05 2069.37Z" fill="#FFF5DE" stroke="#020B18" stroke-width="2"/>
<path d="M2098 2203.66C2098 2203.66 2131 2134.44 2197.73 2139.24L2511.41 2445.59C2511.41 2445.59 2679.68 2610.08 2593.37 2707.05C2593.37 2707.05 2425.11 2827.68 2186.12 2383.57L2098 2203.66Z" fill="#FEFEFE"/>
<path d="M2229 2196.55L2020.35 2355L1690 1961.79L1898.65 1803L2229 2196.55Z" fill="#A9D2E6"/>
<path fill-rule="evenodd" clip-rule="evenodd" d="M2004.56 396.309C2395.17 853.702 2318.65 1522.86 1833.74 1890.97C1348.83 2259.07 639.42 2186.89 249.171 1729.84C-141.076 1272.44 -64.55 603.283 419.996 235.177C904.904 -133.27 1614.31 -60.7438 2004.56 396.309ZM1881.97 489.363C1546.13 95.9403 935.732 34.0192 518.646 350.809C101.559 667.598 35.9136 1243.36 371.759 1636.78C707.604 2030.2 1318 2092.12 1735.09 1775.33C2152.17 1458.55 2217.82 882.782 1881.97 489.363Z" fill="#1B2D55"/>
<path d="M2229 2184.01L3484.42 3655C3528.28 3603.29 3530.1 3528.31 3484.42 3474.55L2415.7 2222.71C2370.02 2168.95 2291.72 2154.56 2229 2184.01Z" fill="#1B2D55"/>
<path d="M3370.6 3628.98C3304.96 3678.97 3208.86 3669.03 3156.27 3607.07L2087.16 2355.49C2078.82 2345.57 2071.93 2334.95 2066.85 2324L2043.64 2341.46C1978.36 2391.1 1967.84 2481.82 2020.79 2543.78L3089.54 3795.37C3142.49 3857.33 3238.6 3866.91 3303.88 3817.28L3469.25 3691.63C3524.37 3649.86 3540.33 3579.34 3512.77 3520.8L3370.6 3628.98Z" fill="#1B2D55"/>
<path d="M3675.63 2703.17C3634.14 2725.41 3556.25 2610.43 3538.41 2577.92C3383 2299.71 3268.71 2185.76 3268.35 2113.55C3262.52 2099.52 3330.22 1900.02 3476.54 2034.16C3528.59 2076.94 3737.87 2521.46 3779 2617.96C3779 2617.96 3767.72 2661.42 3675.63 2703.17Z" fill="#FFF5DE"/>
<path d="M3751 2645.95C3657.89 2838.59 3467.31 2975.9 3193.04 3146L3155 3108.77C3189.06 3065.39 3567.67 2629.56 3567.31 2570.46C3567.31 2570.46 3739.77 2501.47 3751 2645.95Z" fill="#FFF5DE"/>
<path d="M3502.3 2053.8L3502.32 2053.85L3780.71 2600.84C3790.83 2656.83 3766.66 2720.3 3723.74 2784.53C3680.75 2848.83 3619.39 2913.23 3556.56 2970.57C3493.75 3027.89 3429.6 3078.05 3381.14 3113.89C3356.91 3131.81 3336.61 3146.13 3322.38 3155.98C3315.26 3160.9 3309.66 3164.71 3305.84 3167.28C3304.1 3168.44 3302.74 3169.35 3301.77 3170C3263.23 3149.44 3236.51 3113.78 3219.3 3082.77C3210.58 3067.04 3204.35 3052.6 3200.31 3042.1C3198.29 3036.85 3196.82 3032.59 3195.85 3029.65C3195.5 3028.58 3195.22 3027.69 3195 3026.99L3527.15 2641.71L3529.13 2639.41L3527.21 2637.06L3232.29 2274.72C3189.58 2145.68 3219.11 2068.94 3258.57 2024.42C3278.44 2002.01 3300.99 1987.56 3318.6 1978.73C3327.39 1974.31 3334.93 1971.3 3340.26 1969.41C3342.92 1968.46 3345.03 1967.79 3346.46 1967.36C3346.95 1967.21 3347.35 1967.09 3347.68 1967C3411.68 1985.31 3450.44 2007.22 3473.13 2024.43C3484.54 2033.08 3491.9 2040.55 3496.37 2045.81C3498.61 2048.43 3500.13 2050.5 3501.08 2051.89C3501.55 2052.58 3501.88 2053.1 3502.08 2053.44C3502.18 2053.61 3502.26 2053.73 3502.3 2053.8Z" fill="white" stroke="#04112F" stroke-width="2"/>
<path d="M3456.37 3473.43C3508.99 3535.35 3498.83 3626 3433.15 3675.6L3267.67 3801.17C3202.35 3851.08 3106.19 3841.19 3053.21 3779.27L1983.81 2528.57C1930.83 2466.65 1941.35 2376 2006.67 2326.4L2172.15 2200.85C2237.83 2150.9 2333.63 2160.82 2386.61 2222.74L3456.37 3473.43Z" fill="#1B2D55"/>
<path d="M3124.91 3232.06L3124.25 3232.37L3123.77 3232.91C3119.39 3237.74 3112.61 3242.84 3104.69 3247.82C3096.81 3252.77 3088 3257.48 3079.73 3261.56C3071.47 3265.64 3063.78 3269.08 3058.16 3271.5C3055.35 3272.7 3053.06 3273.66 3051.48 3274.31C3050.75 3274.6 3050.18 3274.83 3049.77 3275C3045.77 3274.7 3043.64 3273.78 3042.53 3272.95C3041.48 3272.15 3041.1 3271.25 3041.01 3270.25C3040.9 3269.12 3041.16 3267.86 3041.55 3266.75C3041.62 3266.53 3041.7 3266.33 3041.78 3266.14C3058.12 3259.53 3072.41 3250.24 3082.65 3242.57C3087.92 3238.63 3092.15 3235.09 3095.07 3232.54C3095.78 3231.91 3096.42 3231.34 3096.97 3230.84C3097.92 3230.02 3098.83 3229.18 3099.68 3228.32L3094.63 3223.27C3094.56 3223.2 3094.56 3223.2 3094.56 3223.2L3094.55 3223.21L3094.51 3223.26L3094.31 3223.45C3094.13 3223.62 3093.85 3223.88 3093.49 3224.22C3093.13 3224.55 3092.68 3224.97 3092.15 3225.45C3085.94 3230.83 3077.11 3235.74 3066.92 3240.12C3055.41 3245.07 3042.47 3249.21 3030.28 3252.53C3018.11 3255.85 3006.76 3258.33 2998.45 3259.99C2994.29 3260.82 2990.9 3261.44 2988.55 3261.85C2987.38 3262.06 2986.47 3262.21 2985.85 3262.31C2985.83 3262.32 2985.81 3262.32 2985.79 3262.33C2980.06 3260.37 2977.52 3258.29 2976.49 3256.75C2975.57 3255.38 2975.56 3254.02 2976.21 3252.42C2976.92 3250.67 2978.32 3248.94 2979.73 3247.54C2980.38 3246.91 2980.97 3246.39 2981.42 3246.02C3013.27 3243.65 3036.84 3235.16 3052.55 3227.16C3060.48 3223.12 3066.41 3219.21 3070.37 3216.28C3072.35 3214.81 3073.85 3213.6 3074.85 3212.73C3075.36 3212.3 3075.74 3211.96 3076.01 3211.71C3076.14 3211.59 3076.24 3211.5 3076.31 3211.43L3076.4 3211.34L3076.43 3211.32L3076.44 3211.31H3076.44C3076.44 3211.3 3076.44 3211.3 3073.91 3208.72L3076.44 3211.3L3071.93 3205.69C3048.03 3221.24 3018.39 3226.97 2994.46 3228.74C2982.54 3229.62 2972.13 3229.52 2964.71 3229.19C2961 3229.03 2958.04 3228.81 2956.02 3228.64C2955.01 3228.55 2954.23 3228.47 2953.71 3228.41C2953.58 3228.4 2953.46 3228.39 2953.36 3228.38C2943.57 3224.71 2939.24 3221.63 2937.67 3219.53C2936.97 3218.6 2936.98 3218.1 2937.01 3217.88C2937.05 3217.58 2937.24 3217.06 2937.94 3216.3C2939.43 3214.72 2942.12 3213.26 2944.83 3212.13C2946.12 3211.59 2947.3 3211.18 2948.16 3210.9C2948.49 3210.79 2948.77 3210.71 2948.99 3210.64C2977.69 3211.42 3002.88 3206.17 3020.92 3200.7C3030.01 3197.96 3037.3 3195.15 3042.33 3193.02C3044.85 3191.96 3046.8 3191.06 3048.13 3190.43C3048.8 3190.11 3049.32 3189.86 3049.67 3189.69C3049.84 3189.6 3049.98 3189.53 3050.07 3189.48L3050.18 3189.43L3050.21 3189.41L3050.22 3189.41L3050.22 3189.4C3050.22 3189.4 3050.23 3189.4 3048.54 3186.2L3050.23 3189.4L3047.21 3182.85C3047.21 3182.84 3047.21 3182.84 3047.21 3182.84L3047.21 3182.84H3047.2L3047.16 3182.86L3047 3182.92C3046.85 3182.98 3046.62 3183.07 3046.32 3183.18C3045.72 3183.4 3044.83 3183.73 3043.68 3184.14C3041.39 3184.95 3038.06 3186.06 3033.97 3187.28C3025.79 3189.72 3014.62 3192.55 3002.59 3194.13C2990.53 3195.72 2977.81 3196.04 2966.45 3193.6C2957.68 3191.72 2949.84 3188.23 2943.71 3182.51C2945.53 3182.36 2947.62 3182.17 2949.93 3181.91C2958.22 3180.98 2969.43 3179.29 2981.49 3176.55C2993.54 3173.81 3006.53 3170 3018.33 3164.83C3030.01 3159.72 3040.77 3153.15 3048.23 3144.73L3067.12 3127.62C3067.22 3127.55 3067.35 3127.45 3067.5 3127.34C3067.84 3127.09 3068.31 3126.72 3068.82 3126.28C3069.77 3125.45 3071.19 3124.09 3072.07 3122.46C3072.52 3121.62 3072.98 3120.46 3072.95 3119.1C3072.92 3117.62 3072.32 3116.24 3071.21 3115.16C3070.19 3114.16 3068.88 3113.54 3067.53 3113.13C3066.16 3112.72 3064.52 3112.45 3062.6 3112.31L3038.71 3110.27L3038.48 3110.25L3038.25 3110.26H3038.24H3038.19C3038.13 3110.26 3038.05 3110.27 3037.94 3110.27C3037.71 3110.27 3037.37 3110.28 3036.94 3110.28C3036.06 3110.28 3034.81 3110.26 3033.31 3110.18C3030.27 3110.01 3026.33 3109.61 3022.51 3108.66C3018.63 3107.69 3015.23 3106.26 3012.98 3104.26C3010.91 3102.42 3009.71 3100.07 3010.11 3096.56C3010.26 3095.37 3011.2 3093.98 3013.83 3092.55C3016.42 3091.14 3019.94 3090.09 3023.7 3089.36C3027.4 3088.63 3031.1 3088.24 3033.89 3088.03C3035.28 3087.93 3036.43 3087.87 3037.23 3087.84C3037.63 3087.82 3037.93 3087.81 3038.14 3087.81L3038.37 3087.81L3038.43 3087.8H3038.44H3038.58L3038.72 3087.79L3038.4 3084.19C3038.72 3087.79 3038.72 3087.79 3038.72 3087.79H3038.73H3038.75L3038.81 3087.78L3039.07 3087.76L3040.11 3087.66C3041.04 3087.58 3042.4 3087.45 3044.2 3087.29C3047.78 3086.96 3053.07 3086.47 3059.89 3085.83C3073.51 3084.55 3093.23 3082.68 3117.64 3080.29L3117.77 3080.29C3117.92 3080.28 3118.14 3080.27 3118.43 3080.26C3119.01 3080.23 3119.84 3080.19 3120.87 3080.13C3122.94 3080 3125.83 3079.8 3129.12 3079.47C3135.58 3078.83 3143.81 3077.72 3150.45 3075.78C3158.01 3074.6 3163.73 3073.75 3169.47 3074.07C3175.15 3074.38 3181.01 3075.84 3188.6 3079.57C3200.02 3085.46 3209.21 3090.39 3214.67 3097.84C3219.86 3104.91 3222.06 3114.86 3217.6 3131.81C3204.34 3163.09 3177.29 3207.4 3124.91 3232.06Z" fill="#FFF5DE"/>
<path d="M3038.72 3087.79L3038.58 3087.8H3038.44H3038.43L3038.37 3087.81L3038.14 3087.81C3037.93 3087.81 3037.63 3087.82 3037.23 3087.84C3036.43 3087.87 3035.28 3087.93 3033.89 3088.03C3031.1 3088.24 3027.4 3088.63 3023.7 3089.36C3019.94 3090.09 3016.42 3091.14 3013.83 3092.55C3011.2 3093.98 3010.26 3095.37 3010.11 3096.56C3009.71 3100.07 3010.91 3102.42 3012.98 3104.26C3015.23 3106.26 3018.63 3107.69 3022.51 3108.66C3026.33 3109.61 3030.27 3110.01 3033.31 3110.18C3034.81 3110.26 3036.06 3110.28 3036.94 3110.28C3037.37 3110.28 3037.71 3110.27 3037.94 3110.27C3038.05 3110.27 3038.13 3110.26 3038.19 3110.26H3038.24H3038.25L3038.48 3110.25L3038.71 3110.27L3062.6 3112.31C3064.52 3112.45 3066.16 3112.72 3067.53 3113.13C3068.88 3113.54 3070.19 3114.16 3071.21 3115.16C3072.32 3116.24 3072.92 3117.62 3072.95 3119.1C3072.98 3120.46 3072.52 3121.62 3072.07 3122.46C3071.19 3124.09 3069.77 3125.45 3068.82 3126.28C3068.31 3126.72 3067.84 3127.09 3067.5 3127.34C3067.35 3127.45 3067.22 3127.55 3067.12 3127.62L3048.23 3144.73C3040.77 3153.15 3030.01 3159.72 3018.33 3164.83C3006.53 3170 2993.54 3173.81 2981.49 3176.55C2969.43 3179.29 2958.22 3180.98 2949.93 3181.91C2947.62 3182.17 2945.53 3182.36 2943.71 3182.51C2949.84 3188.23 2957.68 3191.72 2966.45 3193.6C2977.81 3196.04 2990.53 3195.72 3002.59 3194.13C3014.62 3192.55 3025.79 3189.72 3033.97 3187.28C3038.06 3186.06 3041.39 3184.95 3043.68 3184.14C3044.83 3183.73 3045.72 3183.4 3046.32 3183.18C3046.62 3183.07 3046.85 3182.98 3047 3182.92L3047.16 3182.86L3047.2 3182.84H3047.21L3047.21 3182.84C3047.21 3182.84 3047.21 3182.84 3047.21 3182.85L3050.23 3189.4L3048.54 3186.2C3050.23 3189.4 3050.22 3189.4 3050.22 3189.4L3050.22 3189.41L3050.21 3189.41L3050.18 3189.43L3050.07 3189.48C3049.98 3189.53 3049.84 3189.6 3049.67 3189.69C3049.32 3189.86 3048.8 3190.11 3048.13 3190.43C3046.8 3191.06 3044.85 3191.96 3042.33 3193.02C3037.3 3195.15 3030.01 3197.96 3020.92 3200.7C3002.88 3206.17 2977.69 3211.42 2948.99 3210.64C2948.77 3210.71 2948.49 3210.79 2948.16 3210.9C2947.3 3211.18 2946.12 3211.59 2944.83 3212.13C2942.12 3213.26 2939.43 3214.72 2937.94 3216.3C2937.24 3217.06 2937.05 3217.58 2937.01 3217.88C2936.98 3218.1 2936.97 3218.6 2937.67 3219.53C2939.24 3221.63 2943.57 3224.71 2953.36 3228.38C2953.46 3228.39 2953.58 3228.4 2953.71 3228.41C2954.23 3228.47 2955.01 3228.55 2956.02 3228.64C2958.04 3228.81 2961 3229.03 2964.71 3229.19C2972.13 3229.52 2982.54 3229.62 2994.46 3228.74C3018.39 3226.97 3048.03 3221.24 3071.93 3205.69L3076.44 3211.3L3073.91 3208.72C3076.44 3211.3 3076.44 3211.3 3076.44 3211.31H3076.44L3076.43 3211.32L3076.4 3211.34L3076.31 3211.43C3076.24 3211.5 3076.14 3211.59 3076.01 3211.71C3075.74 3211.96 3075.36 3212.3 3074.85 3212.73C3073.85 3213.6 3072.35 3214.81 3070.37 3216.28C3066.41 3219.21 3060.48 3223.12 3052.55 3227.16C3036.84 3235.16 3013.27 3243.65 2981.42 3246.02C2980.97 3246.39 2980.38 3246.91 2979.73 3247.54C2978.32 3248.94 2976.92 3250.67 2976.21 3252.42C2975.56 3254.02 2975.57 3255.38 2976.49 3256.75C2977.52 3258.29 2980.06 3260.37 2985.79 3262.33C2985.81 3262.32 2985.83 3262.32 2985.85 3262.31C2986.47 3262.21 2987.38 3262.06 2988.55 3261.85C2990.9 3261.44 2994.29 3260.82 2998.45 3259.99C3006.76 3258.33 3018.11 3255.85 3030.28 3252.53C3042.47 3249.21 3055.41 3245.07 3066.92 3240.12C3077.11 3235.74 3085.94 3230.83 3092.15 3225.45C3092.68 3224.97 3093.13 3224.55 3093.49 3224.22C3093.85 3223.88 3094.13 3223.62 3094.31 3223.45L3094.51 3223.26L3094.55 3223.21L3094.56 3223.2C3094.56 3223.2 3094.56 3223.2 3094.63 3223.27L3099.68 3228.32C3098.83 3229.18 3097.92 3230.02 3096.97 3230.84C3096.42 3231.34 3095.78 3231.91 3095.07 3232.54C3092.15 3235.09 3087.92 3238.63 3082.65 3242.57C3072.41 3250.24 3058.12 3259.53 3041.78 3266.14C3041.7 3266.33 3041.62 3266.53 3041.55 3266.75C3041.16 3267.86 3040.9 3269.12 3041.01 3270.25C3041.1 3271.25 3041.48 3272.15 3042.53 3272.95C3043.64 3273.78 3045.77 3274.7 3049.77 3275C3050.18 3274.83 3050.75 3274.6 3051.48 3274.31C3053.06 3273.66 3055.35 3272.7 3058.16 3271.5C3063.78 3269.08 3071.47 3265.64 3079.73 3261.56C3088 3257.48 3096.81 3252.77 3104.69 3247.82C3112.61 3242.84 3119.39 3237.74 3123.77 3232.91L3124.25 3232.37L3124.91 3232.06C3177.29 3207.4 3204.34 3163.09 3217.6 3131.81C3222.06 3114.86 3219.86 3104.91 3214.67 3097.84C3209.21 3090.39 3200.02 3085.46 3188.6 3079.57C3181.01 3075.84 3175.15 3074.38 3169.47 3074.07C3163.73 3073.75 3158.01 3074.6 3150.45 3075.78C3143.81 3077.72 3135.58 3078.83 3129.12 3079.47C3125.83 3079.8 3122.94 3080 3120.87 3080.13C3119.84 3080.19 3119.01 3080.23 3118.43 3080.26C3118.14 3080.27 3117.92 3080.28 3117.77 3080.29L3117.64 3080.29C3093.23 3082.68 3073.51 3084.55 3059.89 3085.83C3053.07 3086.47 3047.78 3086.96 3044.2 3087.29C3042.4 3087.45 3041.04 3087.58 3040.11 3087.66L3039.07 3087.76L3038.81 3087.78L3038.75 3087.79H3038.73H3038.72ZM3038.72 3087.79L3038.4 3084.19C3038.72 3087.79 3038.72 3087.79 3038.72 3087.79Z" stroke="black" stroke-width="2"/>
</svg>
