<svg width="501" height="442" viewBox="0 0 501 442" fill="none" xmlns="http://www.w3.org/2000/svg">
<path opacity="0.5" d="M479.2 32H294.1C289.1 32 285 36.1 285 41.1V400.3C285 405.4 289.1 409.5 294.1 409.5H479.2C484.3 409.5 488.4 405.4 488.4 400.3V41.1C488.4 36.1 484.3 32 479.2 32Z" fill="#D9E8FF"/>
<path fill-rule="evenodd" clip-rule="evenodd" d="M500.712 17.6V424C500.712 433.7 492.812 441.6 483.112 441.6H289.712C280.012 441.6 272.112 433.7 272.112 424V17.6C272.112 7.90001 280.012 0 289.712 0H483.112C492.812 0 500.712 7.90001 500.712 17.6ZM488.112 41.2C488.112 36.2 484.012 32.1 478.912 32.1H293.812C288.812 32.1 284.712 36.2 284.712 41.2V400.4C284.712 405.5 288.812 409.6 293.812 409.6H478.912C484.012 409.6 488.112 405.5 488.112 400.4V41.2Z" fill="#1E4174"/>
<path d="M289.712 441.6H483.112C492.812 441.6 500.712 433.7 500.712 424V17.6004C500.712 13.4004 499.212 9.40039 496.712 6.40039L483.012 33.0004C486.012 34.5004 488.112 37.6004 488.112 41.2004V400.4C488.112 405.5 484.012 409.6 478.912 409.6H293.812C292.512 409.6 291.212 409.3 290.012 408.7L276.312 435.5C279.512 439.2 284.312 441.6 289.712 441.6Z" fill="#1E4174"/>
<path d="M376.212 21.9002C372.912 21.9002 370.312 19.3002 370.312 16.0002C370.312 12.8002 372.912 10.2002 376.212 10.2002C379.412 10.2002 382.012 12.8002 382.012 16.0002C382.012 19.3002 379.412 21.9002 376.212 21.9002Z" fill="white"/>
<path d="M422.212 16C422.212 14.1 420.612 12.5 418.612 12.5H395.212C393.212 12.5 391.612 14.1 391.612 16C391.612 18 393.212 19.6 395.212 19.6H418.612C420.612 19.6 422.212 18 422.212 16Z" fill="white"/>
<path d="M388.253 184.292H309.522C307.993 184.292 306.77 183.069 306.77 181.541V102.809C306.77 101.281 307.993 100.058 309.522 100.058H388.253C389.782 100.058 391.081 101.281 391.081 102.809V181.541C391.081 183.069 389.782 184.292 388.253 184.292Z" fill="#B1D7FF"/>
<path d="M385.195 181.235H306.464C304.935 181.235 303.712 180.012 303.712 178.483V99.7518C303.712 98.223 304.935 97 306.464 97H385.195C386.724 97 387.947 98.223 387.947 99.7518V178.483C387.947 180.012 386.724 181.235 385.195 181.235Z" fill="#FFFFF8"/>
<path d="M349 160H371.743L370.019 122.858L377.737 132.143L388 121.05C388 121.05 374.617 104.533 372.154 103.219C369.773 101.904 358.853 101 358.853 101C358.606 104.533 355.897 110.286 349 110.286C342.103 110.286 339.394 104.533 339.229 101C339.229 101 328.227 101.904 325.846 103.219C323.383 104.533 310 121.05 310 121.05L320.263 132.143L328.063 122.858L326.257 160H349Z" fill="#B1D7FF"/>
<path d="M478.681 183.2H404.47C403.103 183.2 401.879 182.048 401.879 180.609V106.47C401.879 105.031 403.103 103.879 404.47 103.879H478.681C480.12 103.879 481.272 105.031 481.272 106.47V180.609C481.272 182.048 480.12 183.2 478.681 183.2Z" fill="#B1D7FF"/>
<path d="M475.802 180.321H401.591C400.152 180.321 399 179.169 399 177.73V103.591C399 102.152 400.152 101 401.591 101H475.802C477.241 101 478.393 102.152 478.393 103.591V177.73C478.393 179.169 477.241 180.321 475.802 180.321Z" fill="#FFFFF8"/>
<path d="M442.536 163H462.561L461.038 130.265L467.931 138.448L477 128.671C477 128.671 465.101 114.114 462.997 112.955C460.82 111.797 451.17 111 451.17 111C450.953 114.114 448.558 119.184 442.536 119.184C436.442 119.184 434.047 114.114 433.83 111C433.83 111 424.18 111.797 422.003 112.955C419.899 114.114 408 128.671 408 128.671L417.142 138.448L423.962 130.265L422.439 163H442.536Z" fill="#FFF5DE"/>
<path d="M488.252 345.199H401.402C399.802 345.199 398.37 343.851 398.37 342.166V255.401C398.37 253.716 399.802 252.368 401.402 252.368H488.252C489.936 252.368 491.284 253.716 491.284 255.401V342.166C491.284 343.851 489.936 345.199 488.252 345.199Z" fill="#B1D7FF"/>
<path d="M484.882 341.83H398.033C396.348 341.83 395 340.483 395 338.798V252.033C395 250.348 396.348 249 398.033 249H484.882C486.567 249 487.915 250.348 487.915 252.033V338.798C487.915 340.483 486.567 341.83 484.882 341.83Z" fill="#FFFFF8"/>
<path d="M420.187 271.575C413.027 278.483 414.122 286.317 416.733 295.415C419.345 304.512 420.44 321.95 420.44 321.95H426.758C426.758 321.95 426 302.659 430.464 301.143C434.929 299.711 443.184 316.39 444.869 319.001C446.47 321.613 449.923 321.95 453.798 321.95C457.589 321.95 476.29 321.95 476.29 321.95C476.29 321.95 482.86 316.895 470.899 311.083C463.149 307.292 461.717 306.366 461.717 306.366C461.717 306.366 451.608 305.944 440.91 295.415C436.782 291.287 431.728 280.083 427.937 276.04C423.809 271.575 420.187 271.575 420.187 271.575Z" fill="#B1D7FF"/>
<path d="M388.847 344H301.068C299.364 344 298 342.65 298 340.962V254.038C298 252.35 299.364 251 301.068 251H388.847C390.551 251 392 252.35 392 254.038V340.962C392 342.65 390.551 344 388.847 344Z" fill="#B1D7FF"/>
<path d="M387.06 342.411H302.94C301.307 342.411 300 341.104 300 339.471V255.351C300 253.718 301.307 252.411 302.94 252.411H387.06C388.693 252.411 390 253.718 390 255.351V339.471C390 341.104 388.693 342.411 387.06 342.411Z" fill="#FFFFF8"/>
<path d="M325.618 274C318.182 281.217 319.393 289.217 322.073 298.609C324.754 308 325.878 326 325.878 326H332.363C332.363 326 331.584 306.087 336.167 304.522C340.75 303.043 349.223 320.261 350.866 322.957C352.595 325.652 356.141 326 360.118 326C364.009 326 383.118 326 383.118 326C383.118 326 389.949 320.783 377.584 314.783C369.716 310.957 368.246 309.913 368.246 309.913C368.246 309.913 357.87 309.478 346.889 298.609C342.565 294.348 337.378 282.783 333.573 278.609C329.336 274 325.618 274 325.618 274Z" fill="#FFF5DE"/>
<path d="M150.707 255.981H162.007C167.307 255.981 172.007 259.381 173.707 264.381L205.507 361.481C206.307 363.881 208.507 365.481 211.007 365.481H317.607C320.507 365.481 322.907 363.381 323.407 360.581L335.907 284.381H180.207" stroke="#001C45" stroke-width="4.7" stroke-linecap="round"/>
<path d="M309.217 366.9H234.417C211.317 366.9 192.517 385.7 192.517 408.8H304.317" stroke="#001C45" stroke-width="4.5" stroke-linecap="round"/>
<path d="M182.817 432.999C182.817 428.199 186.617 424.399 191.417 424.399C196.117 424.399 200.017 428.199 200.017 432.999C200.017 437.799 196.117 441.599 191.417 441.599C186.617 441.599 182.817 437.799 182.817 432.999Z" fill="#001C45"/>
<path d="M190.217 422.3C190.317 425.5 190.117 429.1 187.717 432.6C185.317 436 190.917 438.2 196.517 434.8C203.217 430.8 205.017 422.3 205.017 422.3H190.217Z" fill="#B1D7FF"/>
<path d="M189.617 433C189.617 432 190.417 431.2 191.417 431.2C192.417 431.2 193.217 432 193.217 433C193.217 434 192.417 434.8 191.417 434.8C190.417 434.8 189.617 434 189.617 433Z" fill="#001C45"/>
<path d="M243.117 432.999C243.117 428.199 247.017 424.399 251.717 424.399C256.517 424.399 260.417 428.199 260.417 432.999C260.417 437.799 256.517 441.599 251.717 441.599C247.017 441.599 243.117 437.799 243.117 432.999Z" fill="#001C45"/>
<path d="M250.517 422.3C250.617 425.5 250.517 429.1 248.017 432.6C245.617 436 251.217 438.2 256.817 434.8C263.517 430.8 265.417 422.3 265.417 422.3H250.517Z" fill="#B1D7FF"/>
<path d="M249.917 433C249.917 432 250.717 431.2 251.717 431.2C252.717 431.2 253.617 432 253.617 433C253.617 434 252.717 434.8 251.717 434.8C250.717 434.8 249.917 434 249.917 433Z" fill="#001C45"/>
<path d="M188.617 313H331.017" stroke="#001C45" stroke-width="3.6" stroke-linecap="round"/>
<path d="M197.517 340.1H326.517" stroke="#001C45" stroke-width="3.6" stroke-linecap="round"/>
<path d="M158.107 255.981H140.407" stroke="#50CAFF" stroke-width="8.1" stroke-linecap="round"/>
<path d="M115.873 423.8C116.373 424.8 115.973 426.8 111.973 428.5C107.873 430.2 100.673 429.4 97.773 428.9C94.873 428.3 93.073 427.5 88.773 428.4C84.573 429.3 77.573 428.9 75.373 427.1C74.673 426.2 75.173 424.5 75.173 424.5L115.873 423.8Z" fill="#1E4174"/>
<path d="M90.073 416.9C90.073 416.9 91.473 412.9 93.373 411.6" stroke="#1E4174" stroke-width="1.1" stroke-linecap="round"/>
<path d="M95.473 419.1C95.473 419.1 96.873 415.1 98.773 413.8" stroke="#1E4174" stroke-width="1.1" stroke-linecap="round"/>
<path d="M100.873 421.2C100.873 421.2 102.273 417.2 104.173 415.9" stroke="#1E4174" stroke-width="1.1" stroke-linecap="round"/>
<path d="M77.473 411.3C76.873 414.2 74.473 421.1 75.173 424.5C78.173 427 84.573 427.2 89.473 426C94.273 424.7 97.673 427.2 103.673 427.6C109.673 427.9 114.673 426.3 115.873 423.8C117.173 421.1 106.773 419 99.673 416.8C91.773 414.4 87.673 410.5 87.673 410.5L77.473 411.3Z" fill="#1E4174"/>
<path d="M78.0171 400.6V412.4C78.0171 412.4 79.3171 412.8 79.9171 413.5C80.5171 414.1 81.2171 416.3 82.2171 416.4C86.0171 416.5 88.2171 411.6 88.2171 411.6L89.6171 400.9L78.0171 400.6Z" fill="#FFF5DE"/>
<path d="M20.5122 426C19.8122 426.9 17.8122 427.4 14.5122 424.5C11.3122 421.5 8.81225 414.7 8.11225 411.8C7.41225 409 7.41225 407 4.71225 403.5C2.11225 400 -0.587754 393.5 0.112246 390.8C0.612246 389.8 2.41223 389.5 2.41223 389.5L20.5122 426Z" fill="#1E4174"/>
<path d="M15.4172 400.3C15.4172 400.3 19.6172 399.8 21.6172 401" stroke="#1E4174" stroke-width="1.1" stroke-linecap="round"/>
<path d="M15 406.564C15 406.564 19.2 406.164 21.2 407.364" stroke="#1E4174" stroke-width="1.1" stroke-linecap="round"/>
<path d="M15.4 412.364C15.4 412.364 19.6 411.964 21.6 413.164" stroke="#1E4174" stroke-width="1.1" stroke-linecap="round"/>
<path d="M15.1172 386.399C12.2172 387.099 4.91716 387.899 2.21716 389.999C1.21716 393.799 3.81718 399.699 7.01718 403.499C10.1172 407.399 9.41719 411.499 11.6172 417.099C13.9172 422.699 17.5172 426.399 20.3172 426.499C23.3172 426.499 20.7172 416.199 19.7172 408.899C18.5172 400.699 20.2172 395.299 20.2172 395.299L15.1172 386.399Z" fill="#1E4174"/>
<path d="M21.6172 380.699L15.1172 387.399C15.1172 387.399 15.3172 388.799 14.9172 389.599C14.6172 390.399 12.9172 392.099 13.3172 392.999C14.8172 396.399 20.2172 396.299 20.2172 396.299L29.6172 388.999L21.6172 380.699Z" fill="#FFF5DE"/>
<path d="M100.617 233.8C87.5171 233.8 77.717 234.7 77.717 234.7C73.517 236.6 66.317 246.1 64.217 252.2C62.117 258.2 62.9171 268.3 64.1171 273.5C70.2171 302.6 80.517 319.3 82.917 330.8C84.417 337.8 77.417 334 77.417 351.9C77.417 367.8 78.017 401.8 78.017 401.8C78.017 401.8 82.917 404.7 89.417 402.8C89.417 402.8 99.2171 346.6 100.317 340.2C102.117 329.8 102.717 325.4 102.917 307.4C103.117 282.1 100.617 233.8 100.617 233.8Z" fill="#1E4174"/>
<path d="M29.6172 389C29.6172 389 69.1172 348.8 72.2172 345.5C75.2172 342.1 87.6172 275.6 88.4172 270.6C88.4172 270.6 100.817 257.9 101.217 247.5L61.0172 227.3C59.3172 233.7 57.9172 234 56.7172 250.8C56.1172 259.3 54.2172 294.6 52.9172 336.4C52.9172 336.4 48.7172 338.6 42.4172 344.7C37.3172 349.8 21.6172 380.7 21.6172 380.7C21.6172 380.7 23.5172 386.9 29.6172 389Z" fill="#1E4174"/>
<path d="M56.7172 250.799C56.1172 259.299 54.2172 294.599 52.9172 336.399C52.9172 336.399 48.7172 338.599 42.4172 344.699C37.3172 349.799 21.6172 380.699 21.6172 380.699C21.6172 380.699 22.1172 382.299 23.3172 384.099C27.1172 376.199 37.2172 357.399 42.1172 350.699C48.2172 342.199 55.4172 339.699 56.7172 338.599C58.0172 337.499 57.3172 333.899 57.8172 325.899C58.2172 317.799 62.9172 248.299 62.9172 248.299L57.7172 240.399C57.3172 242.999 57.0172 246.299 56.7172 250.799Z" fill="#1E4174"/>
<path d="M98.6171 256.5C98.6171 256.5 90.7171 263.6 77.9171 263.6C65.2171 263.6 56.3171 258 56.3171 258L56.7171 250.8L98.6171 256.5Z" fill="#1E4174"/>
<path d="M23.5172 375.3C24.3172 379.8 29.4172 384.1 35.8172 386.5" stroke="#274D79" stroke-width="1.1"/>
<path d="M83.379 159.968L99.4292 166.522C99.7301 166.855 99.9672 167.367 99.9672 168.412C99.9672 169.445 99.7348 170.949 99.1392 173.213L83.379 159.968Z" fill="white" stroke="black"/>
<path d="M115.317 136.3C115.717 137.8 118.017 144.4 118.917 146.4C119.717 148.4 114.517 147.3 114.517 147.3L115.317 136.3Z" fill="#D0C6AE"/>
<path d="M84.3171 158.3L98.0171 170.7L102.917 157.9L89.5171 143.7L84.3171 158.3Z" fill="#FFF5DE"/>
<path d="M100.717 163.5C100.717 163.5 87.5172 153.4 89.5172 143.7L102.917 157.9L100.717 163.5Z" fill="#D0C6AE"/>
<path d="M89.6173 143.7C89.6173 143.7 89.9171 145.9 90.3171 147.5C90.8171 149.2 101.417 157.4 104.517 158.7C107.517 160 111.917 160.5 114.017 149.7C116.217 138.9 116.117 129 110.317 122.3C104.617 115.5 93.3173 117.9 87.1173 123.5C80.9173 129.1 81.7173 143.6 89.6173 143.7Z" fill="#FFF5DE"/>
<path d="M89.6172 143.7L87.5172 149.3C87.5172 149.3 85.3172 148.4 83.3172 143.7C81.1172 138.6 77.0172 129.8 78.8172 125.5C80.3172 122.2 83.6172 120.4 87.0172 119.8C88.1172 119.6 88.5172 119.8 89.0172 118.8C90.2172 116.5 91.2172 114.5 93.6172 113.1C95.6172 111.9 97.3172 111.5 99.6172 111.3C102.117 111.1 104.917 111.8 107.317 112.3C112.617 113.1 117.917 113.1 123.217 112.3C123.417 112.3 123.717 112.3 123.817 112.4C124.017 112.6 124.017 112.9 124.017 113.1C123.617 117.6 120.317 119.9 116.317 121.3C116.317 121.3 122.517 127 117.217 128.4C111.917 129.9 98.9172 125.9 98.9172 125.9C98.9172 125.9 104.617 130.1 102.217 131.4C99.8172 132.7 91.7172 129.6 91.7172 129.6L91.6172 134.1C91.6172 134.1 88.5172 132.1 86.1172 133.8C83.2172 135.8 84.5172 143.8 89.6172 143.7Z" fill="#001C45"/>
<path d="M90.9172 106.5C90.9172 106.5 84.4172 114 90.4172 122C90.4172 122 82.9172 119.7 83.3172 112.1" stroke="#001C45" stroke-width="1.6" stroke-linecap="round"/>
<path d="M97.649 171.881C97.6368 171.913 97.6249 171.944 97.6133 171.974L81.3051 158.226C81.3987 158.104 81.5122 157.958 81.6419 157.791C82.0269 157.295 82.5536 156.622 83.1206 155.912C84.2187 154.536 85.4329 153.066 86.0745 152.445C86.1324 152.465 86.2214 152.507 86.3449 152.584C86.6681 152.786 87.1025 153.15 87.6287 153.66C88.6738 154.673 89.9971 156.178 91.3817 157.855C94.1468 161.206 97.1132 165.194 98.5068 167.185C98.6212 167.351 98.6872 167.719 98.6275 168.321C98.5711 168.89 98.4151 169.552 98.2252 170.196C98.0364 170.835 97.8194 171.438 97.649 171.881Z" fill="white" stroke="#020B18"/>
<path d="M80.5253 158.876C80.4804 158.895 80.4298 158.918 80.3737 158.944C80.0965 159.071 79.6857 159.278 79.1666 159.589C78.1288 160.212 76.6568 161.254 74.9543 162.92C71.5536 166.247 67.2215 172.074 63.5962 182.046C61.212 191.701 59.6156 208.865 58.616 223.659C58.1163 231.054 57.7665 237.844 57.5416 242.785C57.4292 245.256 57.348 247.264 57.2949 248.654C57.2684 249.349 57.2489 249.89 57.236 250.257C57.2309 250.402 57.2268 250.52 57.2238 250.61C57.2641 250.651 57.3138 250.702 57.3729 250.76C57.5682 250.954 57.8667 251.234 58.2725 251.577C59.0842 252.262 60.325 253.194 62.0274 254.165C65.4303 256.106 70.6843 258.207 78.0555 258.801C85.7831 259.396 91.9438 258.207 96.1666 256.873C98.2783 256.206 99.9054 255.503 101.001 254.969C101.549 254.702 101.964 254.477 102.24 254.321C102.303 254.285 102.358 254.253 102.407 254.225L102.403 254.12L102.361 252.982L102.208 248.829C102.08 245.34 101.905 240.562 101.717 235.405C101.343 225.095 100.918 213.271 100.718 207.219L80.5253 158.876Z" fill="white"/>
<path d="M80.5253 158.876C80.4804 158.895 80.4298 158.918 80.3737 158.944C80.0965 159.071 79.6857 159.278 79.1666 159.589C78.1288 160.212 76.6568 161.254 74.9543 162.92C71.5536 166.247 67.2215 172.074 63.5962 182.046C61.212 191.701 59.6156 208.865 58.616 223.659C58.1163 231.054 57.7665 237.844 57.5416 242.785C57.4292 245.256 57.348 247.264 57.2949 248.654C57.2684 249.349 57.2489 249.89 57.236 250.257C57.2309 250.402 57.2268 250.52 57.2238 250.61C57.2641 250.651 57.3138 250.702 57.3729 250.76C57.5682 250.954 57.8667 251.234 58.2725 251.577C59.0842 252.262 60.325 253.194 62.0274 254.165C65.4303 256.106 70.6843 258.207 78.0555 258.801C85.7831 259.396 91.9438 258.207 96.1666 256.873C98.2783 256.206 99.9054 255.503 101.001 254.969C101.549 254.702 101.964 254.477 102.24 254.321C102.303 254.285 102.358 254.253 102.407 254.225L102.403 254.12L102.361 252.982L102.208 248.829C102.08 245.34 101.905 240.562 101.717 235.405C101.343 225.095 100.918 213.271 100.718 207.219L80.5253 158.876ZM80.5253 158.876L98.9613 174.37" stroke="#020B18"/>
<path d="M102.017 231L70.2172 185.9C71.2172 193.2 87.2172 233.4 87.2172 233.4L89.7172 233.2C89.7172 233.2 92.9172 240.6 94.3172 242.8C95.2172 244.2 100.017 245.5 102.617 246.4C102.417 242.1 102.217 236.6 102.017 231Z" fill="#B3B3B3"/>
<path d="M95 192L81.5 160L97.4949 173.182L97.5019 173.188L99.0247 174.425C99.2367 174.829 94.9586 191.621 95 192Z" fill="white" stroke="black"/>
<path d="M87.4171 135.501C88.2171 135.201 89.5171 135.301 90.2171 135.801C90.4171 136.001 90.0171 136.501 89.7171 136.401C88.3171 135.901 86.6171 135.801 85.9171 137.401C85.8171 137.501 85.8171 137.401 85.8171 137.401C85.9504 136.467 86.4837 135.834 87.4171 135.501Z" fill="#D0C6AE"/>
<path d="M88.0172 135.601C88.2172 135.601 88.6172 136.001 88.5172 136.101C88.3172 136.201 87.9172 136.501 87.7172 136.801C87.4172 137.301 87.4172 137.801 87.4172 138.401C87.5172 139.801 88.3172 140.801 89.7172 141.101C89.7172 141.101 89.8172 141.201 89.7172 141.201C88.5172 141.501 87.2172 140.301 86.9172 139.201C86.6172 138.001 86.7172 136.301 88.0172 135.601Z" fill="#D0C6AE"/>
<path d="M70.107 180.382C68.507 171.582 85.307 166.082 90.007 177.282C94.607 188.182 106.207 225.982 106.207 225.982C106.207 225.982 140.507 247.582 143.907 247.282C148.507 246.882 160.007 259.382 158.607 261.282C157.307 263.282 151.507 264.882 147.407 263.782C144.007 262.782 140.707 256.682 139.407 255.682C132.707 253.482 101.007 242.982 96.707 239.282C92.507 235.582 71.107 186.082 70.107 180.382Z" fill="#FFF5DE"/>
<path d="M87.7609 174.705L87.7663 174.717C88.9603 177.204 91.5477 182.677 94.037 191.14C94.989 194.447 97.5904 202.926 99.9518 210.573C101.133 214.398 102.255 218.017 103.082 220.68C103.495 222.011 103.835 223.104 104.071 223.863L104.344 224.741L104.359 224.789C104.337 224.813 104.314 224.84 104.289 224.869C104.128 225.053 103.888 225.319 103.573 225.64C102.945 226.284 102.023 227.151 100.852 228.04C98.5746 229.769 95.3867 231.557 91.614 231.969L91.4881 231.711L90.7211 230.141C90.0695 228.806 89.1602 226.944 88.1289 224.831C86.0666 220.607 83.5169 215.382 81.5671 211.382C77.6743 203.297 71.1829 187.417 69.5904 182.739C69.2304 181.682 69.2479 180.389 69.5567 179C69.8645 177.616 70.4535 176.173 71.1918 174.843C71.9299 173.513 72.808 172.312 73.6815 171.407C74.5663 170.49 75.3907 169.935 76.0187 169.79C77.5339 169.508 79.9699 169.577 82.2907 170.315C84.6146 171.053 86.7407 172.433 87.7609 174.705Z" fill="white" stroke="#020B18"/>
</svg>
