<svg width="497" height="399" viewBox="0 0 497 399" fill="none" xmlns="http://www.w3.org/2000/svg">
<mask id="mask0_4_3956" style="mask-type:luminance" maskUnits="userSpaceOnUse" x="0" y="0" width="497" height="399">
<path d="M497 0H0V398.827H497V0Z" fill="white"/>
</mask>
<g mask="url(#mask0_4_3956)">
<path d="M437.316 262.325L434.108 257C435.664 255.821 436.904 255.46 438.216 255.46C438.648 255.46 439.089 255.499 439.551 255.561C441.329 255.803 442.961 256.876 444.153 258.228L437.239 262.165L437.317 262.325H437.316Z" fill="#B6EAFE"/>
<path d="M82.404 458.248H-6.91699V112.044H82.404V458.248Z" fill="#FAFAF9"/>
<path d="M439.955 449.023H289.68V284.147H439.955V449.023Z" fill="#020D1E"/>
<path d="M432.017 357.883H267.739V317.124H432.017V357.883Z" fill="#003A5D"/>
<path d="M307.377 330.495H275.031V325.52H307.377V330.495Z" fill="#020D1E"/>
<path d="M307.377 339.058H275.031V334.083H307.377V339.058Z" fill="#020D1E"/>
<path d="M307.377 347.914H275.031V342.937H307.377V347.914Z" fill="#020D1E"/>
<path d="M320.169 328.527C320.169 329.551 319.339 330.383 318.313 330.383C317.289 330.383 316.459 329.551 316.459 328.527C316.459 327.502 317.289 326.671 318.313 326.671C319.339 326.671 320.169 327.502 320.169 328.527Z" fill="#020D1E"/>
<path d="M328.357 328.527C328.357 329.551 327.525 330.383 326.501 330.383C325.476 330.383 324.645 329.551 324.645 328.527C324.645 327.502 325.476 326.671 326.501 326.671C327.525 326.671 328.357 327.502 328.357 328.527Z" fill="#020D1E"/>
<path d="M336.545 328.527C336.545 329.551 335.715 330.383 334.691 330.383C333.665 330.383 332.835 329.551 332.835 328.527C332.835 327.502 333.665 326.671 334.691 326.671C335.715 326.671 336.545 327.502 336.545 328.527Z" fill="#020D1E"/>
<path d="M344.735 328.527C344.735 329.551 343.904 330.383 342.879 330.383C341.855 330.383 341.024 329.551 341.024 328.527C341.024 327.502 341.855 326.671 342.879 326.671C343.904 326.671 344.735 327.502 344.735 328.527Z" fill="#020D1E"/>
<path d="M408.187 328.527C408.187 329.551 407.356 330.383 406.331 330.383C405.305 330.383 404.475 329.551 404.475 328.527C404.475 327.502 405.305 326.671 406.331 326.671C407.356 326.671 408.187 327.502 408.187 328.527Z" fill="#020D1E"/>
<path d="M416.535 328.527C416.535 329.551 415.704 330.383 414.68 330.383C413.655 330.383 412.824 329.551 412.824 328.527C412.824 327.502 413.655 326.671 414.68 326.671C415.704 326.671 416.535 327.502 416.535 328.527Z" fill="#020D1E"/>
<path d="M352.921 328.527C352.921 329.551 352.091 330.383 351.067 330.383C350.041 330.383 349.211 329.551 349.211 328.527C349.211 327.502 350.041 326.671 351.067 326.671C352.091 326.671 352.921 327.502 352.921 328.527Z" fill="#020D1E"/>
<path d="M393.135 328.527C393.135 329.551 392.303 330.383 391.279 330.383C390.253 330.383 389.423 329.551 389.423 328.527C389.423 327.502 390.253 326.671 391.279 326.671C392.303 326.671 393.135 327.502 393.135 328.527Z" fill="#020D1E"/>
<path d="M361.111 328.527C361.111 329.551 360.28 330.383 359.255 330.383C358.231 330.383 357.4 329.551 357.4 328.527C357.4 327.502 358.231 326.671 359.255 326.671C360.28 326.671 361.111 327.502 361.111 328.527Z" fill="#F3F2F1"/>
<path d="M369.299 328.527C369.299 329.551 368.468 330.383 367.443 330.383C366.417 330.383 365.587 329.551 365.587 328.527C365.587 327.502 366.417 326.671 367.443 326.671C368.468 326.671 369.299 327.502 369.299 328.527Z" fill="#F3F2F1"/>
<path d="M385.912 328.527C385.912 329.551 385.08 330.383 384.056 330.383C383.031 330.383 382.2 329.551 382.2 328.527C382.2 327.502 383.031 326.671 384.056 326.671C385.08 326.671 385.912 327.502 385.912 328.527Z" fill="#F3F2F1"/>
<path d="M423.329 328.527C423.329 329.551 422.499 330.383 421.473 330.383C420.449 330.383 419.619 329.551 419.619 328.527C419.619 327.502 420.449 326.671 421.473 326.671C422.499 326.671 423.329 327.502 423.329 328.527Z" fill="#F3F2F1"/>
<path d="M377.487 328.527C377.487 329.551 376.656 330.383 375.632 330.383C374.607 330.383 373.776 329.551 373.776 328.527C373.776 327.502 374.607 326.671 375.632 326.671C376.656 326.671 377.487 327.502 377.487 328.527Z" fill="#B6EAFE"/>
<path d="M400.931 328.527C400.931 329.551 400.1 330.383 399.076 330.383C398.051 330.383 397.22 329.551 397.22 328.527C397.22 327.502 398.051 326.671 399.076 326.671C400.1 326.671 400.931 327.502 400.931 328.527Z" fill="#B6EAFE"/>
<path d="M419.619 337.469C419.619 336.444 420.449 335.614 421.473 335.614C422.499 335.614 423.329 336.444 423.329 337.469C423.329 338.493 422.499 339.326 421.473 339.326C420.449 339.326 419.619 338.493 419.619 337.469Z" fill="#020D1E"/>
<path d="M411.429 337.469C411.429 336.444 412.26 335.614 413.285 335.614C414.309 335.614 415.14 336.444 415.14 337.469C415.14 338.493 414.309 339.326 413.285 339.326C412.26 339.326 411.429 338.493 411.429 337.469Z" fill="#020D1E"/>
<path d="M403.243 337.469C403.243 336.444 404.073 335.614 405.097 335.614C406.123 335.614 406.953 336.444 406.953 337.469C406.953 338.493 406.123 339.326 405.097 339.326C404.073 339.326 403.243 338.493 403.243 337.469Z" fill="#020D1E"/>
<path d="M395.053 337.469C395.053 336.444 395.884 335.614 396.909 335.614C397.933 335.614 398.764 336.444 398.764 337.469C398.764 338.493 397.933 339.326 396.909 339.326C395.884 339.326 395.053 338.493 395.053 337.469Z" fill="#020D1E"/>
<path d="M331.601 337.469C331.601 336.444 332.432 335.614 333.457 335.614C334.481 335.614 335.312 336.444 335.312 337.469C335.312 338.493 334.481 339.326 333.457 339.326C332.432 339.326 331.601 338.493 331.601 337.469Z" fill="#020D1E"/>
<path d="M323.251 337.469C323.251 336.444 324.081 335.614 325.107 335.614C326.132 335.614 326.963 336.444 326.963 337.469C326.963 338.493 326.132 339.326 325.107 339.326C324.081 339.326 323.251 338.493 323.251 337.469Z" fill="#020D1E"/>
<path d="M386.865 337.469C386.865 336.444 387.696 335.614 388.721 335.614C389.747 335.614 390.577 336.444 390.577 337.469C390.577 338.493 389.747 339.326 388.721 339.326C387.696 339.326 386.865 338.493 386.865 337.469Z" fill="#020D1E"/>
<path d="M346.652 337.469C346.652 336.444 347.483 335.614 348.508 335.614C349.532 335.614 350.363 336.444 350.363 337.469C350.363 338.493 349.532 339.326 348.508 339.326C347.483 339.326 346.652 338.493 346.652 337.469Z" fill="#020D1E"/>
<path d="M378.677 337.469C378.677 336.444 379.508 335.614 380.532 335.614C381.557 335.614 382.388 336.444 382.388 337.469C382.388 338.493 381.557 339.326 380.532 339.326C379.508 339.326 378.677 338.493 378.677 337.469Z" fill="#F3F2F1"/>
<path d="M370.488 337.469C370.488 336.444 371.319 335.614 372.344 335.614C373.368 335.614 374.199 336.444 374.199 337.469C374.199 338.493 373.368 339.326 372.344 339.326C371.319 339.326 370.488 338.493 370.488 337.469Z" fill="#F3F2F1"/>
<path d="M353.876 337.469C353.876 336.444 354.707 335.614 355.732 335.614C356.756 335.614 357.587 336.444 357.587 337.469C357.587 338.493 356.756 339.326 355.732 339.326C354.707 339.326 353.876 338.493 353.876 337.469Z" fill="#F3F2F1"/>
<path d="M316.459 337.469C316.459 336.444 317.289 335.614 318.313 335.614C319.339 335.614 320.169 336.444 320.169 337.469C320.169 338.493 319.339 339.326 318.313 339.326C317.289 339.326 316.459 338.493 316.459 337.469Z" fill="#F3F2F1"/>
<path d="M362.301 337.469C362.301 336.444 363.132 335.614 364.156 335.614C365.181 335.614 366.012 336.444 366.012 337.469C366.012 338.493 365.181 339.326 364.156 339.326C363.132 339.326 362.301 338.493 362.301 337.469Z" fill="#B6EAFE"/>
<path d="M338.856 337.469C338.856 336.444 339.688 335.614 340.712 335.614C341.737 335.614 342.568 336.444 342.568 337.469C342.568 338.493 341.737 339.326 340.712 339.326C339.688 339.326 338.856 338.493 338.856 337.469Z" fill="#B6EAFE"/>
<path d="M320.169 345.425C320.169 346.448 319.339 347.279 318.313 347.279C317.289 347.279 316.459 346.448 316.459 345.425C316.459 344.399 317.289 343.569 318.313 343.569C319.339 343.569 320.169 344.399 320.169 345.425Z" fill="#020D1E"/>
<path d="M328.357 345.425C328.357 346.448 327.525 347.279 326.501 347.279C325.476 347.279 324.645 346.448 324.645 345.425C324.645 344.399 325.476 343.569 326.501 343.569C327.525 343.569 328.357 344.399 328.357 345.425Z" fill="#020D1E"/>
<path d="M336.545 345.425C336.545 346.448 335.715 347.279 334.691 347.279C333.665 347.279 332.835 346.448 332.835 345.425C332.835 344.399 333.665 343.569 334.691 343.569C335.715 343.569 336.545 344.399 336.545 345.425Z" fill="#020D1E"/>
<path d="M344.735 345.425C344.735 346.448 343.904 347.279 342.879 347.279C341.855 347.279 341.024 346.448 341.024 345.425C341.024 344.399 341.855 343.569 342.879 343.569C343.904 343.569 344.735 344.399 344.735 345.425Z" fill="#020D1E"/>
<path d="M408.187 345.425C408.187 346.448 407.356 347.279 406.331 347.279C405.305 347.279 404.475 346.448 404.475 345.425C404.475 344.399 405.305 343.569 406.331 343.569C407.356 343.569 408.187 344.399 408.187 345.425Z" fill="#020D1E"/>
<path d="M416.535 345.425C416.535 346.448 415.704 347.279 414.68 347.279C413.655 347.279 412.824 346.448 412.824 345.425C412.824 344.399 413.655 343.569 414.68 343.569C415.704 343.569 416.535 344.399 416.535 345.425Z" fill="#020D1E"/>
<path d="M352.921 345.425C352.921 346.448 352.091 347.279 351.067 347.279C350.041 347.279 349.211 346.448 349.211 345.425C349.211 344.399 350.041 343.569 351.067 343.569C352.091 343.569 352.921 344.399 352.921 345.425Z" fill="#020D1E"/>
<path d="M393.135 345.425C393.135 346.448 392.303 347.279 391.279 347.279C390.253 347.279 389.423 346.448 389.423 345.425C389.423 344.399 390.253 343.569 391.279 343.569C392.303 343.569 393.135 344.399 393.135 345.425Z" fill="#020D1E"/>
<path d="M361.111 345.425C361.111 346.448 360.28 347.279 359.255 347.279C358.231 347.279 357.4 346.448 357.4 345.425C357.4 344.399 358.231 343.569 359.255 343.569C360.28 343.569 361.111 344.399 361.111 345.425Z" fill="#F3F2F1"/>
<path d="M369.299 345.425C369.299 346.448 368.468 347.279 367.443 347.279C366.417 347.279 365.587 346.448 365.587 345.425C365.587 344.399 366.417 343.569 367.443 343.569C368.468 343.569 369.299 344.399 369.299 345.425Z" fill="#F3F2F1"/>
<path d="M385.912 345.425C385.912 346.448 385.08 347.279 384.056 347.279C383.031 347.279 382.2 346.448 382.2 345.425C382.2 344.399 383.031 343.569 384.056 343.569C385.08 343.569 385.912 344.399 385.912 345.425Z" fill="#F3F2F1"/>
<path d="M423.329 345.425C423.329 346.448 422.499 347.279 421.473 347.279C420.449 347.279 419.619 346.448 419.619 345.425C419.619 344.399 420.449 343.569 421.473 343.569C422.499 343.569 423.329 344.399 423.329 345.425Z" fill="#F3F2F1"/>
<path d="M377.487 345.425C377.487 346.448 376.656 347.279 375.632 347.279C374.607 347.279 373.776 346.448 373.776 345.425C373.776 344.399 374.607 343.569 375.632 343.569C376.656 343.569 377.487 344.399 377.487 345.425Z" fill="#B6EAFE"/>
<path d="M400.931 345.425C400.931 346.448 400.1 347.279 399.076 347.279C398.051 347.279 397.22 346.448 397.22 345.425C397.22 344.399 398.051 343.569 399.076 343.569C400.1 343.569 400.931 344.399 400.931 345.425Z" fill="#B6EAFE"/>
<path d="M432.017 408.179H267.739V367.421H432.017V408.179Z" fill="#003A5D"/>
<path d="M319.761 378.418C319.761 379.442 318.931 380.272 317.907 380.272C316.881 380.272 316.051 379.442 316.051 378.418C316.051 377.392 316.881 376.562 317.907 376.562C318.931 376.562 319.761 377.392 319.761 378.418Z" fill="#020D1E"/>
<path d="M327.951 378.418C327.951 379.442 327.12 380.272 326.095 380.272C325.071 380.272 324.24 379.442 324.24 378.418C324.24 377.392 325.071 376.562 326.095 376.562C327.12 376.562 327.951 377.392 327.951 378.418Z" fill="#020D1E"/>
<path d="M336.139 378.418C336.139 379.442 335.308 380.272 334.284 380.272C333.259 380.272 332.428 379.442 332.428 378.418C332.428 377.392 333.259 376.562 334.284 376.562C335.308 376.562 336.139 377.392 336.139 378.418Z" fill="#020D1E"/>
<path d="M344.327 378.418C344.327 379.442 343.496 380.272 342.471 380.272C341.447 380.272 340.616 379.442 340.616 378.418C340.616 377.392 341.447 376.562 342.471 376.562C343.496 376.562 344.327 377.392 344.327 378.418Z" fill="#020D1E"/>
<path d="M407.779 378.418C407.779 379.442 406.948 380.272 405.923 380.272C404.899 380.272 404.068 379.442 404.068 378.418C404.068 377.392 404.899 376.562 405.923 376.562C406.948 376.562 407.779 377.392 407.779 378.418Z" fill="#020D1E"/>
<path d="M416.129 378.418C416.129 379.442 415.299 380.272 414.273 380.272C413.248 380.272 412.417 379.442 412.417 378.418C412.417 377.392 413.248 376.562 414.273 376.562C415.299 376.562 416.129 377.392 416.129 378.418Z" fill="#020D1E"/>
<path d="M352.516 378.418C352.516 379.442 351.685 380.272 350.66 380.272C349.636 380.272 348.804 379.442 348.804 378.418C348.804 377.392 349.636 376.562 350.66 376.562C351.685 376.562 352.516 377.392 352.516 378.418Z" fill="#020D1E"/>
<path d="M392.728 378.418C392.728 379.442 391.897 380.272 390.872 380.272C389.848 380.272 389.017 379.442 389.017 378.418C389.017 377.392 389.848 376.562 390.872 376.562C391.897 376.562 392.728 377.392 392.728 378.418Z" fill="#020D1E"/>
<path d="M360.703 378.418C360.703 379.442 359.872 380.272 358.848 380.272C357.823 380.272 356.992 379.442 356.992 378.418C356.992 377.392 357.823 376.562 358.848 376.562C359.872 376.562 360.703 377.392 360.703 378.418Z" fill="#F3F2F1"/>
<path d="M368.892 378.418C368.892 379.442 368.061 380.272 367.036 380.272C366.012 380.272 365.181 379.442 365.181 378.418C365.181 377.392 366.012 376.562 367.036 376.562C368.061 376.562 368.892 377.392 368.892 378.418Z" fill="#F3F2F1"/>
<path d="M385.505 378.418C385.505 379.442 384.675 380.272 383.649 380.272C382.625 380.272 381.795 379.442 381.795 378.418C381.795 377.392 382.625 376.562 383.649 376.562C384.675 376.562 385.505 377.392 385.505 378.418Z" fill="#F3F2F1"/>
<path d="M422.923 378.418C422.923 379.442 422.092 380.272 421.068 380.272C420.043 380.272 419.211 379.442 419.211 378.418C419.211 377.392 420.043 376.562 421.068 376.562C422.092 376.562 422.923 377.392 422.923 378.418Z" fill="#F3F2F1"/>
<path d="M377.08 378.418C377.08 379.442 376.249 380.272 375.224 380.272C374.199 380.272 373.368 379.442 373.368 378.418C373.368 377.392 374.199 376.562 375.224 376.562C376.249 376.562 377.08 377.392 377.08 378.418Z" fill="#B6EAFE"/>
<path d="M400.524 378.418C400.524 379.442 399.693 380.272 398.669 380.272C397.644 380.272 396.813 379.442 396.813 378.418C396.813 377.392 397.644 376.562 398.669 376.562C399.693 376.562 400.524 377.392 400.524 378.418Z" fill="#B6EAFE"/>
<path d="M419.211 387.363C419.211 386.337 420.043 385.506 421.068 385.506C422.092 385.506 422.923 386.337 422.923 387.363C422.923 388.386 422.092 389.218 421.068 389.218C420.043 389.218 419.211 388.386 419.211 387.363Z" fill="#020D1E"/>
<path d="M411.024 387.363C411.024 386.337 411.855 385.506 412.879 385.506C413.904 385.506 414.735 386.337 414.735 387.363C414.735 388.386 413.904 389.218 412.879 389.218C411.855 389.218 411.024 388.386 411.024 387.363Z" fill="#020D1E"/>
<path d="M402.835 387.363C402.835 386.337 403.665 385.506 404.691 385.506C405.715 385.506 406.545 386.337 406.545 387.363C406.545 388.386 405.715 389.218 404.691 389.218C403.665 389.218 402.835 388.386 402.835 387.363Z" fill="#020D1E"/>
<path d="M394.647 387.363C394.647 386.337 395.477 385.506 396.503 385.506C397.527 385.506 398.357 386.337 398.357 387.363C398.357 388.386 397.527 389.218 396.503 389.218C395.477 389.218 394.647 388.386 394.647 387.363Z" fill="#020D1E"/>
<path d="M331.195 387.363C331.195 386.337 332.025 385.506 333.051 385.506C334.076 385.506 334.907 386.337 334.907 387.363C334.907 388.386 334.076 389.218 333.051 389.218C332.025 389.218 331.195 388.386 331.195 387.363Z" fill="#020D1E"/>
<path d="M322.845 387.363C322.845 386.337 323.676 385.506 324.7 385.506C325.725 385.506 326.556 386.337 326.556 387.363C326.556 388.386 325.725 389.218 324.7 389.218C323.676 389.218 322.845 388.386 322.845 387.363Z" fill="#020D1E"/>
<path d="M386.459 387.363C386.459 386.337 387.289 385.506 388.313 385.506C389.339 385.506 390.169 386.337 390.169 387.363C390.169 388.386 389.339 389.218 388.313 389.218C387.289 389.218 386.459 388.386 386.459 387.363Z" fill="#020D1E"/>
<path d="M346.247 387.363C346.247 386.337 347.077 385.506 348.101 385.506C349.127 385.506 349.957 386.337 349.957 387.363C349.957 388.386 349.127 389.218 348.101 389.218C347.077 389.218 346.247 388.386 346.247 387.363Z" fill="#020D1E"/>
<path d="M378.271 387.363C378.271 386.337 379.101 385.506 380.127 385.506C381.151 385.506 381.981 386.337 381.981 387.363C381.981 388.386 381.151 389.218 380.127 389.218C379.101 389.218 378.271 388.386 378.271 387.363Z" fill="#F3F2F1"/>
<path d="M370.081 387.363C370.081 386.337 370.913 385.506 371.937 385.506C372.963 385.506 373.793 386.337 373.793 387.363C373.793 388.386 372.963 389.218 371.937 389.218C370.913 389.218 370.081 388.386 370.081 387.363Z" fill="#F3F2F1"/>
<path d="M353.469 387.363C353.469 386.337 354.3 385.506 355.324 385.506C356.349 385.506 357.18 386.337 357.18 387.363C357.18 388.386 356.349 389.218 355.324 389.218C354.3 389.218 353.469 388.386 353.469 387.363Z" fill="#F3F2F1"/>
<path d="M316.051 387.363C316.051 386.337 316.881 385.506 317.907 385.506C318.931 385.506 319.761 386.337 319.761 387.363C319.761 388.386 318.931 389.218 317.907 389.218C316.881 389.218 316.051 388.386 316.051 387.363Z" fill="#F3F2F1"/>
<path d="M361.893 387.363C361.893 386.337 362.724 385.506 363.748 385.506C364.773 385.506 365.604 386.337 365.604 387.363C365.604 388.386 364.773 389.218 363.748 389.218C362.724 389.218 361.893 388.386 361.893 387.363Z" fill="#B6EAFE"/>
<path d="M338.449 387.363C338.449 386.337 339.28 385.506 340.304 385.506C341.329 385.506 342.16 386.337 342.16 387.363C342.16 388.386 341.329 389.218 340.304 389.218C339.28 389.218 338.449 388.386 338.449 387.363Z" fill="#B6EAFE"/>
<path d="M319.761 395.316C319.761 396.34 318.931 397.17 317.907 397.17C316.881 397.17 316.051 396.34 316.051 395.316C316.051 394.291 316.881 393.46 317.907 393.46C318.931 393.46 319.761 394.291 319.761 395.316Z" fill="#020D1E"/>
<path d="M327.951 395.316C327.951 396.34 327.12 397.17 326.095 397.17C325.071 397.17 324.24 396.34 324.24 395.316C324.24 394.291 325.071 393.46 326.095 393.46C327.12 393.46 327.951 394.291 327.951 395.316Z" fill="#020D1E"/>
<path d="M336.139 395.316C336.139 396.34 335.308 397.17 334.284 397.17C333.259 397.17 332.428 396.34 332.428 395.316C332.428 394.291 333.259 393.46 334.284 393.46C335.308 393.46 336.139 394.291 336.139 395.316Z" fill="#020D1E"/>
<path d="M344.327 395.316C344.327 396.34 343.496 397.17 342.471 397.17C341.447 397.17 340.616 396.34 340.616 395.316C340.616 394.291 341.447 393.46 342.471 393.46C343.496 393.46 344.327 394.291 344.327 395.316Z" fill="#020D1E"/>
<path d="M407.779 395.316C407.779 396.34 406.948 397.17 405.923 397.17C404.899 397.17 404.068 396.34 404.068 395.316C404.068 394.291 404.899 393.46 405.923 393.46C406.948 393.46 407.779 394.291 407.779 395.316Z" fill="#020D1E"/>
<path d="M416.129 395.316C416.129 396.34 415.299 397.17 414.273 397.17C413.248 397.17 412.417 396.34 412.417 395.316C412.417 394.291 413.248 393.46 414.273 393.46C415.299 393.46 416.129 394.291 416.129 395.316Z" fill="#020D1E"/>
<path d="M352.516 395.316C352.516 396.34 351.685 397.17 350.66 397.17C349.636 397.17 348.804 396.34 348.804 395.316C348.804 394.291 349.636 393.46 350.66 393.46C351.685 393.46 352.516 394.291 352.516 395.316Z" fill="#020D1E"/>
<path d="M392.728 395.316C392.728 396.34 391.897 397.17 390.872 397.17C389.848 397.17 389.017 396.34 389.017 395.316C389.017 394.291 389.848 393.46 390.872 393.46C391.897 393.46 392.728 394.291 392.728 395.316Z" fill="#020D1E"/>
<path d="M360.703 395.316C360.703 396.34 359.872 397.17 358.848 397.17C357.823 397.17 356.992 396.34 356.992 395.316C356.992 394.291 357.823 393.46 358.848 393.46C359.872 393.46 360.703 394.291 360.703 395.316Z" fill="#F3F2F1"/>
<path d="M368.892 395.316C368.892 396.34 368.061 397.17 367.036 397.17C366.012 397.17 365.181 396.34 365.181 395.316C365.181 394.291 366.012 393.46 367.036 393.46C368.061 393.46 368.892 394.291 368.892 395.316Z" fill="#F3F2F1"/>
<path d="M385.505 395.316C385.505 396.34 384.675 397.17 383.649 397.17C382.625 397.17 381.795 396.34 381.795 395.316C381.795 394.291 382.625 393.46 383.649 393.46C384.675 393.46 385.505 394.291 385.505 395.316Z" fill="#F3F2F1"/>
<path d="M422.923 395.316C422.923 396.34 422.092 397.17 421.068 397.17C420.043 397.17 419.211 396.34 419.211 395.316C419.211 394.291 420.043 393.46 421.068 393.46C422.092 393.46 422.923 394.291 422.923 395.316Z" fill="#F3F2F1"/>
<path d="M377.08 395.316C377.08 396.34 376.249 397.17 375.224 397.17C374.199 397.17 373.368 396.34 373.368 395.316C373.368 394.291 374.199 393.46 375.224 393.46C376.249 393.46 377.08 394.291 377.08 395.316Z" fill="#B6EAFE"/>
<path d="M400.524 395.316C400.524 396.34 399.693 397.17 398.669 397.17C397.644 397.17 396.813 396.34 396.813 395.316C396.813 394.291 397.644 393.46 398.669 393.46C399.693 393.46 400.524 394.291 400.524 395.316Z" fill="#B6EAFE"/>
<path d="M307.377 380.791H275.031V375.815H307.377V380.791Z" fill="#020D1E"/>
<path d="M307.377 389.354H275.031V384.378H307.377V389.354Z" fill="#020D1E"/>
<path d="M307.377 398.208H275.031V393.232H307.377V398.208Z" fill="#020D1E"/>
<path d="M456.713 357.816L432.017 357.883V317.124L456.713 317.059V357.816Z" fill="#020D1E"/>
<path d="M456.713 308.26L432.017 308.325V267.568L456.713 267.501V308.26Z" fill="#020D1E"/>
<path d="M456.713 407.795L432.017 407.861V367.104L456.713 367.039V407.795Z" fill="#020D1E"/>
<path d="M433.205 307.947H268.927V267.19H433.205V307.947Z" fill="#003A5D"/>
<path d="M308.568 280.562H276.221V275.586H308.568V280.562Z" fill="#020D1E"/>
<path d="M308.568 289.123H276.221V284.147H308.568V289.123Z" fill="#020D1E"/>
<path d="M308.568 297.979H276.221V293.002H308.568V297.979Z" fill="#020D1E"/>
<path d="M321.357 278.591C321.357 279.615 320.527 280.446 319.503 280.446C318.477 280.446 317.647 279.615 317.647 278.591C317.647 277.566 318.477 276.735 319.503 276.735C320.527 276.735 321.357 277.566 321.357 278.591Z" fill="#020D1E"/>
<path d="M329.547 278.591C329.547 279.615 328.716 280.446 327.691 280.446C326.667 280.446 325.836 279.615 325.836 278.591C325.836 277.566 326.667 276.735 327.691 276.735C328.716 276.735 329.547 277.566 329.547 278.591Z" fill="#020D1E"/>
<path d="M337.736 278.591C337.736 279.615 336.905 280.446 335.879 280.446C334.856 280.446 334.024 279.615 334.024 278.591C334.024 277.566 334.856 276.735 335.879 276.735C336.905 276.735 337.736 277.566 337.736 278.591Z" fill="#020D1E"/>
<path d="M345.923 278.591C345.923 279.615 345.092 280.446 344.068 280.446C343.043 280.446 342.212 279.615 342.212 278.591C342.212 277.566 343.043 276.735 344.068 276.735C345.092 276.735 345.923 277.566 345.923 278.591Z" fill="#020D1E"/>
<path d="M409.375 278.591C409.375 279.615 408.544 280.446 407.52 280.446C406.495 280.446 405.664 279.615 405.664 278.591C405.664 277.566 406.495 276.735 407.52 276.735C408.544 276.735 409.375 277.566 409.375 278.591Z" fill="#020D1E"/>
<path d="M417.725 278.591C417.725 279.615 416.895 280.446 415.869 280.446C414.845 280.446 414.015 279.615 414.015 278.591C414.015 277.566 414.845 276.735 415.869 276.735C416.895 276.735 417.725 277.566 417.725 278.591Z" fill="#020D1E"/>
<path d="M354.112 278.591C354.112 279.615 353.281 280.446 352.256 280.446C351.232 280.446 350.401 279.615 350.401 278.591C350.401 277.566 351.232 276.735 352.256 276.735C353.281 276.735 354.112 277.566 354.112 278.591Z" fill="#020D1E"/>
<path d="M394.324 278.591C394.324 279.615 393.493 280.446 392.469 280.446C391.444 280.446 390.613 279.615 390.613 278.591C390.613 277.566 391.444 276.735 392.469 276.735C393.493 276.735 394.324 277.566 394.324 278.591Z" fill="#020D1E"/>
<path d="M362.3 278.591C362.3 279.615 361.469 280.446 360.444 280.446C359.419 280.446 358.588 279.615 358.588 278.591C358.588 277.566 359.419 276.735 360.444 276.735C361.469 276.735 362.3 277.566 362.3 278.591Z" fill="#F3F2F1"/>
<path d="M370.488 278.591C370.488 279.615 369.657 280.446 368.633 280.446C367.608 280.446 366.777 279.615 366.777 278.591C366.777 277.566 367.608 276.735 368.633 276.735C369.657 276.735 370.488 277.566 370.488 278.591Z" fill="#F3F2F1"/>
<path d="M387.101 278.591C387.101 279.615 386.271 280.446 385.247 280.446C384.221 280.446 383.391 279.615 383.391 278.591C383.391 277.566 384.221 276.735 385.247 276.735C386.271 276.735 387.101 277.566 387.101 278.591Z" fill="#F3F2F1"/>
<path d="M424.52 278.591C424.52 279.615 423.689 280.446 422.663 280.446C421.639 280.446 420.807 279.615 420.807 278.591C420.807 277.566 421.639 276.735 422.663 276.735C423.689 276.735 424.52 277.566 424.52 278.591Z" fill="#F3F2F1"/>
<path d="M378.677 278.591C378.677 279.615 377.845 280.446 376.821 280.446C375.796 280.446 374.965 279.615 374.965 278.591C374.965 277.566 375.796 276.735 376.821 276.735C377.845 276.735 378.677 277.566 378.677 278.591Z" fill="#B6EAFE"/>
<path d="M402.121 278.591C402.121 279.615 401.291 280.446 400.265 280.446C399.241 280.446 398.411 279.615 398.411 278.591C398.411 277.566 399.241 276.735 400.265 276.735C401.291 276.735 402.121 277.566 402.121 278.591Z" fill="#B6EAFE"/>
<path d="M420.807 287.536C420.807 286.511 421.639 285.68 422.663 285.68C423.689 285.68 424.52 286.511 424.52 287.536C424.52 288.56 423.689 289.391 422.663 289.391C421.639 289.391 420.807 288.56 420.807 287.536Z" fill="#020D1E"/>
<path d="M412.62 287.536C412.62 286.511 413.451 285.68 414.475 285.68C415.5 285.68 416.331 286.511 416.331 287.536C416.331 288.56 415.5 289.391 414.475 289.391C413.451 289.391 412.62 288.56 412.62 287.536Z" fill="#020D1E"/>
<path d="M404.431 287.536C404.431 286.511 405.261 285.68 406.287 285.68C407.311 285.68 408.141 286.511 408.141 287.536C408.141 288.56 407.311 289.391 406.287 289.391C405.261 289.391 404.431 288.56 404.431 287.536Z" fill="#020D1E"/>
<path d="M396.244 287.536C396.244 286.511 397.075 285.68 398.099 285.68C399.124 285.68 399.955 286.511 399.955 287.536C399.955 288.56 399.124 289.391 398.099 289.391C397.075 289.391 396.244 288.56 396.244 287.536Z" fill="#020D1E"/>
<path d="M332.792 287.536C332.792 286.511 333.623 285.68 334.647 285.68C335.672 285.68 336.503 286.511 336.503 287.536C336.503 288.56 335.672 289.391 334.647 289.391C333.623 289.391 332.792 288.56 332.792 287.536Z" fill="#020D1E"/>
<path d="M324.441 287.536C324.441 286.511 325.272 285.68 326.297 285.68C327.321 285.68 328.152 286.511 328.152 287.536C328.152 288.56 327.321 289.391 326.297 289.391C325.272 289.391 324.441 288.56 324.441 287.536Z" fill="#020D1E"/>
<path d="M388.055 287.536C388.055 286.511 388.885 285.68 389.911 285.68C390.935 285.68 391.765 286.511 391.765 287.536C391.765 288.56 390.935 289.391 389.911 289.391C388.885 289.391 388.055 288.56 388.055 287.536Z" fill="#020D1E"/>
<path d="M347.843 287.536C347.843 286.511 348.673 285.68 349.697 285.68C350.723 285.68 351.553 286.511 351.553 287.536C351.553 288.56 350.723 289.391 349.697 289.391C348.673 289.391 347.843 288.56 347.843 287.536Z" fill="#020D1E"/>
<path d="M379.867 287.536C379.867 286.511 380.696 285.68 381.723 285.68C382.747 285.68 383.579 286.511 383.579 287.536C383.579 288.56 382.747 289.391 381.723 289.391C380.696 289.391 379.867 288.56 379.867 287.536Z" fill="#F3F2F1"/>
<path d="M371.679 287.536C371.679 286.511 372.509 285.68 373.533 285.68C374.559 285.68 375.389 286.511 375.389 287.536C375.389 288.56 374.559 289.391 373.533 289.391C372.509 289.391 371.679 288.56 371.679 287.536Z" fill="#F3F2F1"/>
<path d="M355.065 287.536C355.065 286.511 355.896 285.68 356.92 285.68C357.945 285.68 358.776 286.511 358.776 287.536C358.776 288.56 357.945 289.391 356.92 289.391C355.896 289.391 355.065 288.56 355.065 287.536Z" fill="#F3F2F1"/>
<path d="M317.647 287.536C317.647 286.511 318.477 285.68 319.503 285.68C320.527 285.68 321.357 286.511 321.357 287.536C321.357 288.56 320.527 289.391 319.503 289.391C318.477 289.391 317.647 288.56 317.647 287.536Z" fill="#F3F2F1"/>
<path d="M363.489 287.536C363.489 286.511 364.32 285.68 365.345 285.68C366.369 285.68 367.2 286.511 367.2 287.536C367.2 288.56 366.369 289.391 365.345 289.391C364.32 289.391 363.489 288.56 363.489 287.536Z" fill="#B6EAFE"/>
<path d="M340.045 287.536C340.045 286.511 340.876 285.68 341.901 285.68C342.925 285.68 343.756 286.511 343.756 287.536C343.756 288.56 342.925 289.391 341.901 289.391C340.876 289.391 340.045 288.56 340.045 287.536Z" fill="#B6EAFE"/>
<path d="M321.357 295.491C321.357 296.515 320.527 297.345 319.503 297.345C318.477 297.345 317.647 296.515 317.647 295.491C317.647 294.465 318.477 293.635 319.503 293.635C320.527 293.635 321.357 294.465 321.357 295.491Z" fill="#020D1E"/>
<path d="M329.547 295.491C329.547 296.515 328.716 297.345 327.691 297.345C326.667 297.345 325.836 296.515 325.836 295.491C325.836 294.465 326.667 293.635 327.691 293.635C328.716 293.635 329.547 294.465 329.547 295.491Z" fill="#020D1E"/>
<path d="M337.736 295.491C337.736 296.515 336.905 297.345 335.879 297.345C334.856 297.345 334.024 296.515 334.024 295.491C334.024 294.465 334.856 293.635 335.879 293.635C336.905 293.635 337.736 294.465 337.736 295.491Z" fill="#020D1E"/>
<path d="M345.923 295.491C345.923 296.515 345.092 297.345 344.068 297.345C343.043 297.345 342.212 296.515 342.212 295.491C342.212 294.465 343.043 293.635 344.068 293.635C345.092 293.635 345.923 294.465 345.923 295.491Z" fill="#020D1E"/>
<path d="M409.375 295.491C409.375 296.515 408.544 297.345 407.52 297.345C406.495 297.345 405.664 296.515 405.664 295.491C405.664 294.465 406.495 293.635 407.52 293.635C408.544 293.635 409.375 294.465 409.375 295.491Z" fill="#020D1E"/>
<path d="M417.725 295.491C417.725 296.515 416.895 297.345 415.869 297.345C414.845 297.345 414.015 296.515 414.015 295.491C414.015 294.465 414.845 293.635 415.869 293.635C416.895 293.635 417.725 294.465 417.725 295.491Z" fill="#020D1E"/>
<path d="M354.112 295.491C354.112 296.515 353.281 297.345 352.256 297.345C351.232 297.345 350.401 296.515 350.401 295.491C350.401 294.465 351.232 293.635 352.256 293.635C353.281 293.635 354.112 294.465 354.112 295.491Z" fill="#020D1E"/>
<path d="M394.324 295.491C394.324 296.515 393.493 297.345 392.469 297.345C391.444 297.345 390.613 296.515 390.613 295.491C390.613 294.465 391.444 293.635 392.469 293.635C393.493 293.635 394.324 294.465 394.324 295.491Z" fill="#020D1E"/>
<path d="M362.3 295.491C362.3 296.515 361.469 297.345 360.444 297.345C359.419 297.345 358.588 296.515 358.588 295.491C358.588 294.465 359.419 293.635 360.444 293.635C361.469 293.635 362.3 294.465 362.3 295.491Z" fill="#F3F2F1"/>
<path d="M370.488 295.491C370.488 296.515 369.657 297.345 368.633 297.345C367.608 297.345 366.777 296.515 366.777 295.491C366.777 294.465 367.608 293.635 368.633 293.635C369.657 293.635 370.488 294.465 370.488 295.491Z" fill="#F3F2F1"/>
<path d="M387.101 295.491C387.101 296.515 386.271 297.345 385.247 297.345C384.221 297.345 383.391 296.515 383.391 295.491C383.391 294.465 384.221 293.635 385.247 293.635C386.271 293.635 387.101 294.465 387.101 295.491Z" fill="#F3F2F1"/>
<path d="M424.52 295.491C424.52 296.515 423.689 297.345 422.663 297.345C421.639 297.345 420.807 296.515 420.807 295.491C420.807 294.465 421.639 293.635 422.663 293.635C423.689 293.635 424.52 294.465 424.52 295.491Z" fill="#F3F2F1"/>
<path d="M378.677 295.491C378.677 296.515 377.845 297.345 376.821 297.345C375.796 297.345 374.965 296.515 374.965 295.491C374.965 294.465 375.796 293.635 376.821 293.635C377.845 293.635 378.677 294.465 378.677 295.491Z" fill="#B6EAFE"/>
<path d="M402.121 295.491C402.121 296.515 401.291 297.345 400.265 297.345C399.241 297.345 398.411 296.515 398.411 295.491C398.411 294.465 399.241 293.635 400.265 293.635C401.291 293.635 402.121 294.465 402.121 295.491Z" fill="#B6EAFE"/>
<path d="M157.101 457.743H28.2852V63.1426H157.101V457.743Z" fill="#E7E8E5"/>
<path d="M258.725 457.743H157.101L156.919 63.1426H258.725V457.743Z" fill="#DADBD8"/>
<path d="M144.689 126.297H35.417V157.06H144.689V126.297Z" fill="#020D1E"/>
<path d="M44.5868 153.708H38.4668V130.164H44.5868V153.708Z" fill="#003A5D"/>
<path d="M51.7948 135.116C51.7948 136.191 50.9238 137.062 49.8508 137.062C48.7758 137.062 47.9048 136.191 47.9048 135.116C47.9048 134.043 48.7758 133.172 49.8508 133.172C50.9238 133.172 51.7948 134.043 51.7948 135.116Z" fill="white"/>
<path d="M51.7948 143.435C51.7948 144.508 50.9238 145.38 49.8508 145.38C48.7758 145.38 47.9048 144.508 47.9048 143.435C47.9048 142.36 48.7758 141.49 49.8508 141.49C50.9238 141.49 51.7948 142.36 51.7948 143.435Z" fill="white"/>
<path d="M65.5799 151.257H59.5679V133.172H65.5799V151.257Z" fill="#003A5D"/>
<path d="M74.265 151.257H68.2529V133.172H74.265V151.257Z" fill="#003A5D"/>
<path d="M82.951 151.257H76.939V133.172H82.951V151.257Z" fill="#003A5D"/>
<path d="M91.636 151.257H85.624V133.172H91.636V151.257Z" fill="#003A5D"/>
<path d="M100.321 151.257H94.3081V133.172H100.321V151.257Z" fill="#003A5D"/>
<path d="M109.007 151.257H102.993V133.172H109.007V151.257Z" fill="#003A5D"/>
<path d="M117.692 151.257H111.679V133.172H117.692V151.257Z" fill="#003A5D"/>
<path d="M126.377 151.257H120.364V133.172H126.377V151.257Z" fill="#003A5D"/>
<path d="M135.063 151.257H129.049V133.172H135.063V151.257Z" fill="#003A5D"/>
<path d="M143.747 151.257H137.735V133.172H143.747V151.257Z" fill="#003A5D"/>
<path d="M144.689 170.49H35.417V201.254H144.689V170.49Z" fill="#020D1E"/>
<path d="M44.5868 197.902H38.4668V174.358H44.5868V197.902Z" fill="#003A5D"/>
<path d="M51.7948 179.31C51.7948 180.384 50.9238 181.255 49.8508 181.255C48.7758 181.255 47.9048 180.384 47.9048 179.31C47.9048 178.236 48.7758 177.366 49.8508 177.366C50.9238 177.366 51.7948 178.236 51.7948 179.31Z" fill="white"/>
<path d="M51.7948 187.631C51.7948 188.705 50.9238 189.575 49.8508 189.575C48.7758 189.575 47.9048 188.705 47.9048 187.631C47.9048 186.556 48.7758 185.685 49.8508 185.685C50.9238 185.685 51.7948 186.556 51.7948 187.631Z" fill="white"/>
<path d="M65.5799 195.451H59.5679V177.366H65.5799V195.451Z" fill="#003A5D"/>
<path d="M74.265 195.451H68.2529V177.366H74.265V195.451Z" fill="#003A5D"/>
<path d="M82.951 195.451H76.939V177.366H82.951V195.451Z" fill="#003A5D"/>
<path d="M91.636 195.451H85.624V177.366H91.636V195.451Z" fill="#003A5D"/>
<path d="M100.321 195.451H94.3081V177.366H100.321V195.451Z" fill="#003A5D"/>
<path d="M109.007 195.451H102.993V177.366H109.007V195.451Z" fill="#003A5D"/>
<path d="M117.692 195.451H111.679V177.366H117.692V195.451Z" fill="#003A5D"/>
<path d="M126.377 195.451H120.364V177.366H126.377V195.451Z" fill="#003A5D"/>
<path d="M135.063 195.451H129.049V177.366H135.063V195.451Z" fill="#003A5D"/>
<path d="M143.747 195.451H137.735V177.366H143.747V195.451Z" fill="#003A5D"/>
<path d="M144.689 215.04H35.417V245.803H144.689V215.04Z" fill="#020D1E"/>
<path d="M44.5868 242.45H38.4668V218.906H44.5868V242.45Z" fill="#003A5D"/>
<path d="M51.7948 223.86C51.7948 224.935 50.9238 225.804 49.8508 225.804C48.7758 225.804 47.9048 224.935 47.9048 223.86C47.9048 222.786 48.7758 221.915 49.8508 221.915C50.9238 221.915 51.7948 222.786 51.7948 223.86Z" fill="white"/>
<path d="M51.7948 232.178C51.7948 233.252 50.9238 234.122 49.8508 234.122C48.7758 234.122 47.9048 233.252 47.9048 232.178C47.9048 231.104 48.7758 230.232 49.8508 230.232C50.9238 230.232 51.7948 231.104 51.7948 232.178Z" fill="white"/>
<path d="M65.5799 240H59.5679V221.915H65.5799V240Z" fill="#003A5D"/>
<path d="M74.265 240H68.2529V221.915H74.265V240Z" fill="#003A5D"/>
<path d="M82.951 240H76.939V221.915H82.951V240Z" fill="#003A5D"/>
<path d="M91.636 240H85.624V221.915H91.636V240Z" fill="#003A5D"/>
<path d="M100.321 240H94.3081V221.915H100.321V240Z" fill="#003A5D"/>
<path d="M109.007 240H102.993V221.915H109.007V240Z" fill="#003A5D"/>
<path d="M117.692 240H111.679V221.915H117.692V240Z" fill="#003A5D"/>
<path d="M126.377 240H120.364V221.915H126.377V240Z" fill="#003A5D"/>
<path d="M135.063 240H129.049V221.915H135.063V240Z" fill="#003A5D"/>
<path d="M143.747 240H137.735V221.915H143.747V240Z" fill="#003A5D"/>
<path d="M144.689 263.161H35.417V293.927H144.689V263.161Z" fill="#020D1E"/>
<path d="M44.5868 290.574H38.4668V267.03H44.5868V290.574Z" fill="#003A5D"/>
<path d="M51.7948 271.983C51.7948 273.056 50.9238 273.928 49.8508 273.928C48.7758 273.928 47.9048 273.056 47.9048 271.983C47.9048 270.908 48.7758 270.039 49.8508 270.039C50.9238 270.039 51.7948 270.908 51.7948 271.983Z" fill="white"/>
<path d="M51.7948 280.3C51.7948 281.375 50.9238 282.246 49.8508 282.246C48.7758 282.246 47.9048 281.375 47.9048 280.3C47.9048 279.226 48.7758 278.356 49.8508 278.356C50.9238 278.356 51.7948 279.226 51.7948 280.3Z" fill="white"/>
<path d="M65.5799 288.123H59.5679V270.039H65.5799V288.123Z" fill="#003A5D"/>
<path d="M74.265 288.123H68.2529V270.039H74.265V288.123Z" fill="#003A5D"/>
<path d="M82.951 288.123H76.939V270.039H82.951V288.123Z" fill="#003A5D"/>
<path d="M91.636 288.123H85.624V270.039H91.636V288.123Z" fill="#003A5D"/>
<path d="M100.321 288.123H94.3081V270.039H100.321V288.123Z" fill="#003A5D"/>
<path d="M109.007 288.123H102.993V270.039H109.007V288.123Z" fill="#003A5D"/>
<path d="M117.692 288.123H111.679V270.039H117.692V288.123Z" fill="#003A5D"/>
<path d="M126.377 288.123H120.364V270.039H126.377V288.123Z" fill="#003A5D"/>
<path d="M135.063 288.123H129.049V270.039H135.063V288.123Z" fill="#003A5D"/>
<path d="M143.747 288.123H137.735V270.039H143.747V288.123Z" fill="#003A5D"/>
<path d="M144.689 311.761H35.417V342.525H144.689V311.761Z" fill="#020D1E"/>
<path d="M44.5868 339.173H38.4668V315.629H44.5868V339.173Z" fill="#003A5D"/>
<path d="M51.7948 320.582C51.7948 321.656 50.9238 322.527 49.8508 322.527C48.7758 322.527 47.9048 321.656 47.9048 320.582C47.9048 319.507 48.7758 318.638 49.8508 318.638C50.9238 318.638 51.7948 319.507 51.7948 320.582Z" fill="white"/>
<path d="M51.7948 328.9C51.7948 329.975 50.9238 330.846 49.8508 330.846C48.7758 330.846 47.9048 329.975 47.9048 328.9C47.9048 327.827 48.7758 326.956 49.8508 326.956C50.9238 326.956 51.7948 327.827 51.7948 328.9Z" fill="white"/>
<path d="M65.5799 336.721H59.5679V318.637H65.5799V336.721Z" fill="#003A5D"/>
<path d="M74.265 336.721H68.2529V318.637H74.265V336.721Z" fill="#003A5D"/>
<path d="M82.951 336.721H76.939V318.637H82.951V336.721Z" fill="#003A5D"/>
<path d="M91.636 336.721H85.624V318.637H91.636V336.721Z" fill="#003A5D"/>
<path d="M100.321 336.721H94.3081V318.637H100.321V336.721Z" fill="#003A5D"/>
<path d="M109.007 336.721H102.993V318.637H109.007V336.721Z" fill="#003A5D"/>
<path d="M117.692 336.721H111.679V318.637H117.692V336.721Z" fill="#003A5D"/>
<path d="M126.377 336.721H120.364V318.637H126.377V336.721Z" fill="#003A5D"/>
<path d="M135.063 336.721H129.049V318.637H135.063V336.721Z" fill="#003A5D"/>
<path d="M143.747 336.721H137.735V318.637H143.747V336.721Z" fill="#003A5D"/>
<path d="M144.689 360.164H35.417V390.928H144.689V360.164Z" fill="#020D1E"/>
<path d="M44.5868 387.575H38.4668V364.031H44.5868V387.575Z" fill="#003A5D"/>
<path d="M51.7948 368.984C51.7948 370.058 50.9238 370.93 49.8508 370.93C48.7758 370.93 47.9048 370.058 47.9048 368.984C47.9048 367.909 48.7758 367.04 49.8508 367.04C50.9238 367.04 51.7948 367.909 51.7948 368.984Z" fill="white"/>
<path d="M51.7948 377.302C51.7948 378.376 50.9238 379.247 49.8508 379.247C48.7758 379.247 47.9048 378.376 47.9048 377.302C47.9048 376.228 48.7758 375.358 49.8508 375.358C50.9238 375.358 51.7948 376.228 51.7948 377.302Z" fill="white"/>
<path d="M65.5799 385.125H59.5679V367.04H65.5799V385.125Z" fill="#003A5D"/>
<path d="M74.265 385.125H68.2529V367.04H74.265V385.125Z" fill="#003A5D"/>
<path d="M82.951 385.125H76.939V367.04H82.951V385.125Z" fill="#003A5D"/>
<path d="M91.636 385.125H85.624V367.04H91.636V385.125Z" fill="#003A5D"/>
<path d="M100.321 385.125H94.3081V367.04H100.321V385.125Z" fill="#003A5D"/>
<path d="M109.007 385.125H102.993V367.04H109.007V385.125Z" fill="#003A5D"/>
<path d="M117.692 385.125H111.679V367.04H117.692V385.125Z" fill="#003A5D"/>
<path d="M126.377 385.125H120.364V367.04H126.377V385.125Z" fill="#003A5D"/>
<path d="M135.063 385.125H129.049V367.04H135.063V385.125Z" fill="#003A5D"/>
<path d="M143.747 385.125H137.735V367.04H143.747V385.125Z" fill="#003A5D"/>
<path d="M102.995 126.296C102.971 126.298 102.929 125.97 102.884 125.346C102.84 124.722 102.804 123.799 102.776 122.612C102.745 121.427 102.724 119.975 102.645 118.298C102.547 116.626 102.437 114.698 101.897 112.683C101.321 110.676 100.408 108.524 98.9802 106.528C97.5672 104.528 95.5472 102.739 92.9892 101.711C90.4412 100.651 87.5192 100.256 84.4962 99.9842C81.4552 99.7222 78.3082 99.4482 75.0842 99.1702C62.1872 98.0512 50.4911 97.3362 42.0121 97.1832C37.7731 97.0922 34.3432 97.1202 31.9712 97.1342C30.8412 97.1472 29.9331 97.1582 29.2401 97.1642C28.6151 97.1662 28.2872 97.1552 28.2852 97.1312C28.2842 97.1062 28.6111 97.0712 29.2351 97.0262C29.9281 96.9842 30.8331 96.9312 31.9641 96.8632C34.3361 96.7672 37.7722 96.6642 42.0192 96.6922C50.5132 96.7192 62.2372 97.3582 75.1432 98.4782C78.3682 98.7622 81.5161 99.0392 84.5591 99.3072C87.5961 99.5902 90.5881 100 93.2361 101.12C95.9001 102.21 98.0152 104.116 99.4482 106.195C100.907 108.278 101.809 110.484 102.372 112.555C102.899 114.655 102.969 116.595 103.033 118.282C103.076 119.971 103.057 121.424 103.047 122.611C103.037 123.742 103.029 124.648 103.024 125.342C103.024 125.966 103.019 126.294 102.995 126.296Z" fill="#020D1E"/>
<path d="M69.8452 126.297C69.8212 126.297 69.8012 125.988 69.7812 125.4C69.7752 124.74 69.7652 123.887 69.7532 122.828C69.7452 121.713 69.7472 120.348 69.6272 118.777C69.4792 117.224 69.2362 115.405 68.2842 113.709C67.3312 112.023 65.4632 110.765 63.3452 109.908C61.2112 109.072 58.6882 108.739 56.1452 109.175C54.8812 109.395 53.6032 109.8 52.4292 110.439C51.2682 111.081 50.1762 111.979 49.5402 113.171C48.8752 114.351 48.8562 115.823 49.5512 117.032C50.2272 118.235 51.4482 119.18 52.8282 119.495C54.2092 119.835 55.6652 119.351 56.6642 118.385C57.6732 117.432 58.2872 116.081 58.3852 114.735C58.5192 113.373 58.0162 112.087 57.2412 110.999C56.4792 109.912 55.4712 109.027 54.3492 108.445C53.2392 107.824 51.9802 107.721 50.7362 107.515C49.5032 107.332 48.3042 107.171 47.1412 107.04C44.8162 106.779 42.6412 106.631 40.6522 106.549C36.6722 106.393 33.4412 106.457 31.2112 106.459C30.1522 106.457 29.2992 106.456 28.6392 106.456C28.0522 106.448 27.7432 106.432 27.7412 106.408C27.7412 106.384 28.0492 106.353 28.6362 106.316C29.2952 106.283 30.1472 106.241 31.2042 106.188C33.4352 106.104 36.6672 105.965 40.6682 106.059C42.6682 106.108 44.8592 106.231 47.2032 106.468C48.3752 106.585 49.5812 106.737 50.8252 106.911C51.4482 107.009 52.0652 107.087 52.7192 107.207C53.3812 107.335 54.0282 107.564 54.6402 107.876C55.8652 108.501 56.9522 109.447 57.7832 110.617C58.6162 111.757 59.2132 113.255 59.0642 114.788C58.9532 116.301 58.2842 117.797 57.1392 118.888C56.0192 119.989 54.2802 120.572 52.6732 120.172C51.0832 119.803 49.7242 118.747 48.9472 117.367C48.1362 115.988 48.1692 114.173 48.9402 112.851C49.6732 111.495 50.8692 110.539 52.1092 109.856C53.3692 109.181 54.7072 108.768 56.0392 108.544C58.7092 108.104 61.3392 108.477 63.5572 109.373C65.7452 110.284 67.6992 111.624 68.7112 113.467C69.6962 115.295 69.8992 117.169 70.0132 118.751C70.1002 120.347 70.0572 121.716 70.0242 122.832C69.9812 123.889 69.9482 124.743 69.9212 125.401C69.8952 125.988 69.8692 126.297 69.8452 126.297Z" fill="#020D1E"/>
<path d="M111.913 126.297C111.889 126.3 111.815 125.948 111.692 125.279C111.575 124.608 111.387 123.621 111.117 122.357C110.568 119.839 109.7 116.179 107.9 111.935C106.119 107.723 103.275 102.828 98.3911 99.1686C96.0111 97.3076 92.9372 96.2876 89.6732 95.8486C86.4112 95.3756 82.9572 95.3986 79.4272 95.2996C65.3072 95.0316 52.5072 95.0876 43.2472 94.7276C38.6172 94.5676 34.8751 94.3516 32.2911 94.1686C31.0521 94.0666 30.0642 93.9836 29.3192 93.9226C28.6392 93.8566 28.2842 93.8116 28.2852 93.7876C28.2872 93.7636 28.6452 93.7626 29.3282 93.7826C30.0752 93.8116 31.0651 93.8506 32.3051 93.8996C34.8921 93.9986 38.6351 94.1396 43.2611 94.2366C52.5131 94.4706 65.3032 94.3366 79.4412 94.6046C82.9682 94.7046 86.4362 94.6836 89.7722 95.1756C93.0882 95.6266 96.3162 96.7086 98.7762 98.6586C101.217 100.565 103.264 102.725 104.789 105.017C106.332 107.293 107.469 109.595 108.353 111.745C110.113 116.06 110.912 119.759 111.383 122.305C111.613 123.581 111.757 124.579 111.831 125.257C111.908 125.936 111.937 126.293 111.913 126.297Z" fill="#020D1E"/>
<path d="M143.187 83.4758H36.9199V68.0508H143.187V83.4758Z" fill="#020D1E"/>
<path d="M118.147 83.4757H60.292V75.7637H118.147V83.4757Z" fill="#003A5D"/>
<path d="M186.54 387.985C186.551 388.06 185.368 388.178 183.327 388.771C181.301 389.38 178.399 390.515 175.299 392.704C173.76 393.799 172.177 395.167 170.792 396.891C170.084 397.743 169.475 398.712 168.941 399.751C168.456 400.803 168.08 401.966 167.781 403.176C166.568 408.049 166.936 413.63 167.176 419.444C167.419 425.249 167.037 431.037 164.741 435.687C163.649 438.007 162.112 439.975 160.405 441.487C158.689 442.99 156.848 444.083 155.083 444.864C153.315 445.644 151.616 446.102 150.105 446.352C148.587 446.564 147.263 446.608 146.189 446.519C145.116 446.432 144.289 446.292 143.747 446.133C143.2 445.992 142.917 445.906 142.923 445.883C142.941 445.799 144.084 446.16 146.203 446.248C147.261 446.297 148.559 446.214 150.04 445.97C151.515 445.687 153.167 445.208 154.881 444.416C156.592 443.626 158.373 442.533 160.023 441.056C161.66 439.572 163.117 437.673 164.164 435.411C166.356 430.896 166.724 425.244 166.483 419.47C166.245 413.682 165.883 408.015 167.161 403.023C167.476 401.783 167.867 400.599 168.393 399.482C168.961 398.397 169.607 397.397 170.345 396.528C171.795 394.766 173.432 393.392 175.017 392.302C178.211 390.126 181.184 389.047 183.255 388.509C184.299 388.256 185.119 388.099 185.681 388.049C186.243 387.984 186.536 387.961 186.54 387.985Z" fill="#020D1E"/>
<path d="M235.459 414.784H186.54V361.187H235.459V414.784Z" fill="#003A5D"/>
<path d="M227.1 388.196C227.1 397.089 219.892 404.299 210.999 404.299C202.107 404.299 194.897 397.089 194.897 388.196C194.897 379.304 202.107 372.095 210.999 372.095C219.892 372.095 227.1 379.304 227.1 388.196Z" fill="#020D1E"/>
<path d="M219.049 388.196C219.049 392.642 215.445 396.247 210.999 396.247C206.553 396.247 202.948 392.642 202.948 388.196C202.948 383.751 206.553 380.146 210.999 380.146C215.445 380.146 219.049 383.751 219.049 388.196Z" fill="#003A5D"/>
<path d="M194.652 369.506C194.652 370.331 193.983 371 193.156 371C192.331 371 191.661 370.331 191.661 369.506C191.661 368.679 192.331 368.009 193.156 368.009C193.983 368.009 194.652 368.679 194.652 369.506Z" fill="#020D1E"/>
<path d="M229.472 369.506C229.472 370.331 228.803 371 227.976 371C227.151 371 226.48 370.331 226.48 369.506C226.48 368.679 227.151 368.009 227.976 368.009C228.803 368.009 229.472 368.679 229.472 369.506Z" fill="#020D1E"/>
<path d="M239.405 414.784H235.459V361.187H239.405V414.784Z" fill="#020D1E"/>
<path d="M454.889 291.152C454.889 291.14 455.051 291.13 455.365 291.118C455.715 291.108 456.177 291.096 456.761 291.082C458.031 291.067 459.831 291.044 462.128 291.018C464.457 291.028 467.315 290.936 470.488 290.042C473.644 289.17 477.115 287.564 480.28 284.902C483.384 282.211 486.295 278.551 487.895 273.956C488.36 272.834 488.603 271.62 488.924 270.412C489.099 269.175 489.379 267.926 489.383 266.632C489.528 264.06 489.415 261.347 489.444 258.6C489.435 247.578 489.427 235.466 489.417 222.751C489.417 219.572 489.417 216.43 489.419 213.332C489.427 211.776 489.424 210.258 489.244 208.772C489.047 207.288 488.731 205.824 488.213 204.443C486.249 198.863 481.907 194.479 476.907 192.376C471.881 190.079 466.472 190.864 461.605 190.652C456.709 190.603 452.145 190.556 447.975 190.515C439.672 190.411 432.94 190.326 428.237 190.266C425.94 190.222 424.14 190.188 422.872 190.163C422.287 190.144 421.825 190.131 421.476 190.119C421.161 190.106 421 190.092 421 190.08C421 190.068 421.161 190.058 421.477 190.048C421.827 190.042 422.288 190.034 422.873 190.024C424.141 190.018 425.941 190.008 428.239 189.996C432.941 190.003 439.675 190.012 447.979 190.024C452.149 190.039 456.713 190.058 461.609 190.076C464.061 190.091 466.597 190.107 469.208 190.123C471.855 190.144 474.58 190.696 477.157 191.788C482.32 193.939 486.815 198.451 488.855 204.215C489.389 205.64 489.719 207.154 489.925 208.688C490.113 210.23 490.116 211.796 490.109 213.332C490.109 216.43 490.109 219.572 490.111 222.751C490.101 235.466 490.092 247.578 490.084 258.6C490.045 261.362 490.151 264.024 489.992 266.667C489.98 267.99 489.691 269.268 489.504 270.532C489.172 271.768 488.916 273.007 488.435 274.152C486.773 278.843 483.779 282.563 480.596 285.278C477.349 287.967 473.801 289.568 470.588 290.415C467.364 291.288 464.445 291.34 462.128 291.288C459.831 291.259 458.031 291.238 456.761 291.223C456.176 291.208 455.715 291.196 455.365 291.188C455.051 291.176 454.889 291.164 454.889 291.152Z" fill="#1B2D55"/>
<path d="M428 247.003L438.064 260.149L457.228 251.671L444.969 232L428 247.003Z" fill="#DADBD8"/>
<path d="M433 251.928L433.308 258.432L439.647 261.404L439.323 254.74L433 251.928Z" fill="#1B2D55"/>
<path d="M439 248L439.309 254.504L445.647 257.478L445.323 250.814L439 248Z" fill="#1B2D55"/>
<path d="M445.855 244.523L446.163 251.027L452.5 253.999L452.176 247.335L445.855 244.523Z" fill="#1B2D55"/>
<path d="M456.969 252.975L454.78 249.633L436 261.515L440.429 268.933L441.66 268.318C447.12 265.537 469.225 253.791 472.139 250.663C475.387 247.175 456.969 252.975 456.969 252.975Z" fill="#B6EAFE"/>
<path d="M439.075 262.1C442.496 260.332 449.333 256.703 455.597 253.169C450.059 256.373 443.856 259.769 439.171 262.1H439.075ZM468.415 245.101C468.467 245.051 468.513 245.003 468.557 244.956C469.008 244.472 469.041 244.167 468.764 244C468.967 244.084 469.073 244.213 469.051 244.4C469.035 244.532 468.812 244.772 468.415 245.101ZM462.551 244.719V244.717C462.551 244.717 463.235 244.547 464.16 244.357C463.64 244.467 463.1 244.588 462.551 244.719Z" fill="white"/>
<path d="M432.848 264.677L434.079 264.063C434.367 263.917 434.7 263.745 435.075 263.552H435.171C434.345 263.963 433.567 264.34 432.848 264.677Z" fill="#849193"/>
<path d="M442.139 265.548L442 265.312L448.951 262.085C448.898 262.031 448.842 261.978 448.787 261.925L467.398 253.103C467.398 253.103 466.576 250.824 467.656 250.249C468.201 250.141 468.737 250.041 469.253 249.95C470.375 249.759 471.852 249.548 472.882 249.548C473.276 249.548 473.606 249.579 473.824 249.655C474.099 249.793 474.066 250.045 473.619 250.445C473.575 250.484 473.529 250.523 473.477 250.565C471.738 251.766 466.621 254.41 460.753 257.235C454.534 260.156 447.746 263.156 444.35 264.618C443.978 264.777 443.647 264.92 443.361 265.04L442.139 265.548Z" fill="#B6EAFE"/>
<path d="M436.708 262.94L436.629 262.78L443.544 258.843C443.6 258.907 443.656 258.971 443.709 259.036L436.708 262.94Z" fill="#FABFCD"/>
<path d="M437 266.415C437.004 266.423 437.125 266.37 437.351 266.259C437.644 266.113 437.967 265.95 438.329 265.767C439.301 265.258 440.493 264.633 441.901 263.894C444.907 262.291 449.03 260.021 453.526 257.415C458.023 254.807 462.042 252.359 464.926 250.549C466.266 249.694 467.403 248.97 468.327 248.381C468.665 248.155 468.967 247.958 469.242 247.775C469.448 247.634 469.555 247.557 469.549 247.549C469.544 247.541 469.428 247.603 469.212 247.73C468.929 247.899 468.62 248.083 468.271 248.293C467.335 248.861 466.184 249.562 464.826 250.387C461.918 252.155 457.884 254.577 453.391 257.182C448.896 259.787 444.792 262.082 441.812 263.727C440.42 264.495 439.24 265.146 438.28 265.675C437.925 265.874 437.612 266.051 437.324 266.213C437.107 266.338 436.995 266.407 437 266.415Z" fill="#020D1E"/>
<path d="M461.459 253.924C461.533 253.892 461.105 253.028 461.143 251.884C461.161 250.737 461.631 249.895 461.556 249.859C461.509 249.809 460.897 250.648 460.873 251.877C460.837 253.105 461.409 253.972 461.459 253.924Z" fill="#020D1E"/>
<path d="M454.135 254.338C454.208 254.341 454.288 253.854 454.311 253.251C454.336 252.649 454.295 252.158 454.22 252.155C454.145 252.151 454.067 252.638 454.043 253.241C454.02 253.843 454.06 254.335 454.135 254.338Z" fill="#020D1E"/>
<path d="M452.105 254.42C452.176 254.441 452.36 254.063 452.519 253.575C452.677 253.087 452.747 252.671 452.677 252.65C452.607 252.626 452.421 253.004 452.263 253.493C452.105 253.983 452.033 254.396 452.105 254.42Z" fill="#020D1E"/>
<path d="M450.073 253.178C450.109 253.243 450.589 253.04 451.147 252.724C451.704 252.411 452.127 252.103 452.088 252.038C452.052 251.974 451.572 252.176 451.015 252.492C450.459 252.807 450.036 253.114 450.073 253.178Z" fill="#020D1E"/>
<path d="M448.995 252.099C449.007 252.167 449.623 252.104 450.3 251.774C450.979 251.447 451.411 251.003 451.363 250.951C451.313 250.891 450.828 251.223 450.183 251.532C449.539 251.847 448.977 252.022 448.995 252.099Z" fill="#020D1E"/>
<path d="M453.813 252.287C453.827 252.315 454.333 252.098 455.04 251.564C455.395 251.299 455.791 250.947 456.185 250.514C456.375 250.288 456.588 250.079 456.755 249.768C456.831 249.616 456.9 249.424 456.839 249.208C456.783 248.994 456.563 248.844 456.365 248.826C454.833 248.898 454.039 250.246 453.956 251.107C453.895 251.558 453.961 251.926 454.031 252.163C454.104 252.403 454.177 252.52 454.192 252.515C454.245 252.504 453.993 251.982 454.143 251.138C454.217 250.723 454.417 250.246 454.799 249.843C455.159 249.462 455.757 249.067 456.325 249.091C456.605 249.122 456.663 249.395 456.52 249.652C456.393 249.9 456.177 250.132 455.999 250.35C455.627 250.78 455.252 251.138 454.921 251.416C454.26 251.976 453.791 252.25 453.813 252.287Z" fill="#020D1E"/>
<path d="M454.168 252.163C454.192 252.166 454.192 251.747 453.813 251.226C453.625 250.971 453.339 250.707 452.955 250.521C452.579 250.374 452.08 250.161 451.564 250.489C451.3 250.691 451.349 251.097 451.515 251.278C451.663 251.481 451.867 251.609 452.043 251.707C452.405 251.909 452.756 252.038 453.059 252.114C453.664 252.269 454.052 252.234 454.052 252.205C454.057 252.161 453.679 252.125 453.113 251.933C452.831 251.835 452.504 251.695 452.168 251.493C451.848 251.33 451.46 250.93 451.737 250.694C452.027 250.486 452.521 250.609 452.852 250.746C453.2 250.901 453.473 251.125 453.665 251.345C454.051 251.791 454.121 252.178 454.168 252.163Z" fill="#020D1E"/>
<path d="M438.001 260.629C438.029 260.67 438.519 260.258 439.445 259.857C440.358 259.454 441.757 259.113 443.275 259.335C444.794 259.562 446.033 260.294 446.791 260.943C447.561 261.595 447.911 262.133 447.95 262.101C447.965 262.091 447.891 261.95 447.726 261.714C447.562 261.478 447.295 261.154 446.917 260.802C446.171 260.097 444.898 259.306 443.314 259.07C441.731 258.837 440.283 259.225 439.366 259.685C438.902 259.913 438.553 260.145 438.327 260.323C438.101 260.502 437.99 260.617 438.001 260.629Z" fill="#020D1E"/>
<path d="M444.036 261.216C444.064 261.28 445.432 260.76 446.996 259.868C448.565 258.98 449.712 258.072 449.671 258.015C449.625 257.951 448.417 258.755 446.864 259.635C445.313 260.518 444.005 261.144 444.036 261.216Z" fill="#020D1E"/>
<path d="M437.276 259.392C437.256 259.467 437.532 259.599 437.827 259.812C438.125 260.022 438.339 260.239 438.403 260.196C438.465 260.16 438.325 259.836 437.983 259.594C437.641 259.348 437.291 259.323 437.276 259.392Z" fill="#020D1E"/>
<path d="M441.836 261C441.816 261.072 442.056 261.2 442.371 261.285C442.687 261.372 442.957 261.383 442.976 261.312C442.996 261.24 442.756 261.112 442.441 261.027C442.127 260.94 441.856 260.929 441.836 261Z" fill="#020D1E"/>
<path d="M435.343 262.823C435.393 262.88 435.647 262.73 435.985 262.666C436.323 262.594 436.615 262.634 436.64 262.56C436.671 262.495 436.352 262.316 435.932 262.403C435.513 262.486 435.288 262.775 435.343 262.823Z" fill="#020D1E"/>
<path d="M433.679 263.281C433.691 263.354 433.857 263.389 434.052 263.358C434.247 263.327 434.396 263.243 434.384 263.169C434.373 263.097 434.205 263.062 434.011 263.093C433.815 263.123 433.667 263.209 433.679 263.281Z" fill="#020D1E"/>
<path d="M301 240.12L375.98 169.415C380.617 164.671 386.973 161.996 393.608 161.996C402.451 161.996 410.616 166.732 415.005 174.408L453.365 240.325L429.028 254.368L392.081 207.385L355.059 240.837L301 240.12Z" fill="#1B2D55"/>
<path d="M273.137 242.127C272.82 243.082 270.595 267.238 303.016 267.238H389.641C400.605 267.238 409.495 258.348 409.495 247.383C409.495 236.42 400.605 227.531 389.641 227.531H308.985C306.099 227.531 303.248 228.16 300.631 229.375L273.137 242.127Z" fill="#1B2D55"/>
<path d="M397.3 227.532C397.3 227.723 379.409 227.88 357.343 227.88C335.269 227.88 317.381 227.723 317.381 227.532C317.381 227.34 335.269 227.184 357.343 227.184C379.409 227.184 397.3 227.34 397.3 227.532Z" fill="#003A5D"/>
<path d="M383.928 189.32C384.136 189.324 384.145 193.068 384.825 197.612C385.484 202.16 386.555 205.75 386.357 205.814C386.192 205.876 384.808 202.334 384.139 197.714C383.449 193.099 383.753 189.307 383.928 189.32Z" fill="#003A5D"/>
<path d="M387.608 188.781C387.791 188.778 387.983 192.606 387.575 197.307C387.176 202.011 386.335 205.75 386.156 205.717C385.959 205.681 386.488 201.915 386.881 197.249C387.288 192.585 387.408 188.782 387.608 188.781Z" fill="#003A5D"/>
<path d="M320.447 82.4406C320.547 83.4226 320.017 84.4386 319.153 84.9166C318.292 85.3946 317.148 85.3046 316.371 84.6986C314.893 83.5486 315.127 81.2446 315.803 79.4986C316.476 77.7516 317.469 75.9406 317.036 74.1186C316.705 72.7246 315.607 71.6676 314.821 70.4686C313.456 68.3796 313.044 65.6426 313.931 63.3086C314.817 60.9756 317.051 59.1586 319.539 58.9586C322.08 58.7546 324.904 60.0746 327.037 58.6796C328.583 57.6686 329.067 55.6146 330.365 54.3026C332.384 52.2646 335.757 52.5366 338.471 53.4626C341.185 54.3866 343.849 55.8346 346.713 55.6876C349.105 55.5646 351.288 54.3366 353.616 53.7756C358.663 52.5606 364.36 54.8636 367.145 59.2436C369.931 63.6246 369.599 69.7606 366.357 73.8156C365.192 75.2716 362.572 79.6266 357.353 78.5436" fill="#05141B"/>
<path d="M323.416 62.7051L322.713 66.4611L311.833 122.625C310.571 129.145 315.171 135.424 322.163 136.724C329.224 138.036 336.065 133.78 337.449 127.215C338.903 120.323 340.559 113.095 340.559 113.095C340.559 113.095 349.748 113.465 353.996 102.257C356.108 96.6841 357.781 87.1731 358.899 79.3471C359.904 72.3031 354.849 65.8401 347.768 65.1331L323.416 62.7051Z" fill="#FFEBBD"/>
<path d="M353.637 84.9227C353.503 85.7127 352.721 86.2487 351.893 86.1237C351.067 85.9987 350.504 85.2557 350.639 84.4667C350.775 83.6747 351.556 83.1357 352.383 83.2627C353.211 83.3877 353.773 84.1317 353.637 84.9227Z" fill="#020D1E"/>
<path d="M355.827 83.8377C355.603 83.9937 354.649 82.9257 353.049 82.5977C351.456 82.2467 350.111 82.8267 349.977 82.5947C349.911 82.4907 350.171 82.1787 350.759 81.9137C351.34 81.6467 352.272 81.4657 353.268 81.6757C354.263 81.8877 355.024 82.4297 355.428 82.9057C355.843 83.3837 355.936 83.7697 355.827 83.8377Z" fill="#020D1E"/>
<path d="M338.344 81.8121C338.209 82.6041 337.428 83.1401 336.599 83.0151C335.772 82.8881 335.211 82.1471 335.345 81.3561C335.48 80.5651 336.261 80.0271 337.088 80.1531C337.917 80.2791 338.479 81.0231 338.344 81.8121Z" fill="#020D1E"/>
<path d="M340.043 80.8705C339.817 81.0255 338.863 79.9585 337.264 79.6315C335.671 79.2795 334.327 79.8595 334.192 79.6275C334.127 79.5225 334.384 79.2115 334.975 78.9465C335.555 78.6795 336.488 78.4985 337.483 78.7095C338.477 78.9215 339.241 79.4625 339.644 79.9385C340.056 80.4175 340.151 80.8025 340.043 80.8705Z" fill="#020D1E"/>
<path d="M343.384 93.9391C343.396 93.8461 344.425 93.8801 346.08 94.0101C346.496 94.0511 346.9 94.0511 347.027 93.7871C347.185 93.5111 347.105 93.0351 347.005 92.5191C346.827 91.4511 346.64 90.3311 346.444 89.1591C345.687 84.3831 345.228 80.4901 345.42 80.4601C345.613 80.4311 346.384 84.2791 347.141 89.0551C347.317 90.2311 347.488 91.3521 347.648 92.4241C347.707 92.9201 347.863 93.5021 347.527 94.0721C347.355 94.3541 347.009 94.5141 346.732 94.5301C346.453 94.5551 346.223 94.5111 346.019 94.4821C344.379 94.2321 343.372 94.0301 343.384 93.9391Z" fill="#020D1E"/>
<path d="M340.559 113.094C340.559 113.094 332.657 111.978 325.897 105.73C325.897 105.73 328.009 114.474 339.835 115.798L340.559 113.094Z" fill="#C7B07C"/>
<path d="M338.448 94.0666C338.711 94.1056 338.355 95.8426 339.583 97.3836C340.809 98.9276 342.701 99.1176 342.665 99.3626C342.667 99.4776 342.183 99.6146 341.397 99.4736C340.625 99.3396 339.557 98.8616 338.804 97.9186C338.055 96.9746 337.875 95.8866 337.964 95.1616C338.048 94.4216 338.331 94.0316 338.448 94.0666Z" fill="#020D1E"/>
<path d="M341.757 74.6878C341.509 75.0908 339.956 74.5518 338.032 74.3888C336.112 74.1868 334.484 74.4208 334.316 73.9798C334.245 73.7708 334.592 73.4158 335.292 73.1228C335.985 72.8278 337.036 72.6288 338.189 72.7368C339.341 72.8488 340.336 73.2408 340.961 73.6608C341.592 74.0808 341.868 74.4958 341.757 74.6878Z" fill="#020D1E"/>
<path d="M356.2 79.0854C355.844 79.3904 354.82 78.7855 353.499 78.4915C352.188 78.1535 351.001 78.2274 350.821 77.7944C350.747 77.5864 350.999 77.2585 351.561 77.0175C352.115 76.7745 352.981 76.6625 353.887 76.8795C354.791 77.0975 355.512 77.5904 355.895 78.0574C356.285 78.5274 356.361 78.9344 356.2 79.0854Z" fill="#020D1E"/>
<path d="M360.352 74.2853C360.352 74.2853 353.789 76.1553 346.601 70.8493C341.887 67.3653 336.083 65.0513 334.575 65.8583C333.065 66.6653 331.853 71.9393 326.464 72.5993C326.464 72.5993 325.037 82.8193 321.051 81.7473C317.065 80.6783 321.875 60.5703 321.875 60.5703L333.101 62.2823L344.271 62.1303L354.207 65.3493L361.712 68.8853L360.352 74.2853Z" fill="#05141B"/>
<path d="M322.201 57.6344C322.177 57.4704 323.201 57.3094 324.231 57.9464C325.264 58.5744 325.587 59.5594 325.429 59.6134C325.272 59.6944 324.776 58.9914 323.908 58.4734C323.051 57.9354 322.199 57.8134 322.201 57.6344Z" fill="#05141B"/>
<path d="M326.252 54.9187C326.436 54.9717 326.128 56.1427 326.053 57.5527C325.968 58.9677 326.359 60.0827 326.193 60.1557C326.057 60.2467 325.347 59.1077 325.433 57.5267C325.523 55.9707 326.115 54.8677 326.252 54.9187Z" fill="#05141B"/>
<path d="M322.149 77.6397C322.001 77.5247 315.925 73.9547 314.452 80.6997C312.979 87.4447 320.055 87.5347 320.109 87.3437C320.163 87.1517 322.149 77.6397 322.149 77.6397Z" fill="#FFEBBD"/>
<path d="M318.607 84.3366C318.581 84.3086 318.471 84.3946 318.252 84.4406C318.039 84.4876 317.692 84.4756 317.369 84.2676C316.715 83.8506 316.361 82.5876 316.595 81.3646C316.711 80.7476 316.968 80.1906 317.292 79.7546C317.605 79.3066 318 79.0306 318.372 79.0466C318.747 79.0406 318.955 79.3116 318.995 79.5196C319.044 79.7276 318.972 79.8526 319.005 79.8716C319.021 79.8926 319.175 79.7906 319.181 79.4996C319.183 79.3596 319.137 79.1836 319.008 79.0196C318.875 78.8526 318.652 78.7346 318.396 78.7066C317.868 78.6286 317.296 79.0046 316.94 79.4836C316.556 79.9596 316.252 80.5806 316.123 81.2746C315.868 82.6436 316.287 84.0676 317.199 84.5626C317.647 84.7906 318.075 84.7326 318.313 84.6186C318.559 84.4966 318.628 84.3546 318.607 84.3366Z" fill="#C7B07C"/>
<path d="M344.505 81.5834C344.435 81.5864 344.451 80.9444 344.149 79.8644C343.853 78.8064 343.123 77.2624 341.524 76.0784C339.98 74.8914 337.447 74.2324 335 75.1484C332.575 75.9884 330.483 78.5704 330.511 81.5824C330.483 84.5954 332.575 87.1764 335 88.0184C337.447 88.9344 339.98 88.2744 341.524 87.0874C343.123 85.9044 343.853 84.3594 344.149 83.3004C344.451 82.2224 344.435 81.5794 344.505 81.5834C344.529 81.5834 344.545 81.7404 344.552 82.0444C344.565 82.3474 344.533 82.7994 344.413 83.3674C344.185 84.4844 343.493 86.1584 341.823 87.4784C340.209 88.7994 337.472 89.5864 334.783 88.6194C333.457 88.1564 332.189 87.2664 331.285 86.0224C330.357 84.7984 329.829 83.2124 329.816 81.5824C329.829 79.9524 330.357 78.3684 331.285 77.1434C332.189 75.9004 333.459 75.0104 334.783 74.5474C337.472 73.5804 340.209 74.3664 341.821 75.6884C343.492 77.0084 344.185 78.6804 344.413 79.7994C344.533 80.3664 344.565 80.8194 344.552 81.1224C344.544 81.4264 344.529 81.5834 344.505 81.5834Z" fill="#003A5D"/>
<path d="M361.712 84.6939C361.643 84.6959 361.659 84.0549 361.357 82.9749C361.06 81.9159 360.329 80.3719 358.732 79.1899C357.188 78.0019 354.653 77.3429 352.208 78.2589C349.783 79.0999 347.691 81.6799 347.717 84.6919C347.691 87.7059 349.781 90.2879 352.208 91.1279C354.655 92.0439 357.188 91.3839 358.732 90.1979C360.329 89.0149 361.06 87.4699 361.357 86.4119C361.659 85.3319 361.643 84.6899 361.712 84.6939C361.737 84.6939 361.752 84.8509 361.759 85.1549C361.772 85.4579 361.741 85.9109 361.62 86.4779C361.392 87.5959 360.7 89.2679 359.029 90.5879C357.416 91.9109 354.681 92.6959 351.989 91.7299C350.665 91.2669 349.396 90.3759 348.492 89.1339C347.564 87.9079 347.036 86.3229 347.024 84.6919C347.036 83.0629 347.564 81.4789 348.492 80.2539C349.397 79.0109 350.665 78.1199 351.989 77.6579C354.68 76.6909 357.416 77.4759 359.028 78.7989C360.7 80.1189 361.392 81.7909 361.62 82.9099C361.741 83.4759 361.772 83.9299 361.759 84.2319C361.752 84.5359 361.737 84.6939 361.712 84.6939Z" fill="#003A5D"/>
<path d="M330.981 77.6116C330.983 77.8036 329.051 77.9646 326.668 77.9726C324.284 77.9806 322.352 77.8316 322.352 77.6396C322.351 77.4476 324.283 77.2866 326.665 77.2786C329.048 77.2716 330.981 77.4196 330.981 77.6116Z" fill="#003A5D"/>
<path d="M347.371 83.3225C347.195 83.3965 346.773 82.7475 345.983 82.5245C345.195 82.2875 344.491 82.6085 344.383 82.4515C344.331 82.3785 344.448 82.1705 344.768 81.9925C345.081 81.8145 345.616 81.6955 346.177 81.8585C346.737 82.0225 347.124 82.4105 347.292 82.7275C347.468 83.0505 347.455 83.2885 347.371 83.3225Z" fill="#003A5D"/>
<path d="M331.513 226.962V222.512L394.847 223.808L431.313 165.544L434.66 167.96L397.3 227.532L331.513 226.962Z" fill="#DADBD8"/>
<path d="M375.327 207.544L378.516 212.271V222.003C378.516 222.003 376.865 222.384 376.207 221.066C375.547 219.747 374.668 215.239 374.668 215.239L373.125 219.223C372.499 220.84 370.767 221.738 369.084 221.316L357.341 218.371L362.139 204.648L375.327 207.544Z" fill="#FFEBBD"/>
<path d="M310.477 113.55C310.477 113.55 292.949 117.932 287.689 125.82C282.431 133.708 276.443 146.799 269.991 172.19C264.36 194.346 260.017 229.731 266.113 238.034C270.311 243.751 272.988 245.206 272.988 245.206L286.516 240.36C299.544 235.694 311.519 228.488 321.743 219.16L342.5 200.22L331.513 191.554C331.513 191.554 339.871 146.406 337.649 130.63C335.707 116.836 310.477 113.55 310.477 113.55Z" fill="#FFFBF1"/>
<path d="M315.012 127.154C308.265 128.829 301.775 131.567 292.555 132.338C290.395 132.519 288.177 132.121 286.332 130.982C280.512 127.39 282.527 120.738 285.708 116.258C289.079 111.51 294.388 107.425 300.181 108.009C299.077 105.127 300.788 101.686 303.492 100.202C306.197 98.7192 309.573 98.9142 312.461 99.9992C315.348 101.085 317.856 102.969 320.317 104.827C323.621 107.321 326.925 109.815 330.229 112.309C332.452 113.987 334.747 115.747 336.028 118.219C337.311 120.693 342.057 130.391 339.949 132.213C339.949 132.213 337.252 132.997 335.949 132.213L335.707 132.042C329.8 127.441 322.279 125.349 315.012 127.154Z" fill="#FFFBF1"/>
<path d="M305.045 135.375L293.459 189.54C291.433 199.001 296.695 208.509 305.789 211.82L356.145 221.476L362.424 202.707L321.559 189.957L333.544 137.631L305.045 135.375Z" fill="#FFFBF1"/>
<path d="M293.025 199.838C293.035 199.836 293.061 199.943 293.107 200.155C293.155 200.387 293.216 200.695 293.297 201.091C293.339 201.3 293.383 201.531 293.433 201.784C293.523 202.032 293.621 202.3 293.727 202.591C293.833 202.883 293.948 203.198 294.071 203.534C294.244 203.848 294.427 204.183 294.623 204.539C295.432 205.936 296.745 207.512 298.695 208.844C300.632 210.179 303.135 211.328 306.081 212.066C318.132 214.271 335.303 217.412 355.905 221.18L355.569 221.376C357.643 215.431 359.837 209.142 362.12 202.599L362.328 203.012C349.721 199.088 335.9 194.783 321.456 190.287L321.141 190.19L321.224 189.868C321.935 187.079 322.697 184.092 323.465 181.083C325.84 171.599 328.067 162.314 330.003 153.304C330.951 148.798 331.851 144.358 332.472 139.983C332.653 138.89 332.648 137.807 332.747 136.728C332.704 135.658 332.665 134.59 332.391 133.562C331.915 131.502 330.937 129.592 329.601 128.014C326.932 124.82 322.828 123.126 318.924 123.231C314.967 123.342 311.432 125.466 309.011 128.248C306.539 131.038 304.967 134.368 303.903 137.663C302.829 140.972 302.205 144.271 301.585 147.414C299.109 159.967 297.103 170.135 295.711 177.194C295.007 180.686 294.459 183.407 294.08 185.284C293.889 186.187 293.743 186.884 293.639 187.384C293.533 187.856 293.464 188.096 293.464 188.096C293.464 188.096 293.487 187.848 293.568 187.371C293.656 186.868 293.781 186.166 293.941 185.258C294.291 183.375 294.797 180.644 295.445 177.143C296.787 170.074 298.719 159.891 301.104 147.32C301.708 144.176 302.319 140.855 303.392 137.499C304.457 134.156 306.045 130.746 308.58 127.867C311.052 124.998 314.751 122.746 318.904 122.622C322.997 122.499 327.284 124.262 330.088 127.598C331.491 129.247 332.523 131.252 333.025 133.415C333.313 134.494 333.36 135.616 333.405 136.735C333.308 137.839 333.309 138.975 333.128 140.072C332.509 144.483 331.613 148.928 330.668 153.446C328.739 162.471 326.516 171.762 324.137 181.252C323.369 184.263 322.607 187.252 321.895 190.044L321.663 189.626C336.1 194.139 349.917 198.458 362.52 202.396L362.84 202.496L362.729 202.812C360.431 209.35 358.221 215.632 356.133 221.574L356.048 221.816L355.797 221.77C335.184 217.914 318.024 214.767 305.996 212.404C303.019 211.632 300.493 210.444 298.54 209.064C296.575 207.69 295.259 206.064 294.463 204.63C294.272 204.266 294.092 203.922 293.923 203.599C293.805 203.256 293.696 202.934 293.595 202.636C293.496 202.34 293.405 202.066 293.32 201.815C293.279 201.556 293.24 201.323 293.205 201.11C293.143 200.71 293.096 200.396 293.06 200.159C293.029 199.947 293.019 199.839 293.025 199.838Z" fill="black"/>
<path d="M314.533 197.051C314.456 197.049 314.385 196.416 314.64 195.433C314.889 194.453 315.544 193.157 316.668 192.073C317.797 190.995 319.119 190.391 320.107 190.183C321.099 189.967 321.728 190.063 321.728 190.141C321.736 190.253 321.135 190.335 320.244 190.655C319.353 190.968 318.188 191.584 317.149 192.575C316.119 193.571 315.456 194.712 315.107 195.588C314.751 196.465 314.645 197.063 314.533 197.051Z" fill="#020D1E"/>
<path d="M306.619 219.762C303.669 219.762 300.741 219.098 298.284 217.504C294.463 215.027 292.247 210.598 291.469 206.108C290.691 201.62 291.18 197.02 291.736 192.499C294.144 172.915 297.804 153.43 303.864 134.652C303.864 134.652 303.716 135.616 303.419 137.414C303.411 137.442 303.401 137.471 303.392 137.499C302.319 140.855 301.708 144.176 301.104 147.32C298.719 159.891 296.787 170.074 295.445 177.143C294.797 180.644 294.291 183.375 293.941 185.258C293.781 186.166 293.656 186.868 293.568 187.371C293.487 187.848 293.464 188.096 293.464 188.096C293.464 188.096 293.505 187.954 293.572 187.672C293.345 189.196 293.189 190.623 293.097 191.956C293.065 192.328 293.044 192.699 293.035 193.068C292.783 198.743 293.729 202.644 295.121 205.326C294.937 205.059 294.772 204.796 294.623 204.539C294.427 204.183 294.244 203.848 294.071 203.534C293.948 203.198 293.833 202.883 293.727 202.591C293.621 202.3 293.523 202.032 293.433 201.784C293.383 201.531 293.339 201.3 293.297 201.091C293.216 200.695 293.155 200.387 293.107 200.155C293.061 199.944 293.035 199.838 293.027 199.838H293.025C293.019 199.839 293.029 199.947 293.06 200.159C293.096 200.396 293.143 200.71 293.205 201.11C293.24 201.323 293.279 201.556 293.32 201.815C293.405 202.066 293.496 202.34 293.595 202.636C293.696 202.934 293.805 203.256 293.923 203.599C294.092 203.922 294.272 204.266 294.463 204.63C294.856 205.339 295.376 206.095 296.04 206.843C298.22 209.946 300.977 210.848 302.203 211.104C303.365 211.611 304.633 212.051 305.996 212.404C311.356 213.458 317.736 214.666 324.985 216.023C321.088 217.726 314.632 218.615 310.589 219.379C309.289 219.626 307.952 219.762 306.619 219.762ZM314.455 213.598C311.443 213.047 308.647 212.535 306.081 212.066C305.331 211.878 304.608 211.663 303.916 211.424L305.741 211.8C305.757 211.807 305.773 211.812 305.789 211.819L306.319 211.92L314.455 213.598ZM295.611 177.691C295.644 177.527 295.677 177.362 295.711 177.194C297.103 170.135 299.109 159.967 301.585 147.414C301.841 146.116 302.099 144.792 302.387 143.451C301.047 151.063 298.793 163.124 295.611 177.691Z" fill="#D8D2C5"/>
<path d="M306.319 211.921L305.789 211.82C305.773 211.813 305.757 211.808 305.741 211.801L306.319 211.921ZM293.035 193.069C293.044 192.7 293.065 192.329 293.097 191.957C293.071 192.336 293.051 192.705 293.035 193.069Z" fill="#DA314B"/>
<path d="M324.985 216.024C317.736 214.667 311.356 213.459 305.996 212.405C304.633 212.052 303.365 211.612 302.203 211.105C302.603 211.189 302.84 211.204 302.84 211.204L303.916 211.425C304.608 211.664 305.331 211.879 306.081 212.067C308.647 212.536 311.443 213.048 314.455 213.599L325.371 215.849C325.245 215.909 325.117 215.967 324.985 216.024ZM296.04 206.844C295.376 206.096 294.856 205.34 294.463 204.631C294.272 204.267 294.092 203.923 293.923 203.6C293.805 203.257 293.696 202.935 293.595 202.637C293.496 202.341 293.405 202.067 293.32 201.816C293.279 201.557 293.24 201.324 293.205 201.111C293.143 200.711 293.096 200.397 293.06 200.16C293.029 199.948 293.019 199.84 293.025 199.839C293.027 199.839 293.027 199.839 293.027 199.839C293.035 199.839 293.061 199.945 293.107 200.156C293.155 200.388 293.216 200.696 293.297 201.092C293.339 201.301 293.383 201.532 293.433 201.785C293.523 202.033 293.621 202.301 293.727 202.592C293.833 202.884 293.948 203.199 294.071 203.535C294.244 203.849 294.427 204.184 294.623 204.54C294.772 204.797 294.937 205.06 295.121 205.327C295.411 205.884 295.719 206.388 296.04 206.844ZM293.464 188.097C293.464 188.097 293.487 187.849 293.568 187.372C293.656 186.869 293.781 186.167 293.941 185.259C294.291 183.376 294.797 180.645 295.445 177.144C296.787 170.075 298.719 159.892 301.104 147.321C301.708 144.177 302.319 140.856 303.392 137.5C303.401 137.472 303.411 137.443 303.419 137.415C303.176 138.889 302.832 140.925 302.387 143.452C302.099 144.793 301.841 146.117 301.585 147.415C299.109 159.968 297.103 170.136 295.711 177.195C295.677 177.363 295.644 177.528 295.611 177.692C295.268 179.26 294.915 180.857 294.551 182.48C294.136 184.328 293.813 186.056 293.572 187.673C293.505 187.955 293.464 188.097 293.464 188.097Z" fill="#111D23"/>
<path d="M284.637 130.887C284.636 130.597 284.643 130.309 284.653 130.029L284.695 130.429C284.817 130.326 284.939 130.223 285.061 130.121C284.921 130.371 284.779 130.627 284.637 130.887Z" fill="#C3C5C2"/>
<path d="M288.045 136.197C287.625 136.197 287.205 136.113 286.793 135.924C285.027 135.111 284.645 132.913 284.637 130.888C284.779 130.628 284.921 130.372 285.061 130.121C285.076 130.109 285.091 130.097 285.105 130.085C285.468 130.401 285.876 130.701 286.332 130.983C287.896 131.948 289.725 132.381 291.563 132.381C291.893 132.381 292.225 132.367 292.555 132.339C293.181 132.287 293.795 132.225 294.397 132.156C293.859 132.631 293.327 133.109 292.8 133.596C291.453 134.837 289.741 136.197 288.045 136.197Z" fill="#D8D2C5"/>
<path d="M291.563 132.381C289.725 132.381 287.896 131.948 286.332 130.983C285.876 130.701 285.468 130.401 285.105 130.085C293.692 122.949 304.571 118.612 315.711 117.895C308.016 121.675 300.828 126.485 294.397 132.156C293.795 132.225 293.181 132.287 292.555 132.339C292.225 132.367 291.893 132.381 291.563 132.381Z" fill="#D8D2C5"/>
<path d="M328.787 123.24C328.695 123.384 326.639 121.511 322.577 119.926C320.552 119.154 318.037 118.46 315.181 118.246C312.331 118.014 309.151 118.264 305.992 119.244C302.821 120.19 299.98 121.631 297.436 122.99C294.899 124.37 292.637 125.68 290.692 126.702C288.751 127.73 287.131 128.472 285.989 128.93C284.843 129.376 284.192 129.578 284.177 129.536C284.159 129.487 284.775 129.202 285.88 128.683C286.981 128.152 288.555 127.348 290.459 126.271C292.396 125.155 294.648 123.858 297.129 122.428C299.672 121.031 302.543 119.55 305.793 118.579C309.031 117.574 312.319 117.334 315.235 117.607C318.161 117.863 320.72 118.624 322.76 119.471C324.805 120.319 326.328 121.286 327.32 122.012C327.831 122.359 328.187 122.683 328.435 122.89C328.681 123.102 328.803 123.222 328.787 123.24Z" fill="black"/>
<path d="M335.835 126.048C335.748 126.135 334.155 124.547 331.34 122.276C328.529 120.004 324.416 117.133 319.484 114.667C314.544 112.213 309.776 110.657 306.269 109.781C302.761 108.9 300.535 108.584 300.552 108.463C300.559 108.415 301.12 108.457 302.132 108.573C303.144 108.677 304.6 108.92 306.381 109.304C309.945 110.063 314.799 111.563 319.795 114.045C324.784 116.54 328.903 119.512 331.653 121.899C333.032 123.091 334.103 124.107 334.797 124.853C335.499 125.591 335.868 126.015 335.835 126.048Z" fill="#020D1E"/>
<path d="M339.201 169.883C339.164 169.887 339.071 169.493 338.933 168.755C338.801 168.017 338.616 166.939 338.495 165.557C338.396 164.175 338.284 162.5 338.723 160.581C338.952 159.645 339.672 158.544 340.912 158.341C341.496 158.221 342.255 158.457 342.621 159.04C342.977 159.559 343.108 160.415 342.524 160.991L342.457 161.057L342.355 161.075C341.616 161.201 340.903 160.835 340.441 160.325C339.953 159.801 339.727 159.101 339.624 158.443C339.461 157.108 339.457 155.829 339.367 154.473C339.035 148.081 338.773 142.295 338.62 138.104C338.56 136.111 338.511 134.445 338.471 133.137C338.453 131.965 338.465 131.315 338.513 131.312C338.56 131.311 338.639 131.955 338.743 133.124C338.839 134.428 338.963 136.091 339.109 138.079C339.389 142.263 339.729 148.047 340.06 154.439C340.147 155.768 340.157 157.133 340.3 158.337C340.391 158.932 340.577 159.483 340.937 159.872C341.292 160.268 341.796 160.507 342.247 160.428L342.077 160.512C342.356 160.271 342.332 159.749 342.092 159.392C341.863 159.025 341.443 158.884 341.004 158.947C340.096 159.079 339.484 159.893 339.255 160.737C338.811 162.484 338.853 164.184 338.899 165.531C339.055 168.26 339.3 169.871 339.201 169.883Z" fill="#DADBD8"/>
<path d="M317.307 213.972C317.339 214.008 316.757 214.552 315.68 215.505C314.607 216.467 313.007 217.799 310.991 219.4C306.959 222.595 301.177 226.771 294.395 230.748C287.612 234.731 281.144 237.743 276.372 239.671C273.988 240.641 272.036 241.371 270.672 241.825C269.308 242.288 268.548 242.523 268.532 242.477C268.516 242.433 269.245 242.112 270.577 241.572C271.911 241.04 273.829 240.243 276.183 239.219C280.891 237.181 287.292 234.113 294.043 230.149C300.795 226.189 306.592 222.097 310.691 219.011C312.74 217.464 314.384 216.193 315.507 215.297C316.636 214.409 317.276 213.936 317.307 213.972Z" fill="#020D1E"/>
<path d="M276.697 244.28C276.545 244.396 275.748 243.596 274.919 242.494C274.088 241.391 273.54 240.404 273.693 240.29C273.848 240.174 274.643 240.974 275.473 242.076C276.303 243.178 276.852 244.164 276.697 244.28Z" fill="#020D1E"/>
<path d="M284.747 240.881C284.637 241.032 283.537 240.413 282.507 239.273C281.469 238.139 280.957 236.985 281.117 236.891C281.287 236.788 282.033 237.728 283.02 238.807C284 239.889 284.864 240.723 284.747 240.881Z" fill="#020D1E"/>
<path d="M294.857 237.547C294.713 237.672 293.596 236.643 292.363 235.245C291.129 233.848 290.247 232.612 290.389 232.485C290.533 232.359 291.649 233.388 292.884 234.785C294.117 236.183 295.001 237.419 294.857 237.547Z" fill="#020D1E"/>
<path d="M305.708 231.783C305.561 231.906 304.369 230.711 303.048 229.112C301.727 227.515 300.775 226.122 300.923 225.999C301.071 225.878 302.261 227.072 303.583 228.67C304.905 230.268 305.856 231.662 305.708 231.783Z" fill="#020D1E"/>
<path d="M315.787 224.247C315.657 224.388 314.383 223.445 312.94 222.14C311.496 220.833 310.429 219.661 310.559 219.519C310.688 219.377 311.961 220.32 313.405 221.625C314.849 222.931 315.915 224.104 315.787 224.247Z" fill="#020D1E"/>
<path d="M412.511 116.054C412.503 117.765 411.111 119.143 409.401 119.135C407.691 119.127 406.312 117.735 406.32 116.026C406.328 114.317 407.72 112.938 409.429 112.945C411.139 112.953 412.519 114.345 412.511 116.054Z" fill="#003A5D"/>
<path d="M403.229 112.078C406.629 108.508 412.152 108.399 415.639 111.912C417.219 113.506 419.692 111.056 418.112 109.463C413.329 104.642 405.476 104.671 400.779 109.604C399.235 111.226 401.68 113.704 403.229 112.078Z" fill="#003A5D"/>
<path d="M392.716 97.6691C397.423 93.6011 403.041 91.0401 409.333 91.0241C415.569 91.0091 421.719 93.2231 426.287 97.5121C427.917 99.0441 430.396 96.5991 428.759 95.0611C423.527 90.1481 416.511 87.5241 409.349 87.5431C402.109 87.5601 395.675 90.5201 390.265 95.1961C388.568 96.6641 391.027 99.1291 392.716 97.6691Z" fill="#003A5D"/>
<path d="M396.864 105.654C400.021 102.243 404.443 100.107 409.116 99.9998C413.916 99.8898 418.552 101.868 421.889 105.296C423.455 106.904 425.927 104.454 424.361 102.847C420.413 98.7878 414.816 96.3878 409.132 96.5188C403.573 96.6458 398.187 99.1038 394.415 103.18C392.896 104.823 395.34 107.303 396.864 105.654Z" fill="#003A5D"/>
</g>
</svg>
