<svg width="434" height="596" viewBox="0 0 434 596" fill="none" xmlns="http://www.w3.org/2000/svg">
<g filter="url(#filter0_d_2_2862)">
<path d="M286.03 363.55L286.06 363.08H286.53H298.89H299.37L299.39 363.56L306.23 522.22V522.23L306.83 586.55H340.02L341.44 522.1V522.09L343 311.297H295.65H290.67H243.32L238.98 520.84L244.53 586.55H280.83L275.4 522.16V522.12V522.08L286.03 363.55Z" fill="#002E59" stroke="#020B18"/>
<mask id="mask0_2_2862" style="mask-type:luminance" maskUnits="userSpaceOnUse" x="-1" y="-1" width="436" height="589">
<path d="M434 587V0H0V587H434Z" fill="white" stroke="white" stroke-width="2"/>
</mask>
<g mask="url(#mask0_2_2862)">
<path d="M247.37 308.993H355.9L362.61 192.695C363.12 183.761 358.2 175.398 350.14 171.508L308.41 151.357H291.33L253.66 171.06C245.66 175.243 240.84 183.704 241.31 192.718L247.37 308.993Z" fill="white" stroke="#020B18"/>
<path d="M312.11 302.935L307.56 281.814L277.16 283.714L282.69 302.935H312.11Z" fill="#FFF5DE" stroke="#020B18"/>
<path d="M201.26 594.8L218.3 594.62L215.53 323.81L198.49 323.98L201.26 594.8Z" fill="#020B18" stroke="#020B18"/>
<mask id="mask1_2_2862" style="mask-type:luminance" maskUnits="userSpaceOnUse" x="197" y="323" width="20" height="67">
<path d="M197.99 323.3H216.6V389.96H197.99V323.3Z" fill="white"/>
</mask>
<g mask="url(#mask1_2_2862)">
<g opacity="0.419998">
<path d="M197.99 323.48L216.03 323.3L216.6 379.11L198.67 389.96L197.99 323.48Z" fill="#A1A1A1"/>
</g>
</g>
<path d="M409.46 324.29V324.27L409.35 313.49L405.61 313.527L396.73 313.619L29.98 317.37L20.8701 317.47L17.3701 317.5L17.48 328.26C17.6 328.32 17.8101 328.4 18.1201 328.47C18.7601 328.64 19.74 328.8 21.04 328.95C23.65 329.26 27.5 329.55 32.47 329.81C42.41 330.34 56.8001 330.76 74.5901 331.05C110.16 331.63 159.29 331.71 213.56 331.16C267.83 330.6 316.95 329.51 352.5 328.2C370.27 327.55 384.65 326.83 394.58 326.11C399.55 325.74 403.39 325.38 405.99 325.01C407.29 324.83 408.26 324.65 408.9 324.47C409.15 324.4 409.33 324.34 409.46 324.29Z" fill="#020B18" stroke="#020B18"/>
<path d="M409.92 312.982C409.95 315.869 321.99 319.119 213.45 320.229C104.9 321.339 16.8901 319.9 16.8601 317.01C16.8301 314.117 104.8 310.87 213.34 309.76C321.88 308.649 409.89 310.092 409.92 312.982Z" fill="#0F2B52"/>
<path d="M356.91 312.554L282.42 313.26L282.32 303.436L356.81 302.728C359.53 302.7 361.75 304.878 361.77 307.59C361.8 310.304 359.63 312.526 356.91 312.554Z" fill="#A1A1A1"/>
<path d="M177.47 313.836L293.23 312.65L266.19 213.938C265.24 210.464 262.07 208.068 258.47 208.105L149.7 209.218C143.5 209.281 139.06 215.244 140.79 221.203L164.89 304.474C166.5 310.066 171.65 313.893 177.47 313.836Z" fill="#C2C4C6" stroke="#020B18"/>
<path d="M221.13 263.397C221.19 269.425 216.35 274.364 210.32 274.425C204.3 274.486 199.36 269.649 199.3 263.62C199.23 257.592 204.07 252.653 210.1 252.592C216.13 252.53 221.07 257.368 221.13 263.397Z" fill="white"/>
<path d="M115.07 310.551V310.541V310.532L120.15 281.801C120.24 281.115 119.71 280.504 119.01 280.504H84.3401C83.6501 280.504 83.11 281.12 83.2 281.808L88.5401 310.548V310.558V310.568C88.7201 311.809 89.7901 312.732 91.0401 312.732H112.57C113.83 312.732 114.9 311.801 115.07 310.551Z" fill="white" stroke="black"/>
<path d="M79.8799 290.259C81.2699 289.165 83.0299 288.707 84.4099 288.513C85.1099 288.416 85.7199 288.384 86.1699 288.376C86.2599 288.374 86.3499 288.374 86.4299 288.374L86.8101 284.647C86.1701 284.631 84.98 284.643 83.55 284.853C81.46 285.161 78.91 285.888 76.8 287.535C74.22 289.558 72.8999 292.443 72.8999 296.18C72.8999 299.535 74.1699 302.22 76.6899 304.209C80.5499 307.264 86.27 307.644 88.79 307.644C89.06 307.644 89.29 307.639 89.48 307.633L89.1201 303.907C88.9501 303.909 88.75 303.91 88.53 303.907C87.89 303.899 87 303.86 86 303.736C84.04 303.493 81.5701 302.911 79.8101 301.515C78.1901 300.238 77.4099 298.467 77.4099 296.18C77.4099 293.605 78.2099 291.576 79.8799 290.259Z" fill="white" stroke="black"/>
<path d="M295.11 172.308H296.56C304.45 172.308 310.85 165.914 310.85 158.026V129.409H280.83V158.026C280.83 165.914 287.22 172.308 295.11 172.308Z" fill="#FFF5DE"/>
<path d="M368.5 207.85C370.44 215.898 372.15 223.993 373.77 232.101C375.38 240.212 376.8 248.358 378.09 256.545C378.74 260.637 379.32 264.749 379.88 268.881M368.5 207.85C366.62 199.788 364.5 191.773 362.31 183.765L368.5 207.85ZM379.88 268.881L379.38 268.948C379.38 268.947 379.38 268.946 379.38 268.945V268.943L379.88 268.881ZM380.53 278.337L381.02 278.285L380.53 278.341M380.53 278.337L373.28 232.199C371.66 224.094 369.95 216.006 368.01 207.967V207.964C366.17 200.07 364.1 192.22 361.96 184.372L334.49 191.475L321.61 196.838C324.03 204.012 326.39 211.221 328.55 218.505C330.8 225.924 332.85 233.41 334.81 240.913C336.77 248.425 338.55 255.982 340.2 263.544C340.61 265.43 341.01 267.315 341.4 269.199L341.5 269.686L341.01 269.789L297.05 279.117L299.74 303.026L364.78 302.013C364.78 302.013 364.78 302.013 364.79 302.013C364.83 302.012 364.88 302.011 364.93 302.009C365.05 302.006 365.18 302.003 365.28 301.999C374.38 301.583 381.43 293.868 381.01 284.765L380.87 281.685L380.53 278.341M380.17 275.176L380.66 275.12L380.17 275.182V275.176Z" fill="white"/>
<path d="M368.5 207.85C370.44 215.898 372.15 223.993 373.77 232.101C375.38 240.212 376.8 248.358 378.09 256.545C378.74 260.637 379.32 264.749 379.88 268.881M368.5 207.85L379.88 268.881M368.5 207.85C366.62 199.788 364.5 191.773 362.31 183.765L368.5 207.85ZM379.88 268.881L379.38 268.948C379.38 268.947 379.38 268.946 379.38 268.945V268.943L379.88 268.881ZM380.53 278.337L381.02 278.285L380.53 278.341M380.53 278.337L373.28 232.199C371.66 224.094 369.95 216.006 368.01 207.967V207.964C366.17 200.07 364.1 192.22 361.96 184.372L334.49 191.475L321.61 196.838C324.03 204.012 326.39 211.221 328.55 218.505C330.8 225.924 332.85 233.41 334.81 240.913C336.77 248.425 338.55 255.982 340.2 263.544C340.61 265.43 341.01 267.315 341.4 269.199L341.5 269.686L341.01 269.789L297.05 279.117L299.74 303.026L364.78 302.013C364.78 302.013 364.78 302.013 364.79 302.013C364.83 302.012 364.88 302.011 364.93 302.009C365.05 302.006 365.18 302.003 365.28 301.999C374.38 301.583 381.43 293.868 381.01 284.765L380.87 281.685L380.53 278.341M380.53 278.337V278.341M380.17 275.176L380.66 275.12L380.17 275.182V275.176Z" stroke="#020B18"/>
<path d="M296.5 278.722L340.91 269.3C340.91 269.3 331.02 226.214 326.82 212.175C326.82 212.175 325.84 233.514 330.11 251.259C334.37 269.004 296.5 278.722 296.5 278.722Z" fill="#C1B598"/>
<path d="M310.85 141.422C310.85 141.422 299.3 158.494 280.83 151.826V139.757L310.85 133.409V141.422Z" fill="#C1B598"/>
<path d="M328.53 100.696C331.05 122.364 315.52 141.969 293.85 144.486C272.19 147.002 252.58 131.477 250.06 109.809C247.55 88.1407 263.07 68.5357 284.74 66.0197C306.41 63.5017 326.01 79.0276 328.53 100.696Z" fill="#FFF5DE"/>
<path d="M340.1 99.4348C341.87 105.865 338.09 112.511 331.65 114.275C325.22 116.04 318.58 112.257 316.81 105.827C315.05 99.3958 318.83 92.7517 325.26 90.9867C331.69 89.2207 338.34 93.0038 340.1 99.4348Z" fill="#FFF5DE"/>
<path d="M321.4 93.407L318.93 105.459C318.43 107.905 316.1 109.533 313.63 109.165C310.94 108.764 309.15 106.172 309.73 103.515L310.26 94.735C312.99 84.475 302.79 77.853 293.14 80.804C293.14 80.804 263.81 86.979 252.87 77.011C252.87 77.011 266.97 53.779 303.02 57.169C319.1 58.681 325.1 71.159 325.1 71.159L326.42 90.728C324.52 91.071 321.4 93.407 321.4 93.407Z" fill="#020B18"/>
<path d="M331.24 90.8786V76.0906C331.24 64.8446 322.21 53.5826 310.97 53.4106L262.81 52.7406C256.41 52.6436 251.17 57.8036 251.17 64.2046C251.17 70.3486 256.02 77.4986 262.16 77.7566L280.2 78.3386L284.74 66.0186L310.78 73.8946L326.42 90.7276C329.05 90.2396 331.24 90.8786 331.24 90.8786Z" fill="#020B18"/>
<path d="M244.43 59.9167C244.43 72.1537 254.35 82.0737 266.59 82.0737C278.83 82.0737 288.75 72.1537 288.75 59.9167C288.75 47.6797 278.83 37.7598 266.59 37.7598C254.35 37.7598 244.43 47.6797 244.43 59.9167Z" fill="#020B18"/>
<path d="M134.664 102.674C134.118 103.401 133.894 104.32 134.047 105.217C134.199 106.113 134.713 106.906 135.47 107.411L169.665 130.251C170.194 130.604 170.874 130.637 171.435 130.338C171.995 130.038 172.345 129.453 172.345 128.818V113.86L141.113 94.098L134.664 102.674Z" fill="#002E59"/>
<path d="M144.408 89.7142L172.345 107.389V88.7863L153.96 77.012L144.408 89.7142Z" fill="#002E59"/>
<path d="M172.345 82.293V57.723C172.345 56.9822 171.871 56.3242 171.168 56.0892C170.464 55.8541 169.691 56.0954 169.245 56.6876L157.257 72.6287L172.345 82.293Z" fill="#002E59"/>
<path d="M204.097 94.0981L172.865 113.859V128.818C172.865 129.454 173.216 130.038 173.776 130.337C174.337 130.637 175.017 130.604 175.545 130.251L209.739 107.41C210.496 106.905 211.01 106.112 211.162 105.215C211.314 104.318 211.091 103.4 210.545 102.674L204.097 94.0981Z" fill="#002E59"/>
<path d="M191.249 77.0121L172.864 88.7864V107.39L200.8 89.7143L191.249 77.0121Z" fill="#002E59"/>
<path d="M175.964 56.6886C175.518 56.0956 174.744 55.8551 174.041 56.0894C173.338 56.3244 172.865 56.9824 172.865 57.7239V82.2939L187.953 72.6313L175.964 56.6886Z" fill="#002E59"/>
<path d="M78.1193 144.083C78.1193 142.202 76.5936 140.678 74.7124 140.678H67.0092C65.1272 140.678 63.6023 142.202 63.6023 144.083V201.005H78.1193V144.083Z" fill="#6FD1FB"/>
<path d="M89.8933 164.732C89.8933 162.85 88.3684 161.326 86.4864 161.326H86.0416C84.1605 161.326 82.6348 162.85 82.6348 164.732V201.004H89.8933V164.732Z" fill="#6FD1FB"/>
<path d="M108.926 134.405C108.926 132.524 107.4 131 105.519 131H97.8168C95.9356 131 94.4099 132.524 94.4099 134.405V201.006H108.926V134.405Z" fill="#6FD1FB"/>
<path d="M120.701 204.283C120.701 202.402 119.176 200.878 117.295 200.878H116.85C114.969 200.878 113.443 202.402 113.443 204.283V225.006H120.701V204.283Z" fill="#6FD1FB"/>
<path d="M53.4053 204.96C51.5249 204.96 50 206.484 50 208.365V211.568H134.301V208.365C134.301 206.484 132.776 204.96 130.895 204.96H53.4053Z" fill="#6FD1FB"/>
</g>
</g>
<defs>
<filter id="filter0_d_2_2862" x="-4" y="0" width="442" height="596" filterUnits="userSpaceOnUse" color-interpolation-filters="sRGB">
<feFlood flood-opacity="0" result="BackgroundImageFix"/>
<feColorMatrix in="SourceAlpha" type="matrix" values="0 0 0 0 0 0 0 0 0 0 0 0 0 0 0 0 0 0 127 0" result="hardAlpha"/>
<feOffset dy="4"/>
<feGaussianBlur stdDeviation="2"/>
<feComposite in2="hardAlpha" operator="out"/>
<feColorMatrix type="matrix" values="0 0 0 0 0 0 0 0 0 0 0 0 0 0 0 0 0 0 0.25 0"/>
<feBlend mode="normal" in2="BackgroundImageFix" result="effect1_dropShadow_2_2862"/>
<feBlend mode="normal" in="SourceGraphic" in2="effect1_dropShadow_2_2862" result="shape"/>
</filter>
</defs>
</svg>
